{"glyphs":{"0":{"ha":879,"x_min":20,"x_max":859,"o":"m 859 486 q 846 367 859 426 q 808 254 833 308 q 746 153 783 199 q 663 71 710 106 q 561 17 616 37 q 440 -3 505 -3 q 319 17 375 -3 q 216 71 262 37 q 133 153 170 106 q 71 254 96 199 q 33 367 46 308 q 20 486 20 427 q 33 604 20 545 q 71 718 46 664 q 133 820 96 772 q 216 901 170 867 q 319 956 262 936 q 440 975 376 975 q 561 956 505 975 q 663 901 616 936 q 746 820 710 867 q 808 718 783 772 q 846 604 833 664 q 859 486 859 545 m 573 465 q 565 532 573 495 q 540 600 557 568 q 496 654 523 632 q 433 675 470 675 q 370 654 396 675 q 326 600 343 632 q 300 532 309 568 q 292 465 292 495 q 300 399 292 435 q 326 330 309 362 q 370 277 343 298 q 433 255 396 255 q 496 277 470 255 q 540 330 523 298 q 565 399 557 362 q 573 465 573 435 z "},"1":{"ha":539,"x_min":-20,"x_max":509,"o":"m 509 975 l 469 11 l 174 24 l 190 666 l 81 591 l -20 823 l 201 989 l 509 975 z "},"2":{"ha":707,"x_min":19,"x_max":684,"o":"m 684 639 q 664 535 684 585 q 612 443 644 486 q 539 364 580 400 q 456 298 498 328 l 670 298 l 654 16 l 19 38 l 19 285 q 95 314 55 297 q 173 354 134 332 q 245 404 211 376 q 306 465 279 432 q 347 536 332 498 q 362 620 362 575 q 353 665 362 646 q 328 698 344 685 q 290 718 311 711 q 244 724 269 724 q 203 720 224 724 q 161 707 182 715 q 123 687 141 699 q 91 661 105 675 l 31 926 q 89 968 56 951 q 157 996 121 985 q 231 1011 193 1006 q 304 1016 268 1016 q 453 987 384 1016 q 573 908 522 958 q 654 788 625 857 q 684 639 684 719 z "},"3":{"ha":733,"x_min":12,"x_max":709,"o":"m 709 342 q 681 185 709 252 q 600 76 652 119 q 477 11 549 32 q 320 -11 406 -11 q 241 -3 281 -11 q 160 17 200 4 q 82 47 120 30 q 12 85 45 65 l 38 358 q 96 325 64 340 q 162 296 127 309 q 231 276 196 283 q 298 269 266 269 q 337 272 317 269 q 374 283 357 275 q 400 306 390 291 q 411 345 411 321 q 397 372 411 359 q 365 394 384 385 q 326 409 346 404 q 292 414 305 414 q 269 413 282 414 q 242 410 256 412 q 216 404 229 408 q 197 395 203 400 l 201 589 q 222 587 212 587 q 244 586 233 586 q 296 590 268 586 q 347 606 323 595 q 387 637 371 617 q 403 688 403 656 q 391 724 403 710 q 360 745 378 738 q 321 755 342 753 q 283 758 300 758 q 175 739 229 758 q 81 684 122 720 l 24 930 q 166 1008 87 981 q 327 1035 246 1035 q 468 1014 401 1035 q 587 950 536 992 q 669 848 639 909 q 700 707 700 787 q 693 660 700 684 q 675 614 686 636 q 648 572 663 591 q 614 538 632 553 q 661 504 643 526 q 690 456 680 482 q 705 400 701 429 q 709 342 709 370 z "},"4":{"ha":749,"x_min":0,"x_max":724,"o":"m 724 326 l 665 324 l 652 31 l 346 4 l 362 317 l 0 309 l 100 905 l 357 905 l 282 490 l 372 492 l 397 1006 l 692 1006 l 671 503 l 724 506 l 724 326 z "},"5":{"ha":737,"x_min":18,"x_max":723,"o":"m 723 342 q 691 189 723 254 q 606 81 660 123 q 478 17 551 38 q 321 -4 405 -4 q 243 2 281 -4 q 166 17 204 7 q 92 40 129 27 q 18 68 55 53 l 43 338 q 96 313 68 324 q 153 293 123 301 q 213 280 182 285 q 271 275 243 275 q 313 278 288 275 q 359 290 337 281 q 398 313 382 298 q 414 351 414 328 q 401 390 414 374 q 369 417 389 406 q 323 433 349 427 q 273 443 298 439 q 225 447 248 446 q 187 448 202 448 q 125 445 157 448 q 64 434 94 442 l 91 982 l 640 997 l 655 713 l 315 732 l 308 612 q 369 623 338 619 q 430 627 399 627 q 545 607 492 627 q 638 549 598 587 q 700 459 677 512 q 723 342 723 407 z "},"6":{"ha":796,"x_min":22,"x_max":785,"o":"m 785 346 q 756 196 785 263 q 676 80 727 128 q 554 6 625 33 q 401 -20 484 -20 q 280 -2 334 -20 q 184 49 227 16 q 111 126 142 81 q 61 223 81 171 q 31 334 41 275 q 22 452 22 392 q 33 594 22 525 q 66 725 43 664 q 125 838 89 786 q 210 926 161 889 q 324 983 260 962 q 468 1004 388 1004 q 528 1001 497 1004 q 589 993 558 999 q 648 977 619 987 q 703 951 677 966 l 682 684 q 578 720 634 707 q 469 732 522 732 q 397 720 427 732 q 345 684 366 707 q 312 629 324 661 q 297 557 300 597 q 393 598 342 583 q 496 613 444 613 q 609 595 556 613 q 701 542 662 576 q 763 458 740 507 q 785 346 785 408 m 528 326 q 518 363 528 347 q 495 392 509 380 q 461 410 480 404 q 423 416 442 416 q 386 410 404 416 q 353 392 368 404 q 329 363 338 380 q 320 326 320 347 q 329 289 320 305 q 353 260 338 272 q 386 242 368 249 q 423 236 404 236 q 461 242 442 236 q 495 260 480 249 q 518 289 509 272 q 528 326 528 305 z "},"7":{"ha":703,"x_min":12,"x_max":685,"o":"m 685 746 q 561 398 616 554 q 514 267 537 332 q 472 149 491 202 q 439 59 452 96 q 423 14 427 22 l 68 34 l 381 708 l 12 688 l 12 981 l 685 993 l 685 746 z "},"8":{"ha":793,"x_min":20,"x_max":774,"o":"m 774 300 q 759 201 774 245 q 718 124 744 158 q 656 67 692 91 q 578 28 621 43 q 489 6 536 13 q 394 -1 442 -1 q 259 17 326 -1 q 139 73 192 35 q 53 167 85 111 q 20 300 20 223 q 27 362 20 331 q 49 422 35 394 q 85 474 63 451 q 135 513 106 497 q 68 605 90 553 q 45 716 45 656 q 76 839 45 786 q 157 927 107 891 q 269 980 207 962 q 394 998 332 998 q 477 990 435 998 q 557 966 519 982 q 630 927 596 951 q 688 872 663 903 q 727 801 713 840 q 741 716 741 762 q 719 605 741 656 q 652 513 696 553 q 745 425 717 479 q 774 300 774 372 m 507 651 q 497 691 507 673 q 471 722 487 709 q 434 742 454 735 q 394 749 414 749 q 353 742 373 749 q 316 722 332 735 q 290 691 300 709 q 280 651 280 673 q 290 611 280 629 q 316 581 300 593 q 353 562 332 568 q 394 555 373 555 q 434 562 414 555 q 471 581 454 568 q 497 611 487 593 q 507 651 507 629 m 505 332 q 495 373 505 355 q 470 403 486 391 q 434 422 454 415 q 394 429 414 429 q 354 422 374 429 q 317 403 334 415 q 291 373 301 391 q 281 332 281 355 q 291 293 281 311 q 317 263 301 275 q 354 244 334 251 q 394 237 374 237 q 434 244 414 237 q 470 263 454 251 q 495 293 486 275 q 505 332 505 311 z "},"9":{"ha":771,"x_min":18,"x_max":749,"o":"m 749 555 q 739 425 749 490 q 707 298 728 359 q 652 183 686 237 q 573 90 619 130 q 467 27 527 50 q 332 4 407 4 q 264 7 300 4 q 194 17 229 10 q 125 37 159 24 q 65 69 92 50 l 100 326 q 148 303 121 313 q 202 284 174 292 q 258 272 230 276 q 311 267 286 267 q 379 278 350 267 q 428 311 408 290 q 460 361 448 332 q 477 427 472 391 q 392 394 437 406 q 301 382 347 382 q 193 400 244 382 q 102 451 141 418 q 41 531 64 484 q 18 639 18 578 q 46 781 18 716 q 123 891 74 845 q 238 963 172 937 q 382 989 305 989 q 546 954 477 989 q 660 860 614 919 q 727 722 705 800 q 749 555 749 643 m 468 654 q 459 690 468 674 q 435 718 450 707 q 403 736 421 730 q 366 742 385 742 q 330 736 348 742 q 298 719 313 730 q 276 692 284 708 q 267 656 267 676 q 276 621 267 637 q 300 593 286 604 q 332 575 314 581 q 369 568 351 568 q 405 574 387 568 q 437 592 422 581 q 459 618 451 603 q 468 654 468 634 z "}," ":{"ha":271,"x_min":0,"x_max":0,"o":""},"A":{"ha":869,"x_min":-22,"x_max":890,"o":"m 890 58 l 553 15 l 513 168 l 358 168 l 324 15 l -22 49 l 248 952 l 625 971 l 890 58 m 488 376 l 437 612 l 387 376 l 488 376 z "},"B":{"ha":825,"x_min":36,"x_max":824,"o":"m 824 241 q 803 144 824 185 q 748 75 783 104 q 668 29 713 47 q 574 1 623 11 q 476 -13 526 -9 q 385 -16 427 -16 q 297 -13 342 -16 q 208 -3 252 -10 q 119 17 163 5 q 37 49 76 30 l 36 922 q 117 950 74 938 q 204 971 159 963 q 292 984 248 980 q 378 989 336 989 q 475 983 426 989 q 570 962 524 977 q 654 925 615 948 q 723 869 694 903 q 769 792 753 836 q 786 690 786 748 q 775 619 786 652 q 744 559 764 586 q 694 514 724 533 q 629 487 665 496 q 709 453 673 475 q 771 399 745 431 q 810 327 796 367 q 824 241 824 287 m 479 628 q 471 662 479 648 q 451 684 463 675 q 426 697 439 693 q 401 701 412 701 q 374 697 387 701 q 349 688 361 693 l 345 537 q 384 540 361 537 q 428 552 407 543 q 465 579 450 561 q 479 628 479 597 m 383 407 q 345 403 363 407 l 342 248 q 362 244 353 246 q 382 243 372 243 q 413 246 396 243 q 445 258 430 249 q 470 283 460 267 q 479 324 479 298 q 470 366 479 350 q 446 392 460 382 q 414 404 431 401 q 383 407 397 407 z "},"C":{"ha":715,"x_min":9,"x_max":707,"o":"m 707 954 l 669 667 q 629 675 649 673 q 590 677 610 677 q 494 664 540 677 q 414 623 449 650 q 358 555 379 596 q 338 460 338 515 q 349 399 338 425 q 380 356 360 373 q 429 331 401 339 q 490 323 456 323 q 542 328 515 323 q 595 342 569 334 q 647 363 622 351 q 693 387 672 374 l 666 68 q 609 44 640 54 q 545 25 578 33 q 480 14 513 18 q 418 9 448 9 q 257 41 332 9 q 127 129 182 73 q 41 260 73 184 q 9 423 9 336 q 43 642 9 539 q 140 822 76 745 q 300 944 205 899 q 519 989 395 989 q 615 981 566 989 q 707 954 665 974 z "},"D":{"ha":809,"x_min":30,"x_max":803,"o":"m 803 538 q 779 367 803 444 q 710 232 754 291 q 606 130 667 172 q 474 59 546 87 q 321 19 402 32 q 155 5 240 5 q 92 7 123 5 q 30 12 62 9 l 49 922 q 202 956 123 946 q 359 966 281 966 q 538 937 456 966 q 678 852 619 907 q 770 718 737 798 q 803 538 803 639 m 525 495 q 517 566 526 532 q 489 626 509 600 q 440 668 470 652 q 369 685 410 684 l 342 264 q 416 291 382 271 q 473 342 449 312 q 510 409 497 372 q 525 486 524 446 l 525 495 z "},"E":{"ha":665,"x_min":30,"x_max":677,"o":"m 677 978 q 669 852 673 914 q 661 726 666 789 l 373 711 l 366 625 l 568 625 l 553 415 l 350 408 l 343 309 l 511 309 l 631 309 q 622 161 627 235 q 614 14 618 87 l 30 0 l 52 978 l 677 978 z "},"F":{"ha":677,"x_min":30,"x_max":677,"o":"m 677 978 q 669 852 673 914 q 661 726 666 789 l 373 711 l 373 625 l 623 625 l 609 415 l 372 408 l 373 7 l 30 0 l 52 978 l 677 978 z "},"G":{"ha":870,"x_min":5,"x_max":853,"o":"m 853 138 q 774 68 821 98 q 674 19 728 39 q 564 -11 621 -1 q 457 -20 508 -20 q 276 15 359 -20 q 133 112 193 50 q 39 258 73 174 q 5 439 5 342 q 22 584 5 513 q 71 718 39 655 q 148 833 102 781 q 251 924 193 886 q 377 983 309 962 q 524 1004 446 1004 q 586 1001 553 1004 q 652 993 619 999 q 716 977 685 987 q 773 952 747 967 l 754 693 q 676 712 716 707 q 597 718 635 718 q 495 701 543 718 q 413 653 448 684 q 358 577 378 622 q 338 476 338 532 q 347 408 338 441 q 376 350 357 375 q 424 309 395 324 q 491 293 453 293 q 544 300 517 293 q 591 323 572 307 l 594 376 l 431 378 l 439 582 q 642 588 541 585 q 845 594 743 590 l 853 138 z "},"H":{"ha":869,"x_min":28,"x_max":840,"o":"m 840 0 l 500 -16 l 498 297 l 342 297 l 332 0 l 28 0 l 54 954 l 377 939 l 357 452 l 507 452 l 509 975 l 818 967 l 840 0 z "},"I":{"ha":413,"x_min":40,"x_max":401,"o":"m 401 955 l 326 31 l 40 16 l 40 936 l 401 955 z "},"J":{"ha":708,"x_min":-9,"x_max":682,"o":"m 682 559 q 682 479 682 519 q 678 400 682 440 q 642 240 671 315 q 563 107 612 164 q 441 17 513 50 q 278 -16 370 -16 q 203 -10 242 -16 q 126 8 164 -4 q 53 38 87 20 q -9 80 18 56 l 33 361 q 121 298 73 322 q 228 274 170 274 q 291 285 265 274 q 334 315 317 296 q 360 359 351 334 q 375 413 370 385 q 380 473 379 442 q 381 533 381 503 q 370 748 381 641 q 351 962 359 854 l 662 982 q 682 559 682 770 z "},"K":{"ha":853,"x_min":29,"x_max":895,"o":"m 895 971 l 568 519 l 843 39 l 528 -16 l 322 277 l 311 -30 l 29 -41 l 51 998 l 367 981 l 342 674 l 553 998 l 895 971 z "},"L":{"ha":628,"x_min":31,"x_max":631,"o":"m 631 387 l 602 85 l 31 41 q 40 511 35 277 q 53 982 45 745 l 406 982 q 376 685 390 833 q 355 387 361 537 q 418 385 387 385 q 481 385 450 385 q 556 386 519 385 q 631 387 593 387 z "},"M":{"ha":1098,"x_min":33,"x_max":1083,"o":"m 1083 989 l 1021 -7 l 711 -20 l 714 505 l 574 81 l 455 81 l 348 460 l 347 20 l 33 11 l 47 948 l 395 962 l 534 513 l 718 989 l 1083 989 z "},"N":{"ha":977,"x_min":28,"x_max":957,"o":"m 957 972 l 908 53 l 553 20 l 363 513 l 333 11 l 28 11 l 52 972 l 391 989 l 626 500 l 637 962 l 957 972 z "},"O":{"ha":886,"x_min":12,"x_max":873,"o":"m 873 479 q 859 360 873 417 q 818 252 844 302 q 752 160 791 202 q 666 89 714 119 q 562 42 618 59 q 443 26 506 26 q 327 41 382 26 q 223 85 271 57 q 136 153 175 113 q 70 241 97 193 q 27 345 42 290 q 12 461 12 401 q 26 577 12 520 q 67 684 40 633 q 132 776 94 734 q 217 848 170 818 q 319 896 264 879 q 435 913 374 913 q 614 882 533 913 q 752 795 695 852 q 841 658 810 739 q 873 479 873 578 m 572 461 q 563 518 572 490 q 538 567 555 545 q 498 601 522 588 q 443 614 474 614 q 386 603 411 614 q 343 571 361 591 q 315 525 325 551 q 306 468 306 498 q 314 411 306 439 q 338 359 322 382 q 379 322 355 336 q 435 308 403 308 q 492 320 467 308 q 535 354 517 333 q 562 404 553 376 q 572 461 572 431 z "},"P":{"ha":827,"x_min":37,"x_max":825,"o":"m 825 652 q 805 536 825 587 q 751 447 785 485 q 671 382 717 409 q 572 339 625 356 q 463 315 519 323 q 353 307 407 307 l 353 -9 l 37 -9 q 37 300 37 146 q 39 610 38 454 q 40 776 41 693 q 43 943 39 859 q 217 981 130 968 q 396 994 304 994 q 500 986 448 994 q 601 959 553 977 q 689 913 648 941 q 760 848 730 886 q 807 761 790 810 q 825 652 825 713 m 524 629 q 497 698 524 673 q 427 723 470 723 q 398 721 413 723 q 369 715 382 718 l 361 517 q 379 515 370 515 q 397 515 388 515 q 445 524 422 515 q 485 547 467 532 q 513 583 503 562 q 524 629 524 604 z "},"Q":{"ha":960,"x_min":6,"x_max":946,"o":"m 946 505 q 908 308 946 401 q 793 144 869 214 l 886 33 l 638 -127 l 580 33 q 528 24 554 27 q 475 22 502 22 q 351 38 410 22 q 239 84 291 54 q 144 155 186 113 q 70 249 101 197 q 23 360 39 300 q 6 486 6 420 q 22 611 6 550 q 67 725 38 671 q 139 823 97 779 q 232 900 180 867 q 343 949 283 932 q 469 967 403 967 q 662 935 574 967 q 812 844 749 903 q 911 698 876 784 q 946 505 946 612 m 616 486 q 607 546 616 517 q 581 598 598 576 q 536 635 563 621 q 475 648 510 648 q 414 636 441 648 q 368 604 387 625 q 338 554 349 583 q 328 492 328 526 q 337 431 328 461 q 363 377 346 401 q 408 338 381 353 q 469 323 434 323 q 529 336 502 323 q 576 372 557 349 q 606 424 595 394 q 616 486 616 453 z "},"R":{"ha":842,"x_min":29,"x_max":829,"o":"m 829 654 q 820 558 829 601 q 791 479 811 515 q 741 412 772 443 q 665 354 709 382 l 827 66 l 522 7 l 417 296 l 333 293 l 321 11 l 29 11 q 36 319 33 165 q 43 627 39 472 q 45 781 44 705 q 51 936 47 858 q 144 965 98 954 q 237 983 191 977 q 331 992 283 989 q 429 994 379 994 q 579 973 507 994 q 707 909 651 951 q 796 802 762 866 q 829 654 829 739 m 526 632 q 518 684 526 661 q 495 725 510 708 q 457 752 479 743 q 404 762 434 762 q 377 761 390 762 q 352 755 364 759 l 341 503 l 357 503 q 417 511 387 503 q 471 534 447 518 q 510 574 495 549 q 526 632 526 598 z "},"S":{"ha":737,"x_min":18,"x_max":729,"o":"m 729 361 q 697 198 729 268 q 609 83 665 129 q 478 14 553 37 q 317 -9 403 -9 q 244 -1 283 -9 q 163 21 204 8 q 85 50 123 35 q 18 79 47 65 l 48 358 q 176 306 106 323 q 314 288 246 288 q 345 289 327 288 q 380 295 363 290 q 408 310 397 300 q 420 339 420 320 q 412 361 420 352 q 391 376 404 370 q 361 385 378 382 q 330 389 345 388 q 300 391 314 391 q 279 391 287 391 q 173 411 220 391 q 91 468 125 431 q 37 554 56 504 q 18 662 18 604 q 51 805 18 742 q 137 913 83 869 q 260 981 191 958 q 405 1005 330 1005 q 473 1003 438 1005 q 544 994 509 1000 q 612 979 578 988 q 675 955 645 969 l 649 680 q 552 706 603 695 q 454 716 502 716 q 431 716 445 716 q 402 714 417 715 q 371 709 387 712 q 343 700 355 705 q 323 684 331 694 q 317 662 316 675 q 328 638 317 647 q 355 624 338 629 q 392 616 372 618 q 431 614 412 614 q 468 614 451 614 q 496 613 485 614 q 593 590 550 610 q 667 538 637 570 q 713 460 697 505 q 729 361 729 415 z "},"T":{"ha":754,"x_min":4,"x_max":751,"o":"m 751 970 l 745 682 l 543 674 l 491 31 l 205 16 l 206 659 l 4 648 l 12 968 l 751 970 z "},"U":{"ha":865,"x_min":22,"x_max":846,"o":"m 846 754 q 841 644 846 704 q 825 519 836 583 q 797 388 814 454 q 754 261 780 322 q 694 147 728 200 q 615 54 660 94 q 516 -8 571 14 q 394 -31 461 -31 q 257 -6 315 -31 q 158 63 199 20 q 90 163 117 106 q 49 284 64 220 q 28 415 34 349 q 22 544 22 482 q 32 733 22 639 q 59 922 41 828 l 376 910 q 345 696 358 804 q 332 480 332 589 q 333 446 332 469 q 336 395 334 423 q 344 337 339 367 q 358 283 349 308 q 379 243 367 259 q 409 228 392 228 q 444 247 429 228 q 472 296 460 265 q 492 368 484 328 q 507 453 501 409 q 517 541 513 497 q 523 623 521 585 q 526 690 526 661 q 527 734 527 720 q 525 839 527 787 q 520 944 524 892 l 838 944 q 846 754 846 850 z "},"V":{"ha":851,"x_min":-26,"x_max":864,"o":"m 864 951 l 616 7 l 279 -12 l -26 941 l 296 971 l 426 415 l 552 971 l 864 951 z "},"W":{"ha":1261,"x_min":3,"x_max":1258,"o":"m 1258 941 l 1099 1 l 714 -7 l 631 480 l 549 28 l 163 15 l 3 941 l 340 971 l 408 408 l 498 971 l 763 971 l 869 401 l 923 971 l 1258 941 z "},"X":{"ha":817,"x_min":-31,"x_max":851,"o":"m 851 951 l 587 491 l 812 91 l 528 3 l 406 279 l 262 1 l -31 107 l 219 500 l -9 914 l 302 989 l 413 716 l 531 989 l 851 951 z "},"Y":{"ha":843,"x_min":8,"x_max":906,"o":"m 906 918 l 533 397 l 515 -27 l 194 -27 l 202 395 l 8 898 l 354 941 l 408 648 l 581 941 l 906 918 z "},"Z":{"ha":676,"x_min":8,"x_max":655,"o":"m 655 745 l 345 326 l 644 326 l 640 38 l 35 14 l 8 279 l 362 741 l 38 716 l 35 989 l 643 989 l 655 745 z "},"a":{"ha":869,"x_min":-22,"x_max":890,"o":"m 890 58 l 553 15 l 513 168 l 358 168 l 324 15 l -22 49 l 248 952 l 625 971 l 890 58 m 488 376 l 437 612 l 387 376 l 488 376 z "},"b":{"ha":825,"x_min":36,"x_max":824,"o":"m 824 241 q 803 144 824 185 q 748 75 783 104 q 668 29 713 47 q 574 1 623 11 q 476 -13 526 -9 q 385 -16 427 -16 q 297 -13 342 -16 q 208 -3 252 -10 q 119 17 163 5 q 37 49 76 30 l 36 922 q 117 950 74 938 q 204 971 159 963 q 292 984 248 980 q 378 989 336 989 q 475 983 426 989 q 570 962 524 977 q 654 925 615 948 q 723 869 694 903 q 769 792 753 836 q 786 690 786 748 q 775 619 786 652 q 744 559 764 586 q 694 514 724 533 q 629 487 665 496 q 709 453 673 475 q 771 399 745 431 q 810 327 796 367 q 824 241 824 287 m 479 628 q 471 662 479 648 q 451 684 463 675 q 426 697 439 693 q 401 701 412 701 q 374 697 387 701 q 349 688 361 693 l 345 537 q 384 540 361 537 q 428 552 407 543 q 465 579 450 561 q 479 628 479 597 m 383 407 q 345 403 363 407 l 342 248 q 362 244 353 246 q 382 243 372 243 q 413 246 396 243 q 445 258 430 249 q 470 283 460 267 q 479 324 479 298 q 470 366 479 350 q 446 392 460 382 q 414 404 431 401 q 383 407 397 407 z "},"c":{"ha":712,"x_min":10,"x_max":696,"o":"m 682 926 l 657 640 q 618 648 637 646 q 580 650 600 650 q 488 637 532 650 q 411 600 444 625 q 357 537 377 575 q 337 446 337 498 q 348 380 337 408 q 380 333 359 352 q 430 305 401 315 q 496 296 460 296 q 547 301 521 296 q 600 315 574 306 q 651 335 627 323 q 696 359 675 347 l 686 41 q 629 17 659 27 q 566 -2 598 6 q 502 -14 534 -9 q 440 -18 469 -18 q 265 18 344 -18 q 129 116 186 54 q 41 260 73 178 q 10 435 10 342 q 42 643 10 547 q 135 810 73 739 q 287 921 196 881 q 494 962 377 962 q 589 954 541 962 q 682 926 637 947 z "},"d":{"ha":810,"x_min":30,"x_max":803,"o":"m 803 538 q 779 368 803 444 q 710 235 754 293 q 606 136 667 177 q 474 70 546 96 q 321 31 402 43 q 155 19 240 19 q 92 21 123 19 q 30 26 62 22 l 49 909 q 202 942 123 932 q 359 952 281 952 q 538 925 456 952 q 678 845 619 898 q 770 716 737 793 q 803 538 803 639 m 342 278 q 416 303 382 284 q 474 349 450 321 q 512 411 498 376 q 525 486 525 446 q 517 558 525 524 q 490 616 509 591 q 442 655 472 641 q 369 671 412 670 l 342 278 z "},"e":{"ha":801,"x_min":12,"x_max":791,"o":"m 791 548 q 783 430 791 489 q 553 406 667 422 q 323 373 438 389 q 379 295 341 324 q 469 266 416 266 q 528 276 496 266 q 592 301 560 286 q 653 334 624 317 q 703 366 682 352 l 671 58 q 613 24 644 38 q 549 1 583 9 q 482 -12 516 -8 q 416 -16 448 -16 q 293 2 349 -16 q 192 53 237 20 q 113 131 147 86 q 57 229 79 176 q 23 340 35 281 q 12 460 12 399 q 23 586 12 523 q 58 707 35 649 q 117 815 81 766 q 200 903 153 865 q 308 961 248 940 q 440 982 368 982 q 550 965 500 982 q 639 919 600 949 q 707 849 678 890 q 754 760 736 808 q 782 657 773 711 q 791 548 791 604 m 520 583 q 516 622 520 602 q 503 659 512 642 q 479 685 494 675 q 441 696 464 696 q 394 681 414 696 q 358 645 373 667 q 334 597 343 623 q 319 549 324 571 l 520 568 l 520 583 z "},"f":{"ha":677,"x_min":29,"x_max":676,"o":"m 676 964 q 669 838 672 901 q 660 712 665 776 l 372 697 l 372 612 l 622 612 l 608 401 l 371 395 l 372 20 l 29 14 l 51 964 l 676 964 z "},"g":{"ha":871,"x_min":7,"x_max":854,"o":"m 854 152 q 776 82 823 112 q 675 33 729 52 q 566 3 622 13 q 458 -7 509 -7 q 277 26 360 -7 q 135 119 195 60 q 41 260 75 178 q 7 439 7 342 q 24 583 7 513 q 72 714 41 653 q 149 826 104 775 q 252 913 195 877 q 379 970 310 950 q 525 990 448 990 q 587 988 554 990 q 653 980 621 985 q 718 964 686 974 q 774 939 749 954 l 755 680 q 677 699 718 694 q 598 704 637 704 q 497 689 544 704 q 415 646 450 675 q 359 575 380 618 q 339 476 339 532 q 349 408 339 441 q 377 350 358 375 q 426 309 397 324 q 492 293 454 293 q 546 300 518 293 q 593 323 573 307 l 595 376 l 433 378 l 441 582 q 643 588 542 585 q 846 594 744 590 l 854 152 z "},"h":{"ha":869,"x_min":28,"x_max":840,"o":"m 840 27 l 500 11 l 498 297 l 342 297 l 332 0 l 28 0 l 54 954 l 377 939 l 357 452 l 507 452 l 509 962 l 818 954 l 840 27 z "},"i":{"ha":409,"x_min":28,"x_max":389,"o":"m 389 955 l 341 31 l 55 16 l 28 936 l 389 955 z "},"j":{"ha":708,"x_min":-9,"x_max":682,"o":"m 682 559 q 682 479 682 519 q 678 400 682 440 q 642 240 671 315 q 563 107 612 164 q 441 17 513 50 q 278 -16 370 -16 q 203 -10 242 -16 q 126 8 164 -4 q 53 38 87 20 q -9 80 18 56 l 33 361 q 121 298 73 322 q 228 274 170 274 q 291 285 265 274 q 334 315 317 296 q 360 359 351 334 q 375 413 370 385 q 380 473 379 442 q 381 533 381 503 q 370 748 381 641 q 351 962 359 854 l 662 982 q 682 559 682 770 z "},"k":{"ha":837,"x_min":30,"x_max":868,"o":"m 868 876 l 568 519 l 844 53 l 529 -3 l 323 277 l 312 11 l 30 0 l 52 971 l 368 954 l 343 674 l 540 958 l 868 876 z "},"l":{"ha":627,"x_min":30,"x_max":629,"o":"m 629 359 l 601 58 l 30 14 l 52 982 l 404 982 l 354 359 l 629 359 z "},"m":{"ha":1247,"x_min":12,"x_max":1220,"o":"m 1220 460 q 1214 267 1220 363 q 1200 73 1208 170 l 851 57 q 879 293 867 175 q 892 530 892 412 q 891 556 892 538 q 889 599 890 575 q 884 648 887 623 q 876 695 881 673 q 863 730 871 716 q 846 743 856 743 q 808 725 822 743 q 788 682 795 707 q 781 631 782 657 q 779 589 779 605 q 781 532 779 560 q 782 473 782 503 q 777 264 782 368 q 764 54 772 159 l 443 42 q 470 278 458 160 q 482 514 482 395 q 481 541 482 522 q 479 585 481 561 q 474 636 477 610 q 466 685 471 663 q 453 721 460 707 q 435 735 446 735 q 406 722 418 735 q 388 688 395 709 q 377 641 380 667 q 371 591 373 616 q 369 546 370 567 q 368 515 369 526 l 353 20 l 12 20 q 34 250 22 135 q 53 480 45 366 q 67 711 62 595 q 73 941 73 826 l 395 955 l 394 876 q 428 915 409 895 q 468 949 447 934 q 514 974 490 964 q 564 983 538 983 q 623 978 597 983 q 671 961 650 973 q 709 927 692 949 q 737 873 725 906 q 781 918 759 897 q 827 952 803 938 q 880 975 852 967 q 943 983 909 983 q 1055 958 1009 983 q 1132 890 1101 932 q 1180 794 1163 848 q 1206 682 1198 740 q 1218 566 1215 623 q 1220 460 1220 508 z "},"n":{"ha":905,"x_min":19,"x_max":876,"o":"m 876 343 q 874 192 876 267 q 869 41 873 117 l 479 47 q 514 287 499 168 q 529 529 529 407 q 528 557 529 538 q 526 602 528 577 q 520 653 524 627 q 510 701 516 679 q 494 736 503 722 q 472 750 485 750 q 433 736 449 750 q 407 702 417 723 q 390 654 396 680 q 381 601 384 627 q 377 551 378 574 q 376 513 376 528 q 370 274 372 393 q 365 35 368 156 l 19 20 q 45 496 33 260 q 65 972 58 733 l 385 989 l 382 880 q 424 924 401 903 q 471 959 446 944 q 524 982 496 973 q 583 990 552 990 q 684 971 641 990 q 759 920 728 952 q 811 843 790 887 q 845 748 832 798 q 865 643 858 698 q 874 536 871 589 q 876 433 876 483 q 876 343 876 384 z "},"o":{"ha":886,"x_min":12,"x_max":873,"o":"m 873 519 q 859 400 873 458 q 818 293 844 343 q 752 201 791 243 q 666 130 714 159 q 562 83 618 100 q 443 66 506 66 q 327 82 382 66 q 223 126 271 98 q 136 194 175 154 q 70 282 97 233 q 27 386 42 330 q 12 502 12 441 q 26 617 12 561 q 67 724 40 674 q 132 817 94 774 q 217 889 170 859 q 319 937 264 920 q 435 954 374 954 q 614 923 533 954 q 752 836 695 892 q 841 699 810 779 q 873 519 873 618 m 572 502 q 563 558 572 531 q 538 607 555 586 q 498 642 522 629 q 443 655 474 655 q 386 644 411 655 q 343 612 361 632 q 315 565 325 592 q 306 509 306 538 q 314 452 306 480 q 338 400 322 423 q 379 363 355 377 q 435 349 403 349 q 492 361 467 349 q 535 395 517 374 q 562 444 553 416 q 572 502 572 472 z "},"p":{"ha":829,"x_min":37,"x_max":825,"o":"m 825 625 q 805 509 825 559 q 751 419 785 458 q 671 355 717 381 q 572 312 625 329 q 463 288 519 296 q 353 279 407 280 l 353 -9 l 37 -9 q 37 141 37 68 q 38 287 37 214 q 38 432 38 359 q 39 583 39 505 q 40 749 41 666 q 43 916 39 831 q 217 954 130 941 q 396 967 304 967 q 500 959 448 967 q 601 932 553 950 q 689 886 648 913 q 760 821 730 859 q 807 734 790 783 q 825 625 825 685 m 524 602 q 497 671 524 646 q 427 696 470 696 q 398 693 413 696 q 369 688 382 691 l 361 490 q 379 488 370 488 q 397 488 388 488 q 445 496 422 488 q 485 520 467 505 q 513 556 503 535 q 524 602 524 576 z "},"q":{"ha":960,"x_min":6,"x_max":946,"o":"m 946 505 q 908 308 946 401 q 793 144 869 214 l 886 33 l 638 -127 l 580 33 q 528 24 554 27 q 475 22 502 22 q 351 38 410 22 q 239 84 291 54 q 144 155 186 113 q 70 249 101 197 q 23 360 39 300 q 6 486 6 420 q 22 611 6 550 q 67 725 38 671 q 139 823 97 779 q 232 900 180 867 q 343 949 283 932 q 469 967 403 967 q 662 935 574 967 q 812 844 749 903 q 911 698 876 784 q 946 505 946 612 m 616 486 q 607 546 616 517 q 581 598 598 576 q 536 635 563 621 q 475 648 510 648 q 414 636 441 648 q 368 604 387 625 q 338 554 349 583 q 328 492 328 526 q 337 431 328 461 q 363 377 346 401 q 408 338 381 353 q 469 323 434 323 q 529 336 502 323 q 576 372 557 349 q 606 424 595 394 q 616 486 616 453 z "},"r":{"ha":842,"x_min":29,"x_max":829,"o":"m 829 654 q 820 558 829 601 q 791 479 811 515 q 741 412 772 443 q 665 354 709 382 l 827 66 l 522 7 l 417 296 l 333 293 l 321 11 l 29 11 q 36 319 33 165 q 43 627 39 472 q 45 781 44 705 q 51 936 47 858 q 144 965 98 954 q 237 983 191 977 q 331 992 283 989 q 429 994 379 994 q 579 973 507 994 q 707 909 651 951 q 796 802 762 866 q 829 654 829 739 m 526 632 q 518 684 526 661 q 495 725 510 708 q 457 752 479 743 q 404 762 434 762 q 377 761 390 762 q 352 755 364 759 l 341 503 l 357 503 q 417 511 387 503 q 471 534 447 518 q 510 574 495 549 q 526 632 526 598 z "},"s":{"ha":739,"x_min":19,"x_max":730,"o":"m 730 347 q 697 187 730 254 q 609 76 665 119 q 478 11 553 32 q 317 -9 404 -9 q 244 -1 284 -9 q 164 21 205 8 q 86 50 123 35 q 19 79 48 65 l 49 345 q 177 292 106 310 q 315 274 247 274 q 346 275 328 274 q 381 281 364 276 q 409 296 397 286 q 420 326 420 307 q 412 348 420 338 q 391 362 404 357 q 362 371 378 368 q 330 376 346 374 q 301 377 315 377 q 279 377 288 377 q 173 395 221 377 q 91 447 125 414 q 38 529 57 481 q 19 635 19 576 q 51 778 19 715 q 137 886 83 842 q 261 954 191 930 q 406 978 331 978 q 474 976 439 978 q 544 967 509 973 q 612 951 579 961 q 675 928 646 942 l 650 652 q 553 679 604 668 q 454 689 503 689 q 432 689 446 689 q 402 687 418 688 q 372 682 387 685 q 344 672 356 678 q 324 657 332 667 q 317 635 317 648 q 329 612 318 620 q 356 600 339 604 q 392 596 372 596 q 432 597 412 596 q 469 599 452 598 q 496 600 486 600 q 594 576 551 596 q 668 524 637 557 q 714 447 698 492 q 730 347 730 401 z "},"t":{"ha":757,"x_min":5,"x_max":753,"o":"m 753 956 l 746 669 l 544 661 l 519 31 l 233 16 l 208 646 l 5 635 l 14 955 l 753 956 z "},"u":{"ha":849,"x_min":24,"x_max":843,"o":"m 843 955 q 791 480 812 716 q 749 4 769 243 l 471 -16 l 484 88 q 452 61 470 73 q 414 42 434 50 q 372 32 393 35 q 330 30 350 29 q 243 48 284 31 q 169 94 203 65 q 108 161 135 123 q 62 242 81 199 q 34 328 43 284 q 24 414 24 372 q 26 540 24 475 q 35 671 28 606 q 51 802 41 737 q 75 925 60 866 q 241 918 158 921 q 408 916 325 914 q 377 797 392 857 q 349 678 361 738 q 330 557 337 618 q 322 435 322 497 q 323 395 322 421 q 331 342 325 368 q 348 297 336 317 q 382 278 360 278 q 428 300 408 278 q 464 359 448 322 q 491 446 479 397 q 510 548 502 494 q 522 655 517 601 q 529 757 527 709 q 533 843 532 805 q 534 902 534 881 q 533 928 534 916 q 531 955 532 941 q 618 953 575 954 q 706 952 662 952 q 774 952 740 952 q 843 955 808 953 z "},"v":{"ha":853,"x_min":-23,"x_max":867,"o":"m 867 951 l 618 34 l 282 15 l -23 901 l 298 930 l 429 415 l 555 971 l 867 951 z "},"w":{"ha":1263,"x_min":5,"x_max":1259,"o":"m 1259 941 l 1101 28 l 715 20 l 633 480 l 550 56 l 165 42 l 5 914 l 341 944 l 409 408 l 500 903 l 764 903 l 870 401 l 924 971 l 1259 941 z "},"x":{"ha":826,"x_min":-26,"x_max":855,"o":"m 855 924 l 591 491 l 829 104 l 546 16 l 410 279 l 267 1 l -26 107 l 223 500 l -5 887 l 306 962 l 417 716 l 535 962 l 855 924 z "},"y":{"ha":841,"x_min":-27,"x_max":871,"o":"m 871 918 l 552 397 l 562 14 l 213 14 l 221 395 l -27 898 l 319 941 l 427 648 l 545 941 l 871 918 z "},"z":{"ha":688,"x_min":24,"x_max":671,"o":"m 671 718 l 360 326 l 646 326 l 656 38 l 51 14 l 24 279 l 378 713 l 26 689 l 24 962 l 659 962 l 671 718 z "},"¦":{"ha":400,"x_min":46,"x_max":351,"o":"m 49 563 l 46 1053 l 350 1046 l 350 563 l 49 563 m 54 -99 l 50 361 l 350 361 l 351 -98 l 54 -99 z "},"−":{"ha":531,"x_min":44,"x_max":485,"o":"m 47 374 l 44 578 l 482 598 l 485 366 l 47 374 z "},"-":{"ha":531,"x_min":44,"x_max":485,"o":"m 47 374 l 44 578 l 482 598 l 485 366 l 47 374 z "},"–":{"ha":650,"x_min":45,"x_max":602,"o":"m 48 347 l 45 564 l 599 585 l 602 339 l 48 347 z "},"—":{"ha":1205,"x_min":45,"x_max":1156,"o":"m 48 347 l 45 564 l 1154 591 l 1156 346 l 48 347 z "},"“":{"ha":620,"x_min":9,"x_max":613,"o":"m 328 730 q 342 800 329 762 q 380 877 355 839 q 438 948 404 914 q 515 1004 473 981 q 516 989 515 1004 q 518 951 517 974 q 520 904 519 929 q 522 859 521 878 q 589 806 564 843 q 613 726 613 770 q 602 671 613 696 q 571 626 591 645 q 526 595 552 606 q 471 583 500 583 q 415 595 441 583 q 370 626 389 606 q 339 671 351 645 q 328 726 328 696 l 328 730 m 9 730 q 23 800 10 762 q 61 877 37 839 q 120 948 85 914 q 197 1004 154 981 q 197 989 197 1004 q 199 951 198 974 q 201 904 200 929 q 203 859 202 878 q 270 806 245 843 q 294 726 294 770 q 283 671 294 696 q 253 626 272 645 q 207 595 233 606 q 152 583 181 583 q 97 595 123 583 q 51 626 71 606 q 20 671 32 645 q 9 726 9 696 l 9 730 z "},"”":{"ha":617,"x_min":7,"x_max":611,"o":"m 292 856 q 278 785 291 824 q 240 709 264 747 q 181 638 216 671 q 104 582 147 604 q 104 598 104 583 q 102 635 103 613 q 100 682 101 657 q 98 727 98 707 q 31 779 56 743 q 7 860 7 816 q 18 915 7 889 q 48 960 29 941 q 94 991 68 979 q 149 1002 119 1002 q 204 991 178 1002 q 250 960 231 979 q 281 915 269 941 q 292 860 292 889 l 292 856 m 610 856 q 596 785 610 824 q 559 709 583 747 q 500 638 534 671 q 423 582 466 604 q 422 598 423 583 q 421 635 422 613 q 418 682 420 657 q 416 727 417 707 q 350 779 374 743 q 326 860 326 816 q 337 915 326 889 q 367 960 348 941 q 412 991 387 979 q 468 1002 438 1002 q 523 991 497 1002 q 569 960 549 979 q 600 915 588 941 q 610 860 611 889 l 610 856 z "},"‘":{"ha":301,"x_min":9,"x_max":294,"o":"m 9 731 q 23 802 10 763 q 61 878 37 840 q 120 949 85 916 q 197 1005 154 983 q 199 952 197 979 q 201 905 200 930 q 203 860 202 880 q 270 808 245 844 q 294 727 294 771 q 283 672 294 698 q 253 627 272 646 q 207 596 233 608 q 152 585 181 585 q 97 596 123 585 q 51 627 71 608 q 20 672 32 646 q 9 727 9 698 l 9 731 z "},"’":{"ha":298,"x_min":7,"x_max":292,"o":"m 292 856 q 278 785 291 824 q 240 709 264 747 q 181 638 216 671 q 104 582 147 604 q 104 598 104 583 q 102 635 103 613 q 100 682 101 657 q 98 727 98 707 q 31 779 56 743 q 7 860 7 816 q 18 915 7 889 q 48 960 29 941 q 94 991 68 979 q 149 1002 119 1002 q 204 991 178 1002 q 250 960 231 979 q 281 915 269 941 q 292 860 292 889 l 292 856 z "},"‚":{"ha":313,"x_min":14,"x_max":299,"o":"m 298 96 q 284 26 298 64 q 247 -51 271 -13 q 188 -122 222 -88 q 111 -178 154 -155 q 111 -162 111 -177 q 109 -124 110 -146 q 106 -77 108 -102 q 104 -33 105 -52 q 38 20 62 -17 q 14 100 14 56 q 25 155 14 130 q 55 200 36 181 q 100 231 75 220 q 156 243 126 243 q 211 231 185 243 q 257 200 237 220 q 288 155 276 181 q 298 100 299 130 l 298 96 z "},"„":{"ha":632,"x_min":14,"x_max":618,"o":"m 298 96 q 284 26 298 64 q 247 -51 271 -13 q 188 -122 222 -88 q 111 -178 154 -155 q 111 -162 111 -177 q 109 -124 110 -146 q 106 -77 108 -102 q 104 -33 105 -52 q 38 20 62 -17 q 14 100 14 56 q 25 155 14 130 q 55 200 36 181 q 100 231 75 220 q 156 243 126 243 q 211 231 185 243 q 257 200 237 220 q 288 155 276 181 q 298 100 299 130 l 298 96 m 617 96 q 603 26 616 64 q 566 -51 590 -13 q 507 -122 541 -88 q 430 -178 473 -155 q 429 -162 430 -177 q 428 -124 429 -146 q 425 -77 427 -102 q 423 -33 424 -52 q 357 20 381 -17 q 332 100 332 56 q 343 155 332 130 q 374 200 355 181 q 419 231 393 220 q 475 243 445 243 q 530 231 504 243 q 575 200 556 220 q 606 155 595 181 q 617 100 618 130 l 617 96 z "},"ˆ":{"ha":481,"x_min":0,"x_max":481,"o":"m 338 898 l 232 1036 l 149 905 l 0 968 q 32 1018 13 989 q 72 1076 51 1046 q 115 1136 93 1106 q 156 1192 136 1166 l 296 1194 l 481 986 l 338 898 z "},"˜":{"ha":543,"x_min":0,"x_max":543,"o":"m 543 1077 q 528 1004 543 1038 q 489 945 514 970 q 431 905 465 920 q 359 891 397 891 q 309 902 330 891 q 273 929 288 913 q 248 964 258 945 q 229 1000 237 983 q 211 1027 220 1016 q 190 1038 201 1038 q 177 1033 182 1038 q 169 1023 172 1029 q 164 1009 165 1017 q 163 996 163 1002 q 168 956 163 975 q 180 918 173 937 l 15 905 q 3 962 7 933 q 0 1019 0 991 q 11 1096 0 1060 q 43 1158 22 1132 q 96 1200 64 1185 q 170 1215 127 1215 q 231 1204 207 1215 q 272 1175 256 1192 q 297 1138 288 1158 q 314 1101 307 1118 q 328 1072 321 1084 q 346 1061 335 1061 q 367 1073 359 1061 q 374 1097 374 1085 q 366 1137 374 1118 q 349 1172 358 1156 l 517 1199 q 535 1139 528 1169 q 543 1077 543 1109 z "},"¯":{"ha":444,"x_min":0,"x_max":444,"o":"m 441 1012 l 12 1017 l 0 1179 l 444 1187 l 441 1012 z "},"˘":{"ha":403,"x_min":-1,"x_max":402,"o":"m 402 1147 q 386 1067 402 1104 q 343 1003 370 1030 q 278 961 315 976 q 199 945 241 945 q 113 960 150 945 q 50 1003 75 975 q 12 1069 25 1030 q -1 1158 -1 1109 q -1 1174 -1 1166 q 1 1190 -1 1182 l 158 1169 q 159 1144 157 1158 q 165 1118 160 1131 q 179 1097 170 1105 q 204 1088 189 1088 q 220 1093 214 1088 q 231 1106 227 1098 q 236 1123 235 1114 q 238 1141 238 1133 q 234 1178 238 1160 q 223 1214 229 1196 l 387 1244 q 398 1197 393 1221 q 402 1147 402 1172 z "},"˙":{"ha":271,"x_min":0,"x_max":271,"o":"m 271 1025 q 261 974 271 998 q 232 932 250 950 q 189 904 214 914 q 137 894 165 894 q 82 904 107 894 q 39 932 57 914 q 10 974 20 950 q 0 1025 0 998 q 10 1077 0 1053 q 38 1119 20 1101 q 81 1148 56 1137 q 133 1158 105 1158 q 188 1148 162 1158 q 232 1119 213 1137 q 261 1077 250 1101 q 271 1025 271 1053 z "},"˚":{"ha":411,"x_min":0,"x_max":411,"o":"m 411 1063 q 395 985 411 1021 q 351 921 378 948 q 286 878 323 894 q 208 863 249 863 q 126 878 164 863 q 61 921 89 894 q 16 985 33 948 q 0 1063 0 1021 q 16 1141 0 1105 q 60 1203 33 1177 q 124 1246 87 1230 q 203 1261 161 1261 q 284 1246 247 1261 q 350 1203 322 1230 q 395 1141 378 1177 q 411 1063 411 1105 m 271 1059 q 267 1088 271 1074 q 255 1113 262 1102 q 237 1129 248 1123 q 214 1135 227 1135 q 191 1129 202 1135 q 172 1113 180 1123 q 159 1088 164 1102 q 155 1059 155 1074 q 159 1029 155 1043 q 172 1004 164 1015 q 191 988 180 994 q 214 982 202 982 q 255 1004 239 982 q 271 1059 271 1027 z "},"¸":{"ha":288,"x_min":0,"x_max":288,"o":"m 288 -198 q 275 -264 288 -237 q 240 -309 262 -292 q 187 -334 218 -326 q 121 -342 157 -342 q 92 -340 108 -342 q 59 -335 75 -338 q 26 -325 42 -331 q 0 -311 11 -319 l 60 -203 q 79 -210 68 -208 q 99 -213 90 -213 q 123 -206 111 -213 q 136 -184 136 -199 q 130 -168 136 -174 q 114 -157 123 -161 q 95 -152 105 -153 q 77 -151 85 -151 q 50 -152 64 -151 q 23 -157 37 -154 l 33 38 l 149 37 l 148 -64 q 203 -75 178 -65 q 248 -101 229 -84 q 277 -143 267 -119 q 288 -198 288 -168 z "},"˝":{"ha":640,"x_min":0,"x_max":640,"o":"m 640 1128 q 495 1021 566 1076 q 354 907 425 967 l 259 990 q 287 1030 271 1008 q 322 1076 303 1052 q 361 1123 341 1099 q 401 1170 381 1147 q 496 1278 446 1222 l 640 1128 m 382 1175 q 237 1067 309 1122 q 98 952 166 1013 l 0 1036 q 28 1077 12 1055 q 63 1122 45 1099 q 102 1170 82 1146 q 142 1217 123 1194 q 239 1324 188 1269 l 382 1175 z "},"˛":{"ha":298,"x_min":0,"x_max":298,"o":"m 298 -201 q 231 -250 269 -229 q 152 -271 194 -271 q 93 -261 121 -271 q 45 -232 66 -250 q 12 -187 24 -213 q 0 -129 0 -161 q 9 -77 0 -102 q 34 -29 18 -52 q 68 13 49 -7 q 107 49 87 33 l 244 43 q 220 14 236 33 q 188 -28 204 -6 q 160 -73 172 -51 q 148 -109 148 -94 q 157 -129 148 -121 q 178 -137 165 -137 q 208 -126 191 -137 q 232 -104 224 -116 l 298 -201 z "},"ˇ":{"ha":481,"x_min":0,"x_max":481,"o":"m 481 1203 q 450 1155 469 1182 q 412 1099 432 1128 q 370 1041 391 1070 q 330 986 349 1011 l 197 967 l 0 1183 l 144 1274 l 250 1135 l 332 1268 l 481 1203 z "},"´":{"ha":397,"x_min":0,"x_max":397,"o":"m 397 1114 q 240 1024 317 1069 q 87 926 163 979 l 0 1021 q 33 1058 14 1038 q 73 1099 52 1078 q 117 1141 94 1120 q 162 1182 140 1162 q 270 1276 214 1229 l 397 1114 z "},"¨":{"ha":479,"x_min":0,"x_max":479,"o":"m 479 1067 q 471 1028 479 1046 q 450 997 463 1010 q 418 976 436 984 q 378 968 399 968 q 341 976 359 968 q 310 997 323 984 q 289 1028 296 1010 q 281 1067 281 1046 q 289 1106 281 1088 q 310 1137 296 1124 q 341 1159 323 1151 q 378 1166 359 1166 q 418 1159 399 1166 q 450 1137 436 1151 q 471 1106 463 1124 q 479 1067 479 1088 m 214 1053 q 206 1010 214 1030 q 183 976 197 991 q 149 952 168 961 q 107 944 129 944 q 65 952 85 944 q 31 976 45 961 q 8 1010 17 991 q 0 1053 0 1030 q 8 1093 0 1074 q 31 1126 17 1112 q 65 1149 45 1141 q 107 1158 85 1158 q 149 1149 129 1158 q 183 1126 168 1141 q 206 1093 197 1112 q 214 1053 214 1074 z "},"`":{"ha":393,"x_min":0,"x_max":393,"o":"m 302 926 q 153 1031 228 983 q 0 1126 79 1079 l 134 1284 q 238 1185 189 1234 q 281 1142 259 1164 q 324 1098 303 1120 q 362 1055 345 1076 q 393 1017 380 1034 l 302 926 z "},"‹":{"ha":460,"x_min":16,"x_max":445,"o":"m 336 157 l 26 366 l 16 616 l 311 830 l 419 625 l 237 500 l 445 380 l 336 157 z "},"›":{"ha":462,"x_min":16,"x_max":445,"o":"m 151 157 l 39 366 l 225 490 l 16 609 l 123 830 l 437 623 l 445 373 l 151 157 z "},"‡":{"ha":712,"x_min":43,"x_max":671,"o":"m 653 73 l 486 73 l 486 -125 l 216 -126 l 215 71 l 52 71 l 54 307 l 214 308 l 211 609 l 44 609 l 43 844 l 210 844 l 208 1025 l 485 1019 l 485 844 l 671 844 l 665 608 l 485 608 l 486 309 l 663 311 l 653 73 z "},"†":{"ha":687,"x_min":31,"x_max":659,"o":"m 184 -126 l 179 609 l 33 609 l 31 844 l 178 844 l 176 1025 l 494 1019 l 494 844 l 659 844 l 654 608 l 494 608 l 495 -125 l 184 -126 z "},"#":{"ha":842,"x_min":28,"x_max":802,"o":"m 777 518 l 655 521 l 640 412 l 758 414 l 732 231 l 613 231 l 597 113 l 374 115 l 393 231 l 327 231 l 311 142 l 113 146 l 126 231 l 28 229 l 60 411 l 157 411 l 180 532 l 79 533 l 111 709 l 212 707 l 228 811 l 420 799 l 404 704 l 475 704 l 505 868 l 704 861 l 681 699 l 802 697 l 777 518 m 376 528 l 355 411 l 425 412 l 445 526 l 376 528 z "},"(":{"ha":541,"x_min":18,"x_max":572,"o":"m 572 952 q 456 859 505 913 q 374 741 406 804 q 325 611 341 677 q 309 484 309 545 q 321 355 309 423 q 361 221 334 288 q 428 95 387 155 q 523 -14 468 34 l 280 -113 q 192 -37 231 -81 q 124 59 153 7 q 75 166 95 110 q 42 278 55 222 q 24 388 30 334 q 18 490 18 442 q 39 643 18 564 q 99 799 59 723 q 197 943 138 876 q 334 1058 256 1010 l 572 952 z "},")":{"ha":530,"x_min":-41,"x_max":513,"o":"m 513 456 q 504 354 513 406 q 477 249 494 302 q 432 145 459 197 q 370 47 406 94 q 291 -40 335 1 q 195 -113 248 -81 l -41 -7 q 74 87 25 33 q 154 205 123 142 q 201 334 186 268 q 217 461 217 400 q 204 591 217 523 q 166 725 192 659 q 101 851 140 791 q 7 960 61 912 l 248 1058 q 337 981 298 1025 q 405 885 376 937 q 455 778 434 834 q 488 666 475 722 q 507 556 501 610 q 513 456 513 503 z "},"[":{"ha":508,"x_min":43,"x_max":513,"o":"m 500 873 l 319 878 l 299 95 l 489 94 l 488 -99 q 374 -95 431 -96 q 260 -94 317 -94 q 153 -95 207 -94 q 47 -100 100 -96 q 43 233 43 66 q 49 646 43 441 q 66 1057 56 851 q 171 1061 119 1060 q 275 1062 222 1062 q 395 1060 336 1062 q 513 1053 454 1059 l 500 873 z "},"]":{"ha":507,"x_min":-5,"x_max":465,"o":"m 465 731 q 459 318 465 524 q 441 -95 452 113 q 337 -99 389 -98 q 232 -100 285 -100 q 113 -98 172 -100 q -5 -91 54 -96 l 7 91 l 187 85 l 209 869 l 16 871 l 19 1061 q 132 1057 75 1059 q 247 1055 189 1055 q 355 1057 301 1055 q 461 1062 408 1059 q 464 897 463 978 q 465 731 465 815 z "},"}":{"ha":559,"x_min":-46,"x_max":564,"o":"m 556 373 q 544 374 551 373 q 530 374 536 374 q 479 368 503 374 q 437 350 455 361 q 409 321 419 338 q 399 283 399 304 q 406 233 399 258 q 422 184 414 208 q 439 134 431 159 q 446 83 446 109 q 421 2 446 39 q 355 -63 396 -35 q 261 -105 314 -90 q 152 -121 208 -121 q 48 -108 99 -121 q -46 -75 -2 -95 l 27 107 q 65 95 45 100 q 104 91 85 91 q 167 107 145 91 q 189 153 189 123 q 181 197 189 176 q 166 240 174 219 q 151 283 158 262 q 144 328 144 305 q 184 411 144 382 q 298 438 224 439 q 231 462 261 445 q 178 501 200 479 q 145 550 157 524 q 133 605 133 577 q 141 651 133 629 q 159 695 149 673 q 176 739 168 717 q 184 785 184 762 q 170 824 184 807 q 134 852 156 840 q 85 871 112 864 q 33 882 58 878 l 132 1072 q 243 1054 189 1072 q 338 1004 296 1035 q 405 932 380 972 q 430 850 430 892 q 422 804 430 827 q 404 758 414 781 q 387 711 395 734 q 378 663 378 688 q 396 617 378 637 q 440 584 413 597 q 500 564 467 570 q 564 560 533 557 l 556 373 z "},"\\":{"ha":702,"x_min":29,"x_max":675,"o":"m 458 -53 q 338 182 394 62 q 230 422 281 301 q 128 666 178 543 q 29 911 79 789 l 300 1017 q 473 523 380 768 q 675 42 566 279 l 458 -53 z "},"/":{"ha":701,"x_min":28,"x_max":673,"o":"m 673 922 q 472 441 564 686 q 299 -53 379 197 l 28 53 q 127 298 77 176 q 228 542 176 420 q 336 782 280 663 q 456 1017 393 901 l 673 922 z "},"<":{"ha":632,"x_min":31,"x_max":600,"o":"m 489 71 l 40 339 l 31 589 l 488 878 l 584 647 l 252 473 l 600 304 l 489 71 z "},">":{"ha":632,"x_min":33,"x_max":602,"o":"m 144 71 l 46 304 l 380 477 l 33 647 l 142 878 l 591 612 l 602 361 l 144 71 z "},"•":{"ha":346,"x_min":14,"x_max":332,"o":"m 332 530 q 320 468 332 497 q 286 417 307 439 q 235 383 264 395 q 172 370 205 370 q 111 383 140 370 q 60 417 82 395 q 26 468 39 439 q 14 530 14 497 q 26 593 14 564 q 60 644 39 622 q 111 678 82 665 q 172 690 140 690 q 235 678 205 690 q 286 644 264 665 q 320 593 307 622 q 332 530 332 564 z "},".":{"ha":308,"x_min":12,"x_max":297,"o":"m 297 140 q 286 84 297 110 q 255 39 274 58 q 210 8 235 20 q 155 -3 184 -3 q 99 8 125 -3 q 54 39 73 20 q 23 84 35 58 q 12 140 12 110 q 23 195 12 169 q 54 241 35 222 q 99 272 73 260 q 155 283 125 283 q 210 272 184 283 q 255 241 235 260 q 286 195 274 222 q 297 140 297 169 z "},",":{"ha":309,"x_min":11,"x_max":296,"o":"m 296 151 q 282 80 295 119 q 244 4 269 41 q 185 -67 220 -34 q 109 -123 151 -101 q 108 -107 109 -123 q 106 -70 107 -92 q 104 -23 105 -48 q 102 22 102 2 q 35 74 60 37 q 11 155 11 111 q 22 210 11 184 q 53 255 33 235 q 98 286 72 274 q 153 297 123 297 q 209 286 182 297 q 254 255 235 274 q 285 210 273 235 q 296 155 296 184 l 296 151 z "},";":{"ha":343,"x_min":28,"x_max":314,"o":"m 313 151 q 299 80 313 119 q 262 4 286 41 q 203 -67 237 -34 q 126 -123 169 -101 q 125 -107 126 -123 q 124 -70 125 -92 q 121 -23 123 -48 q 119 22 120 2 q 53 74 77 37 q 28 155 28 111 q 40 210 28 184 q 70 255 51 235 q 115 286 90 274 q 171 297 141 297 q 226 286 200 297 q 272 255 252 274 q 302 210 291 235 q 313 155 314 184 l 313 151 m 313 574 q 302 518 313 544 q 271 473 290 492 q 226 443 252 454 q 171 431 200 431 q 115 443 141 431 q 70 473 90 454 q 40 518 51 492 q 28 574 28 544 q 40 629 28 603 q 70 675 51 656 q 115 706 90 694 q 171 718 141 718 q 226 706 200 718 q 271 675 252 694 q 302 629 290 656 q 313 574 313 603 z "},":":{"ha":345,"x_min":30,"x_max":315,"o":"m 315 140 q 303 84 315 110 q 272 39 292 58 q 227 8 253 20 q 172 -3 201 -3 q 117 8 142 -3 q 72 39 91 20 q 41 84 52 58 q 30 140 30 110 q 41 195 30 169 q 72 241 52 222 q 117 272 91 260 q 172 283 142 283 q 227 272 201 283 q 272 241 253 260 q 303 195 292 222 q 315 140 315 169 m 315 574 q 303 518 315 544 q 272 473 292 492 q 227 443 253 454 q 172 431 201 431 q 117 443 142 431 q 72 473 91 454 q 41 518 52 492 q 30 574 30 544 q 41 629 30 603 q 72 675 52 656 q 117 706 91 694 q 172 718 142 718 q 227 706 201 718 q 272 675 253 694 q 303 629 292 656 q 315 574 315 603 z "},"+":{"ha":633,"x_min":34,"x_max":597,"o":"m 208 153 l 206 331 l 37 334 l 34 537 l 203 543 l 203 703 l 414 724 l 416 552 l 594 557 l 597 326 l 419 328 l 422 151 l 208 153 z "},"×":{"ha":619,"x_min":30,"x_max":590,"o":"m 30 313 l 155 439 l 37 562 l 179 708 l 302 591 l 416 704 l 581 571 l 460 448 l 590 326 l 427 160 l 304 288 l 180 160 l 30 313 z "},"*":{"ha":753,"x_min":28,"x_max":713,"o":"m 550 624 l 679 464 l 503 321 l 375 515 l 252 311 l 75 446 l 199 597 l 28 663 l 111 860 l 254 788 l 250 990 l 475 998 l 467 780 l 612 888 l 713 688 l 550 624 z "},"^":{"ha":674,"x_min":0,"x_max":674,"o":"m 423 437 q 417 456 422 436 q 402 507 411 477 q 383 573 393 537 q 365 639 373 608 q 350 691 356 670 q 345 712 345 711 q 298 586 320 650 q 255 458 275 523 l 0 518 q 38 604 16 555 q 84 703 60 652 q 132 803 109 754 q 175 889 156 851 q 206 950 194 927 q 218 974 218 974 l 473 979 q 484 954 473 979 q 512 887 494 928 q 551 794 529 846 q 595 687 573 742 q 638 581 618 633 q 674 487 659 528 l 423 437 z "},"~":{"ha":800,"x_min":20,"x_max":784,"o":"m 735 755 q 770 659 757 709 q 784 559 784 609 q 764 454 784 505 q 710 366 745 404 q 627 304 675 327 q 522 281 578 281 q 456 295 484 281 q 408 332 428 310 q 372 380 387 354 q 344 428 357 406 q 318 464 331 450 q 289 479 305 479 q 271 473 278 479 q 260 460 264 468 q 254 442 256 452 q 252 425 252 433 q 262 367 252 396 q 282 312 272 338 l 49 282 q 28 372 37 327 q 20 461 20 416 q 37 571 20 521 q 85 657 54 621 q 164 712 117 692 q 270 732 210 732 q 347 719 315 732 q 399 686 378 706 q 434 644 420 667 q 457 601 447 621 q 478 568 468 581 q 502 555 488 555 q 520 559 512 555 q 533 571 528 564 q 541 587 538 578 q 544 604 544 595 q 529 658 544 631 q 500 707 515 685 l 735 755 z "},"|":{"ha":399,"x_min":47,"x_max":351,"o":"m 50 -98 l 47 1053 l 351 1046 l 351 -98 l 50 -98 z "},"_":{"ha":419,"x_min":-11,"x_max":430,"o":"m -8 -288 l -11 -84 l 427 -64 l 430 -296 l -8 -288 z "},"=":{"ha":543,"x_min":50,"x_max":490,"o":"m 52 198 l 50 401 l 488 401 l 490 170 l 52 198 m 52 469 l 50 673 l 488 693 l 490 461 l 52 469 z "},"°":{"ha":430,"x_min":9,"x_max":420,"o":"m 420 769 q 404 690 420 727 q 360 627 388 654 q 296 584 333 600 q 217 568 258 568 q 136 584 174 568 q 70 627 98 600 q 26 690 42 654 q 9 769 9 727 q 26 846 9 810 q 70 909 42 882 q 134 951 97 936 q 213 967 171 967 q 294 951 256 967 q 360 909 332 936 q 404 846 388 882 q 420 769 420 810 m 281 765 q 276 794 281 780 q 264 818 272 808 q 247 835 257 829 q 224 841 236 841 q 201 835 212 841 q 182 818 190 829 q 169 794 174 808 q 164 765 164 780 q 169 734 164 749 q 182 710 174 720 q 201 694 190 700 q 224 688 212 688 q 264 710 248 688 q 281 765 281 732 z "},"·":{"ha":313,"x_min":15,"x_max":300,"o":"m 300 472 q 288 416 300 442 q 257 371 277 391 q 212 341 238 352 q 157 330 186 330 q 102 341 127 330 q 57 371 76 352 q 26 416 37 391 q 15 472 15 442 q 26 528 15 501 q 57 573 37 554 q 102 604 76 593 q 157 616 127 616 q 212 604 186 616 q 257 573 238 593 q 288 528 277 554 q 300 472 300 501 z "},"÷":{"ha":627,"x_min":31,"x_max":594,"o":"m 34 334 l 31 537 l 591 557 l 594 326 l 34 334 m 430 167 q 420 118 430 141 q 393 79 410 96 q 353 52 376 62 q 305 42 330 42 q 257 52 279 42 q 217 79 234 62 q 190 118 200 96 q 180 167 180 141 q 190 216 180 193 q 217 256 200 239 q 257 283 234 273 q 305 293 279 293 q 353 283 330 293 q 393 256 376 273 q 420 216 410 239 q 430 167 430 193 m 433 708 q 423 660 433 682 q 396 620 413 637 q 356 593 378 603 q 308 583 333 583 q 259 593 282 583 q 220 620 237 603 q 193 660 203 637 q 183 708 183 682 q 193 757 183 734 q 220 797 203 780 q 259 824 237 814 q 308 834 282 834 q 356 824 333 834 q 396 797 378 814 q 423 757 413 780 q 433 708 433 734 z "},"¬":{"ha":743,"x_min":39,"x_max":691,"o":"m 427 202 l 421 410 l 47 401 l 39 658 l 682 669 l 691 218 l 427 202 z "},"±":{"ha":652,"x_min":41,"x_max":604,"o":"m 215 153 l 214 331 l 44 334 l 41 537 l 211 543 l 211 703 l 421 724 l 424 552 l 602 557 l 604 326 l 427 328 l 429 151 l 215 153 m 44 -137 l 41 66 l 602 87 l 604 -145 l 44 -137 z "},"Ø":{"ha":884,"x_min":11,"x_max":872,"o":"m 779 895 l 738 807 q 837 667 802 749 q 872 479 872 584 q 858 360 872 417 q 817 252 844 302 q 752 160 790 202 q 666 89 713 119 q 562 42 618 59 q 442 26 505 26 l 404 -80 l 133 26 l 171 121 q 104 188 134 150 q 54 269 75 225 q 22 360 33 312 q 11 461 11 409 q 25 577 11 520 q 66 684 39 633 q 131 776 93 734 q 216 848 169 818 q 318 896 263 879 q 434 913 373 913 q 478 911 456 913 q 519 906 499 909 l 562 990 l 779 895 m 305 468 q 309 425 305 446 q 323 384 313 404 l 423 613 q 374 597 395 610 q 337 565 352 584 q 313 520 321 545 q 305 468 305 495 m 571 461 q 568 494 571 477 q 559 526 565 511 l 460 311 q 506 330 486 315 q 541 364 527 344 q 563 409 555 385 q 571 461 571 434 z "},"ø":{"ha":883,"x_min":11,"x_max":872,"o":"m 772 933 q 753 892 762 913 q 734 850 743 872 q 836 709 800 793 q 872 519 872 626 q 858 400 872 458 q 817 293 844 343 q 752 201 790 243 q 666 130 713 159 q 562 83 618 100 q 442 66 505 66 l 437 66 l 397 -42 l 126 64 l 165 164 q 101 231 130 194 q 53 312 73 269 q 22 402 33 355 q 11 502 11 450 q 25 617 11 561 q 66 724 39 674 q 131 817 93 774 q 216 889 169 859 q 318 937 263 920 q 434 954 373 954 q 474 952 454 954 q 514 948 494 950 l 555 1028 l 772 933 m 571 502 q 556 574 571 540 l 454 350 q 503 368 481 354 q 540 402 525 382 q 563 449 555 423 q 571 502 571 474 m 305 509 q 309 469 305 489 q 320 431 313 450 l 416 652 q 370 635 391 648 q 335 603 349 623 q 313 560 321 584 q 305 509 305 536 z "},"≈":{"ha":835,"x_min":40,"x_max":794,"o":"m 794 315 q 755 234 779 273 q 699 167 732 196 q 624 121 666 138 q 532 104 583 104 q 476 112 501 104 q 431 131 452 120 q 394 156 411 142 q 361 181 376 170 q 330 200 345 192 q 299 208 315 208 q 275 205 288 208 q 249 195 262 203 q 221 170 235 186 q 195 123 208 153 l 40 315 q 79 367 58 340 q 129 414 100 393 q 194 448 157 435 q 280 461 231 461 q 363 448 328 461 q 424 420 397 435 q 470 391 450 404 q 512 378 491 378 q 537 381 522 378 q 569 391 553 383 q 598 412 585 398 q 619 448 612 425 l 794 315 m 794 666 q 755 586 779 624 q 699 518 732 547 q 624 473 666 490 q 532 456 583 456 q 476 464 501 456 q 431 483 452 471 q 394 507 411 494 q 361 532 376 521 q 330 551 345 543 q 299 559 315 559 q 275 557 288 559 q 249 546 262 555 q 221 521 235 538 q 195 475 208 504 l 40 666 q 79 718 58 692 q 129 765 100 744 q 194 799 157 786 q 280 812 231 812 q 363 800 328 812 q 424 771 397 787 q 470 743 450 755 q 512 730 491 730 q 537 732 522 730 q 569 742 553 734 q 598 763 585 749 q 619 799 612 777 l 794 666 z "},"{":{"ha":570,"x_min":-4,"x_max":605,"o":"m 532 844 q 456 859 496 859 q 393 843 414 859 q 373 798 373 827 q 379 753 373 774 q 393 710 386 731 q 407 667 401 688 q 414 623 414 645 q 374 539 414 566 q 262 511 334 511 q 328 487 298 504 q 379 447 358 470 q 413 397 401 425 q 425 343 425 370 q 417 298 425 320 q 399 254 409 276 q 382 211 390 233 q 374 165 374 189 q 389 126 374 144 q 425 97 403 109 q 474 78 447 85 q 526 68 500 71 l 426 -121 q 315 -103 369 -122 q 219 -54 261 -85 q 153 18 178 -22 q 127 100 127 58 q 136 147 127 124 q 154 193 144 170 q 172 239 164 216 q 180 286 180 262 q 163 332 180 311 q 120 366 146 353 q 60 386 93 380 q -4 389 27 392 l 3 576 q 16 575 10 575 q 28 575 21 575 q 80 582 56 575 q 123 600 104 588 q 152 629 141 612 q 163 667 163 646 q 155 717 163 692 q 137 766 146 742 q 119 815 127 791 q 111 865 111 840 q 136 947 111 909 q 203 1012 161 985 q 298 1056 244 1040 q 408 1072 351 1072 q 511 1058 461 1072 q 605 1024 561 1044 l 532 844 z "},"$":{"ha":606,"x_min":41,"x_max":578,"o":"m 199 -94 l 205 174 q 161 183 184 178 q 118 196 139 189 q 77 209 96 202 q 41 222 57 216 l 64 389 q 160 357 107 368 q 265 346 213 346 q 289 347 275 346 q 315 350 302 347 q 337 360 328 353 q 347 378 347 367 q 333 397 347 391 q 302 407 320 404 q 266 410 284 410 q 238 411 248 411 q 158 422 194 411 q 96 455 122 434 q 56 507 70 477 q 41 574 41 536 q 53 638 41 608 q 86 692 65 668 q 137 735 108 717 q 201 766 167 754 l 191 1053 l 264 1046 l 264 783 q 282 786 273 785 q 300 788 291 787 l 299 1053 l 372 1051 l 363 788 q 453 780 408 787 q 536 757 498 772 l 519 585 q 445 601 483 594 q 372 608 407 608 q 343 607 361 608 q 308 603 326 606 q 278 593 291 600 q 267 574 266 586 q 275 558 267 564 q 296 551 283 553 q 324 549 309 549 q 354 549 340 549 q 382 551 369 550 q 402 551 395 551 q 475 536 443 549 q 531 504 508 524 q 566 454 554 483 q 578 392 578 426 q 563 308 578 345 q 518 244 547 271 q 450 200 490 218 q 363 175 410 183 l 374 -92 l 307 -99 l 304 168 q 286 167 295 167 q 267 167 276 167 l 264 167 l 265 -98 l 199 -94 z "},"¢":{"ha":586,"x_min":28,"x_max":547,"o":"m 264 -99 l 271 170 q 170 208 215 181 q 94 271 125 234 q 45 352 62 307 q 28 448 28 397 q 43 554 28 504 q 90 646 59 605 q 165 716 120 686 q 268 762 210 747 l 256 1053 l 342 1046 l 333 774 q 394 779 361 779 q 465 774 429 779 q 535 757 501 770 l 516 576 q 488 581 502 580 q 458 582 473 582 q 389 574 422 582 q 331 550 357 566 q 291 510 306 534 q 276 453 276 486 q 308 383 276 406 q 395 359 339 359 q 474 371 433 359 q 547 399 515 383 l 539 198 q 496 183 519 190 q 448 172 473 176 q 399 164 424 167 q 352 161 374 161 l 333 161 l 344 -98 l 264 -99 z "},"€":{"ha":711,"x_min":28,"x_max":657,"o":"m 469 392 l 410 388 q 505 359 441 359 q 584 371 543 359 q 657 399 625 383 l 649 198 q 606 183 629 190 q 558 172 583 176 q 509 164 534 167 q 462 161 484 161 q 350 177 401 161 q 258 221 299 193 q 190 288 218 250 q 149 372 161 326 l 28 363 l 54 454 l 138 453 q 138 467 138 460 q 139 480 138 473 l 60 480 l 82 567 l 155 562 q 202 650 172 610 q 276 718 233 690 q 377 763 320 747 q 504 779 434 779 q 575 774 538 779 q 645 757 611 770 l 626 576 q 597 581 612 580 q 568 582 583 582 q 491 572 528 582 q 429 543 455 562 l 469 540 l 469 483 l 389 481 q 387 468 387 475 q 386 453 386 460 l 386 449 l 469 449 l 469 392 z "},"…":{"ha":1067,"x_min":12,"x_max":1057,"o":"m 297 140 q 286 84 297 110 q 255 39 274 58 q 210 8 235 20 q 155 -3 184 -3 q 99 8 125 -3 q 54 39 73 20 q 23 84 35 58 q 12 140 12 110 q 23 195 12 169 q 54 241 35 222 q 99 272 73 260 q 155 283 125 283 q 210 272 184 283 q 255 241 235 260 q 286 195 274 222 q 297 140 297 169 m 677 140 q 665 84 677 110 q 634 39 654 58 q 589 8 615 20 q 534 -3 564 -3 q 479 8 505 -3 q 434 39 453 20 q 403 84 414 58 q 392 140 392 110 q 403 195 392 169 q 434 241 414 222 q 479 272 453 260 q 534 283 505 283 q 589 272 564 283 q 634 241 615 260 q 665 195 654 222 q 677 140 677 169 m 1057 140 q 1045 84 1057 110 q 1014 39 1034 58 q 969 8 995 20 q 914 -3 943 -3 q 859 8 884 -3 q 813 39 833 20 q 783 84 794 58 q 772 140 772 110 q 783 195 772 169 q 813 241 794 222 q 859 272 833 260 q 914 283 884 283 q 969 272 943 283 q 1014 241 995 260 q 1045 195 1034 222 q 1057 140 1057 169 z "},"≠":{"ha":532,"x_min":45,"x_max":486,"o":"m 340 464 l 321 401 l 484 401 l 486 170 l 253 184 l 223 84 l 87 122 l 115 194 l 48 198 l 45 401 l 199 401 l 224 465 l 48 469 l 45 673 l 313 685 l 368 817 l 436 772 q 427 742 433 764 q 410 689 420 720 l 484 693 l 486 461 l 340 464 z "},"Æ":{"ha":1166,"x_min":-34,"x_max":1177,"o":"m 556 376 l 563 612 l 454 376 l 556 376 m 1177 978 q 1170 852 1173 914 q 1161 726 1166 789 l 873 711 l 867 625 l 1069 625 l 1054 415 l 850 408 l 844 309 l 1131 309 q 1123 161 1127 235 q 1115 14 1118 87 l 530 0 l 536 168 l 370 168 l 302 15 l -34 49 l 460 952 l 1177 978 z "},"æ":{"ha":1275,"x_min":-22,"x_max":1265,"o":"m 1265 548 q 1257 430 1265 489 q 1027 406 1141 422 q 799 373 913 389 l 803 358 q 858 291 821 315 q 943 266 895 266 q 1002 276 970 266 q 1066 301 1034 286 q 1127 334 1098 317 q 1177 366 1156 352 l 1145 58 q 1087 24 1118 38 q 1023 1 1057 9 q 956 -12 990 -8 q 890 -16 922 -16 q 757 0 819 -16 q 646 42 694 16 q 564 101 597 68 q 522 168 532 134 l 361 168 l 324 15 l -22 49 l 248 952 l 625 971 l 651 883 q 766 956 701 929 q 914 982 831 982 q 1024 965 975 982 q 1113 919 1074 949 q 1181 849 1152 890 q 1229 760 1210 808 q 1256 657 1247 711 q 1265 548 1265 604 m 994 583 q 990 622 994 602 q 977 659 986 642 q 953 685 968 675 q 916 696 938 696 q 868 681 888 696 q 832 645 847 667 q 808 597 817 623 q 793 549 798 571 l 994 568 l 994 583 m 488 376 l 437 612 l 387 376 l 488 376 z "},"Œ":{"ha":1200,"x_min":9,"x_max":1211,"o":"m 1211 978 q 1204 852 1207 914 q 1195 726 1200 789 l 907 711 l 901 625 l 1103 625 l 1088 415 l 884 408 l 878 309 l 1165 309 q 1157 161 1161 235 q 1149 14 1152 87 l 564 0 l 564 43 q 505 31 536 35 q 441 26 473 26 q 325 41 380 26 q 221 85 269 57 q 134 153 173 113 q 67 241 95 193 q 24 345 39 290 q 9 461 9 401 q 24 577 9 520 q 65 684 38 633 q 130 776 92 734 q 215 848 168 818 q 317 896 262 879 q 433 913 372 913 q 511 907 473 913 q 583 891 549 901 l 586 978 l 1211 978 m 570 461 q 561 518 570 490 q 536 567 553 545 q 496 601 520 588 q 441 614 472 614 q 384 603 409 614 q 341 571 359 591 q 313 525 323 551 q 304 468 304 498 q 312 411 304 439 q 336 359 320 382 q 377 322 353 336 q 433 308 401 308 q 490 320 465 308 q 533 354 515 333 q 560 404 551 376 q 570 461 570 431 z "},"œ":{"ha":1362,"x_min":10,"x_max":1353,"o":"m 1353 548 q 1345 430 1353 489 q 1114 406 1229 422 q 885 373 1000 389 q 940 295 903 324 q 1030 266 978 266 q 1089 276 1057 266 q 1154 301 1122 286 q 1215 334 1185 317 q 1265 366 1244 352 l 1232 58 q 1175 24 1206 38 q 1111 1 1144 9 q 1044 -12 1078 -8 q 977 -16 1010 -16 q 882 -5 926 -16 q 799 25 838 5 q 729 73 761 45 q 672 134 697 100 q 565 84 623 102 q 441 66 507 66 q 325 82 380 66 q 222 126 270 98 q 135 194 174 154 q 68 282 96 233 q 25 386 40 330 q 10 502 10 441 q 24 617 10 561 q 65 724 39 674 q 130 817 92 774 q 215 889 168 859 q 317 937 262 920 q 433 954 372 954 q 591 930 519 954 q 718 864 663 907 q 841 950 770 918 q 1002 982 911 982 q 1112 965 1062 982 q 1201 919 1162 949 q 1269 849 1240 890 q 1316 760 1297 808 q 1344 657 1335 711 q 1353 548 1353 604 m 570 502 q 562 558 570 531 q 537 607 553 586 q 497 642 521 629 q 441 655 473 655 q 385 644 410 655 q 341 612 359 632 q 314 565 323 592 q 304 509 304 538 q 313 452 304 480 q 337 400 321 423 q 377 363 353 377 q 433 349 401 349 q 491 361 465 349 q 534 395 516 374 q 561 444 551 416 q 570 502 570 472 m 1082 583 q 1078 622 1082 602 q 1064 659 1074 642 q 1040 685 1055 675 q 1003 696 1025 696 q 955 681 976 696 q 920 645 935 667 q 895 597 905 623 q 881 549 886 571 l 1082 568 l 1082 583 z "},"ª":{"ha":620,"x_min":-5,"x_max":623,"o":"m 623 374 l 391 349 l 365 448 l 256 448 l 233 349 l -5 369 l 180 910 l 441 922 l 623 374 m 347 564 l 311 707 l 277 564 l 347 564 z "},"º":{"ha":612,"x_min":8,"x_max":602,"o":"m 602 651 q 580 546 602 595 q 519 459 558 496 q 425 400 479 422 q 307 378 371 378 q 188 399 243 378 q 94 455 134 419 q 31 538 54 490 q 8 640 8 586 q 30 743 8 694 q 91 829 52 791 q 183 889 130 867 q 300 911 237 911 q 424 893 368 911 q 520 841 480 875 q 581 759 559 807 q 602 651 602 711 m 395 640 q 389 674 395 657 q 372 704 383 690 q 344 725 361 717 q 307 732 328 732 q 267 725 285 732 q 236 706 249 718 q 217 678 224 694 q 210 644 210 662 q 216 610 210 627 q 233 579 222 593 q 261 556 244 565 q 300 548 278 548 q 340 556 322 548 q 370 576 357 564 q 388 606 382 589 q 395 640 395 623 z "},"¥":{"ha":710,"x_min":30,"x_max":682,"o":"m 453 313 l 457 184 l 205 184 l 208 317 l 114 320 l 115 374 l 209 373 l 210 412 l 114 415 l 111 456 l 183 458 l 30 715 l 281 741 l 359 566 l 445 741 l 682 727 l 494 473 l 549 476 l 552 407 l 450 408 l 452 372 l 549 372 l 552 312 l 453 313 z "},"£":{"ha":587,"x_min":28,"x_max":541,"o":"m 463 506 l 466 446 l 348 448 l 341 392 l 541 392 l 522 212 l 106 184 l 115 453 l 28 454 l 29 509 l 116 507 q 136 602 121 555 q 183 686 152 648 q 262 747 214 724 q 380 770 311 770 q 451 766 415 770 q 522 749 488 762 l 503 568 q 474 573 488 572 q 444 574 460 575 q 416 568 431 573 q 388 554 401 563 q 365 532 374 545 q 352 505 355 519 l 463 506 z "},"Þ":{"ha":831,"x_min":39,"x_max":827,"o":"m 39 970 l 395 993 l 387 818 l 399 818 q 503 809 451 818 q 603 783 555 801 q 692 737 651 764 q 763 671 733 709 q 810 585 793 633 q 827 476 827 536 q 808 359 827 410 q 754 270 788 309 q 673 206 720 232 q 575 163 627 180 q 466 139 522 146 q 355 130 410 132 l 355 -9 l 39 -9 l 39 970 m 526 453 q 499 522 526 497 q 430 547 473 547 q 400 544 416 547 q 372 538 385 542 l 363 340 q 382 339 373 339 q 400 339 391 339 q 447 347 425 339 q 488 371 470 355 q 516 407 505 386 q 526 453 526 427 z "},"þ":{"ha":831,"x_min":39,"x_max":827,"o":"m 39 970 l 395 993 l 387 818 l 399 818 q 503 809 451 818 q 603 783 555 801 q 692 737 651 764 q 763 671 733 709 q 810 585 793 633 q 827 476 827 536 q 808 359 827 410 q 754 270 788 309 q 673 206 720 232 q 575 163 627 180 q 466 139 522 146 q 355 130 410 132 l 355 -9 l 39 -9 l 39 970 m 526 453 q 499 522 526 497 q 430 547 473 547 q 400 544 416 547 q 372 538 385 542 l 363 340 q 382 339 373 339 q 400 339 391 339 q 447 347 425 339 q 488 371 470 355 q 516 407 505 386 q 526 453 526 427 z "},"Ð":{"ha":856,"x_min":-20,"x_max":850,"o":"m 86 526 l 96 922 q 249 956 170 946 q 406 966 328 966 q 585 937 503 966 q 725 852 666 907 q 817 718 784 798 q 850 538 850 639 q 825 367 850 444 q 757 232 801 291 q 653 130 713 172 q 521 59 593 87 q 368 19 449 32 q 201 5 286 5 q 139 7 170 5 q 77 12 109 9 l 85 410 l -17 406 l -20 529 l 86 526 m 572 495 q 564 566 572 532 q 536 626 555 600 q 487 668 517 652 q 416 685 457 684 l 405 522 l 473 521 l 475 426 l 401 422 l 389 264 q 463 291 429 271 q 520 342 496 312 q 557 409 544 372 q 572 486 570 446 l 572 495 z "},"ð":{"ha":856,"x_min":-20,"x_max":850,"o":"m 86 526 l 96 922 q 249 956 170 946 q 406 966 328 966 q 585 937 503 966 q 725 852 666 907 q 817 718 784 798 q 850 538 850 639 q 825 367 850 444 q 757 232 801 291 q 653 130 713 172 q 521 59 593 87 q 368 19 449 32 q 201 5 286 5 q 139 7 170 5 q 77 12 109 9 l 85 410 l -17 406 l -20 529 l 86 526 m 572 495 q 564 566 572 532 q 536 626 555 600 q 487 668 517 652 q 416 685 457 684 l 405 522 l 473 521 l 475 426 l 401 422 l 389 264 q 463 291 429 271 q 520 342 496 312 q 557 409 544 372 q 572 486 570 446 l 572 495 z "},"Ł":{"ha":632,"x_min":-18,"x_max":635,"o":"m 366 517 q 362 452 364 484 q 359 387 361 419 q 422 385 391 385 q 486 385 454 385 q 560 386 524 385 q 635 387 597 387 l 606 85 l 35 41 q 38 230 37 136 q 42 419 40 324 l -15 401 l -18 495 l 45 517 q 50 749 47 633 q 57 982 53 865 l 410 982 q 392 810 400 896 q 376 637 383 724 l 461 669 l 464 547 l 366 517 z "},"ł":{"ha":632,"x_min":-19,"x_max":633,"o":"m 633 359 l 605 58 l 34 14 l 42 419 l -16 401 l -19 495 l 45 518 l 56 982 l 408 982 l 380 640 l 460 669 l 463 547 l 370 518 l 358 359 l 633 359 z "},"¶":{"ha":1163,"x_min":28,"x_max":1112,"o":"m 1077 14 l 783 12 l 783 629 l 732 632 q 734 318 734 473 q 735 4 734 163 l 419 -1 l 419 273 q 314 270 364 268 q 221 282 264 271 q 142 315 178 293 q 81 371 106 336 q 42 454 56 405 q 28 568 28 503 q 59 730 28 659 q 143 852 89 802 q 270 929 197 903 q 430 956 343 956 q 720 950 593 956 q 934 938 846 945 q 1112 920 1036 930 l 1077 14 z "},"µ":{"ha":1039,"x_min":30,"x_max":1008,"o":"m 30 -236 l 99 426 q 114 551 104 486 q 137 682 123 616 q 168 810 150 747 q 208 932 185 873 q 373 921 290 926 q 538 914 456 916 q 495 797 517 856 q 454 680 473 739 q 420 561 435 621 q 397 439 405 500 q 394 401 396 427 q 395 349 392 375 q 408 302 398 322 q 439 282 418 283 q 488 303 465 281 q 531 360 511 324 q 568 445 551 397 q 598 546 585 493 q 624 652 612 598 q 643 752 635 705 q 656 838 650 800 q 663 897 661 876 q 667 948 667 921 q 750 945 707 947 q 838 942 793 943 q 925 940 882 941 q 1008 941 968 940 q 899 471 949 707 q 803 1 850 235 l 494 -11 l 521 91 q 485 65 505 75 q 444 48 465 54 q 401 39 422 41 q 359 37 379 36 l 357 37 l 326 -243 l 30 -236 z "},"∂":{"ha":838,"x_min":28,"x_max":791,"o":"m 28 346 q 51 458 28 408 q 112 542 73 507 q 204 595 151 576 q 317 613 256 613 q 420 598 370 613 q 516 557 471 583 q 508 629 515 595 q 487 693 500 663 q 459 749 475 723 q 427 798 443 776 q 340 891 388 850 l 588 1019 q 628 963 606 993 q 672 898 650 934 q 716 817 694 861 q 754 719 738 773 q 781 598 771 664 q 791 452 791 532 q 782 334 791 392 q 752 223 772 275 q 702 126 732 171 q 629 49 671 81 q 532 -2 587 16 q 412 -20 478 -20 q 259 6 329 -20 q 137 80 189 33 q 57 196 86 128 q 28 346 28 263 m 286 326 q 295 289 286 305 q 318 260 304 272 q 352 242 333 249 q 390 236 370 236 q 427 242 409 236 q 460 260 446 249 q 484 289 475 272 q 493 326 493 305 q 484 363 493 347 q 460 392 475 380 q 427 410 446 404 q 390 416 409 416 q 352 410 370 416 q 318 392 333 404 q 295 363 304 380 q 286 326 286 347 z "},"¡":{"ha":387,"x_min":20,"x_max":353,"o":"m 20 -293 l 76 420 l 327 420 l 353 -293 l 20 -293 m 65 629 q 77 685 65 659 q 107 730 88 711 q 153 761 127 749 q 208 772 178 772 q 263 761 237 772 q 308 730 289 749 q 339 685 328 711 q 350 629 350 659 q 339 573 350 600 q 308 528 328 547 q 263 497 289 509 q 208 486 237 486 q 153 497 178 486 q 107 528 127 509 q 77 573 88 547 q 65 629 65 600 z "},"ı":{"ha":409,"x_min":28,"x_max":389,"o":"m 389 955 l 341 31 l 55 16 l 28 936 l 389 955 z "},"§":{"ha":793,"x_min":43,"x_max":754,"o":"m 754 239 q 722 78 754 146 q 634 -33 690 11 q 503 -97 578 -77 q 342 -118 428 -118 q 269 -109 309 -118 q 189 -87 229 -100 q 110 -59 148 -74 q 43 -30 73 -43 l 73 236 q 201 183 131 201 q 339 165 271 165 q 370 166 352 165 q 405 173 389 168 q 433 188 422 178 q 445 217 445 198 q 437 239 445 230 q 416 254 429 248 q 387 263 403 260 q 355 267 370 266 q 326 269 339 269 q 304 269 312 269 q 198 287 245 269 q 116 339 150 305 q 62 420 81 372 q 43 526 43 468 q 46 576 43 552 q 57 623 50 600 q 46 667 50 644 q 43 716 43 690 q 76 860 43 796 q 162 967 108 923 q 286 1036 216 1012 q 430 1059 355 1059 q 498 1057 463 1059 q 569 1048 534 1055 q 637 1033 604 1042 q 700 1009 670 1023 l 674 734 q 577 760 628 749 q 479 770 527 770 q 456 770 470 770 q 427 768 442 770 q 396 763 412 766 q 368 754 380 760 q 349 739 356 748 q 342 716 341 729 q 353 693 342 701 q 380 681 363 685 q 417 677 397 677 q 456 679 437 677 q 493 681 476 680 q 521 681 511 682 q 618 658 575 677 q 692 606 662 638 q 738 528 722 573 q 754 429 754 483 q 751 375 754 400 q 742 326 747 349 q 754 239 754 287 m 331 477 q 348 446 329 460 q 396 427 366 431 q 424 427 410 425 q 447 432 437 428 q 464 443 458 436 q 472 458 471 450 q 469 475 473 467 q 456 490 465 483 q 434 502 447 496 q 407 509 422 507 q 356 504 377 513 q 331 477 334 495 z "},"ß":{"ha":1449,"x_min":19,"x_max":1440,"o":"m 730 347 q 697 187 730 254 q 609 76 665 119 q 478 11 553 32 q 317 -9 404 -9 q 244 -1 284 -9 q 164 21 205 8 q 86 50 123 35 q 19 79 48 65 l 49 345 q 177 292 106 310 q 315 274 247 274 q 346 275 328 274 q 381 281 364 276 q 409 296 397 286 q 420 326 420 307 q 412 348 420 338 q 391 362 404 357 q 362 371 378 368 q 330 376 346 374 q 301 377 315 377 q 279 377 288 377 q 173 395 221 377 q 91 447 125 414 q 38 529 57 481 q 19 635 19 576 q 51 778 19 715 q 137 886 83 842 q 261 954 191 930 q 406 978 331 978 q 474 976 439 978 q 544 967 509 973 q 612 951 579 961 q 675 928 646 942 l 650 652 q 553 679 604 668 q 454 689 503 689 q 432 689 446 689 q 402 687 418 688 q 372 682 387 685 q 344 672 356 678 q 324 657 332 667 q 317 635 317 648 q 329 612 318 620 q 356 600 339 604 q 392 596 372 596 q 432 597 412 596 q 469 599 452 598 q 496 600 486 600 q 594 576 551 596 q 668 524 637 557 q 714 447 698 492 q 730 347 730 401 m 1440 347 q 1408 187 1440 254 q 1320 76 1376 119 q 1189 11 1264 32 q 1028 -9 1114 -9 q 955 -1 995 -9 q 875 21 916 8 q 797 50 834 35 q 730 79 759 65 l 760 345 q 887 292 817 310 q 1025 274 958 274 q 1057 275 1038 274 q 1092 281 1075 276 q 1120 296 1108 286 q 1131 326 1131 307 q 1123 348 1131 338 q 1102 362 1115 357 q 1073 371 1089 368 q 1041 376 1057 374 q 1012 377 1025 377 q 990 377 998 377 q 884 395 932 377 q 802 447 836 414 q 749 529 768 481 q 730 635 730 576 q 762 778 730 715 q 848 886 794 842 q 972 954 902 930 q 1116 978 1042 978 q 1185 976 1149 978 q 1255 967 1220 973 q 1323 951 1290 961 q 1386 928 1356 942 l 1360 652 q 1264 679 1314 668 q 1165 689 1213 689 q 1142 689 1156 689 q 1113 687 1128 688 q 1082 682 1098 685 q 1055 672 1067 678 q 1035 657 1042 667 q 1028 635 1027 648 q 1039 612 1029 620 q 1066 600 1050 604 q 1103 596 1083 596 q 1143 597 1123 596 q 1179 599 1162 598 q 1207 600 1196 600 q 1305 576 1261 596 q 1378 524 1348 557 q 1424 447 1409 492 q 1440 347 1440 401 z "},"®":{"ha":791,"x_min":41,"x_max":750,"o":"m 750 500 q 724 357 750 425 q 651 238 698 289 q 539 157 604 187 q 396 127 474 127 q 256 156 321 127 q 143 232 191 184 q 68 346 95 281 q 41 486 41 411 q 67 626 41 559 q 139 745 93 694 q 250 828 186 797 q 389 859 313 859 q 536 833 470 859 q 650 762 603 808 q 724 649 698 715 q 750 500 750 583 m 671 499 q 651 614 671 563 q 594 703 631 666 q 505 759 557 739 q 389 779 453 779 q 281 754 331 779 q 195 690 231 730 q 138 598 159 650 q 118 488 118 545 q 144 366 118 422 q 217 273 171 311 q 220 408 218 340 q 224 544 222 475 q 228 699 224 621 q 320 722 275 716 q 416 727 366 727 q 491 716 455 727 q 555 685 528 706 q 600 631 583 663 q 617 557 617 600 q 598 470 617 505 q 534 407 579 435 l 595 297 q 651 389 631 337 q 671 499 671 441 m 274 236 q 396 209 330 209 q 471 219 436 209 q 537 247 507 229 l 463 233 l 411 378 l 369 377 l 362 236 l 274 236 m 465 547 q 450 593 465 575 q 404 612 435 612 q 378 608 391 612 l 373 481 l 381 481 q 411 485 396 481 q 438 497 426 489 q 458 517 450 505 q 465 547 465 529 z "},"©":{"ha":798,"x_min":40,"x_max":756,"o":"m 756 477 q 730 332 756 401 q 656 212 703 264 q 543 131 608 161 q 398 100 477 100 q 257 129 322 100 q 143 206 191 157 q 67 321 95 255 q 40 463 40 387 q 52 558 40 511 q 86 647 64 606 q 140 724 109 689 q 211 784 172 759 q 295 824 250 810 q 391 838 341 838 q 541 813 473 838 q 656 740 608 787 q 730 626 704 693 q 756 477 756 559 m 677 476 q 657 592 677 540 q 600 681 637 644 q 510 738 562 718 q 393 758 457 758 q 283 734 334 758 q 197 669 233 710 q 139 576 160 629 q 119 465 119 523 q 140 355 119 406 q 199 265 161 303 q 288 205 237 227 q 398 183 339 183 q 511 207 460 183 q 599 270 562 230 q 657 363 636 310 q 677 476 677 416 m 516 551 q 478 555 498 555 q 432 549 454 555 q 393 530 410 543 q 366 499 376 518 q 356 453 356 479 q 378 397 356 415 q 436 378 399 378 q 488 388 460 378 q 536 410 515 397 l 531 251 q 471 229 505 237 q 408 221 437 221 q 320 239 359 221 q 253 288 281 257 q 209 360 224 319 q 193 448 193 401 q 209 551 193 503 q 256 635 225 600 q 331 691 286 671 q 435 711 376 711 q 483 707 458 711 q 528 693 507 703 l 516 551 z "},"™":{"ha":918,"x_min":15,"x_max":908,"o":"m 381 930 l 378 789 l 279 785 l 254 469 l 113 463 l 114 777 l 15 772 l 19 929 l 381 930 m 908 939 l 878 451 l 726 444 l 728 702 l 659 494 l 601 494 l 549 680 l 547 465 l 394 460 l 401 919 l 572 926 l 639 705 l 730 939 l 908 939 z "},"«":{"ha":922,"x_min":16,"x_max":906,"o":"m 336 157 l 26 366 l 16 616 l 311 830 l 419 625 l 237 500 l 445 380 l 336 157 m 798 157 l 487 366 l 477 616 l 772 830 l 880 625 l 699 500 l 906 380 l 798 157 z "},"»":{"ha":926,"x_min":16,"x_max":909,"o":"m 151 157 l 39 366 l 225 490 l 16 609 l 123 830 l 437 623 l 445 373 l 151 157 m 614 157 l 503 366 l 689 490 l 480 609 l 587 830 l 901 623 l 909 373 l 614 157 z "},"¿":{"ha":781,"x_min":41,"x_max":754,"o":"m 343 444 l 572 444 q 564 323 576 371 q 529 242 551 275 q 480 190 507 210 q 426 156 452 170 q 380 127 400 141 q 353 94 359 113 q 350 65 348 81 q 364 35 352 50 q 399 11 376 21 q 460 1 422 1 q 518 6 484 1 q 588 19 551 10 q 660 41 625 28 q 724 72 696 54 l 754 -194 q 697 -225 729 -210 q 628 -253 666 -241 q 545 -274 590 -266 q 449 -282 500 -282 q 291 -259 366 -282 q 161 -191 217 -236 q 73 -81 106 -146 q 41 69 41 -16 q 59 173 41 134 q 106 237 77 212 q 170 279 134 262 q 238 316 205 296 q 300 365 272 336 q 343 444 328 394 m 309 623 q 321 678 309 652 q 352 723 332 704 q 397 754 371 743 q 452 765 422 765 q 507 754 481 765 q 552 723 533 743 q 583 678 572 704 q 594 623 594 652 q 583 567 594 593 q 552 521 572 541 q 507 490 533 502 q 452 479 481 479 q 397 490 422 479 q 352 521 371 502 q 321 567 332 541 q 309 623 309 593 z "},"⁄":{"ha":403,"x_min":-18,"x_max":422,"o":"m 422 844 q 261 459 335 654 q 123 64 187 263 l -18 115 q 61 312 22 214 q 142 507 100 410 q 229 699 184 604 q 324 887 273 794 l 422 844 z "},"ﬁ":{"ha":1057,"x_min":29,"x_max":1037,"o":"m 676 964 q 669 838 672 901 q 660 712 665 776 l 372 697 l 372 612 l 622 612 l 608 401 l 371 395 l 372 20 l 29 14 l 51 964 l 676 964 m 1037 955 l 989 31 l 703 16 l 676 936 l 1037 955 z "},"ﬂ":{"ha":1273,"x_min":29,"x_max":1276,"o":"m 676 964 q 669 838 672 901 q 660 712 665 776 l 372 697 l 372 612 l 622 612 l 608 401 l 371 395 l 372 20 l 29 14 l 51 964 l 676 964 m 1276 359 l 1247 58 l 676 14 l 698 982 l 1050 982 l 1000 359 l 1276 359 z "},"@":{"ha":923,"x_min":45,"x_max":892,"o":"m 892 521 q 839 323 892 391 q 680 255 785 256 q 610 260 640 254 q 559 276 580 267 q 528 298 539 286 q 514 319 517 309 q 477 289 500 296 q 433 281 454 281 q 369 290 399 281 q 316 320 338 300 q 280 371 294 340 q 267 444 267 401 q 280 511 267 482 q 315 559 292 540 q 367 588 337 578 q 433 598 397 598 q 484 585 459 598 q 525 540 509 572 l 525 609 l 669 610 l 665 365 l 682 368 q 701 382 692 370 q 713 414 707 393 q 719 475 719 436 q 701 578 719 535 q 650 648 684 621 q 569 687 617 675 q 460 700 521 700 q 341 674 393 699 q 297 646 319 663 q 259 604 276 629 q 233 543 243 578 q 222 461 222 508 q 235 363 222 404 q 268 295 248 322 q 314 251 288 267 q 368 227 340 235 q 514 224 432 209 l 514 95 q 331 90 416 75 q 182 153 245 106 q 81 277 118 201 q 45 456 45 354 q 71 626 45 555 q 139 744 98 696 q 232 819 181 791 q 334 861 283 846 q 427 879 384 875 q 495 883 470 883 q 660 854 587 883 q 785 777 734 826 q 865 662 837 728 q 892 521 892 596 m 416 449 q 427 406 416 423 q 460 389 437 389 q 497 406 482 389 q 511 449 511 423 q 497 484 511 473 q 460 495 482 495 q 416 449 416 495 z "},"%":{"ha":1006,"x_min":28,"x_max":979,"o":"m 979 289 q 964 218 979 253 q 920 156 949 183 q 851 111 892 128 q 760 94 811 94 q 670 111 710 94 q 601 156 629 128 q 558 218 573 183 q 543 289 543 253 q 558 359 543 324 q 601 422 573 395 q 670 467 629 450 q 760 484 710 484 q 851 467 811 484 q 920 422 892 450 q 964 359 949 395 q 979 289 979 324 m 825 290 q 822 314 825 301 q 810 337 818 326 q 789 356 802 349 q 759 363 777 363 q 728 356 741 363 q 707 337 715 349 q 695 314 699 326 q 691 290 691 301 q 695 267 691 279 q 707 243 699 254 q 728 224 715 232 q 759 217 741 217 q 789 224 777 217 q 810 243 802 232 q 822 267 818 254 q 825 290 825 279 m 463 625 q 448 554 463 589 q 405 492 433 519 q 336 447 376 465 q 245 430 296 430 q 154 447 195 430 q 86 492 114 465 q 43 554 58 519 q 28 625 28 589 q 43 696 28 661 q 86 759 58 731 q 154 803 114 786 q 245 821 195 821 q 336 803 296 821 q 405 759 376 786 q 448 696 433 731 q 463 625 463 661 m 310 627 q 306 650 310 637 q 294 674 302 663 q 274 692 286 685 q 243 700 261 700 q 213 692 226 700 q 192 674 200 685 q 180 650 184 663 q 176 627 176 637 q 180 603 176 616 q 192 579 184 591 q 213 561 200 568 q 243 553 226 553 q 274 561 261 553 q 294 579 286 568 q 306 603 302 591 q 310 627 310 616 m 734 844 q 573 459 648 654 q 435 64 499 263 l 294 115 q 373 312 334 214 q 455 507 413 410 q 541 699 496 604 q 637 887 586 794 l 734 844 z "},"&":{"ha":875,"x_min":5,"x_max":892,"o":"m 736 66 q 689 102 713 85 q 642 137 665 119 q 567 86 608 111 q 477 44 525 62 q 379 18 430 26 q 277 14 328 9 q 166 37 218 18 q 79 87 115 56 q 23 157 42 117 q 11 240 5 196 q 36 312 16 277 q 83 379 55 347 q 145 440 111 411 q 216 494 180 469 q 167 547 190 519 q 128 605 144 575 q 104 667 112 635 q 102 731 96 699 q 138 813 109 774 q 212 880 167 852 q 312 922 256 907 q 429 932 368 937 q 532 905 484 928 q 614 850 580 883 q 665 776 648 817 q 675 696 682 736 q 654 635 671 663 q 615 581 638 606 q 563 532 591 555 q 505 486 534 509 q 559 444 533 464 q 613 404 585 424 q 637 441 625 422 q 658 480 648 460 l 860 431 q 824 355 846 393 q 776 281 802 317 q 834 239 806 259 q 892 198 863 220 l 736 66 m 422 709 q 413 748 424 733 q 381 765 403 763 q 342 756 359 768 q 324 719 326 743 q 326 687 323 703 q 336 656 330 671 q 351 627 342 641 q 366 602 359 613 q 384 625 375 612 q 401 652 393 638 q 415 681 409 667 q 422 709 420 696 m 444 264 q 401 315 423 289 q 359 365 380 340 q 340 342 351 355 q 319 313 329 328 q 302 282 309 298 q 293 251 294 266 q 304 215 292 231 q 336 197 317 199 q 366 201 351 195 q 395 218 381 208 q 422 242 410 229 q 444 264 435 254 z "},"?":{"ha":770,"x_min":28,"x_max":741,"o":"m 439 264 l 210 264 q 218 385 205 336 q 253 466 231 433 q 302 518 275 498 q 356 552 330 538 q 402 581 382 567 q 429 614 422 594 q 432 643 434 627 q 418 673 430 659 q 383 697 406 687 q 322 707 359 707 q 264 702 298 707 q 194 689 231 698 q 122 666 157 680 q 58 636 86 653 l 28 902 q 84 933 53 917 q 154 961 116 949 q 237 982 192 974 q 333 990 281 990 q 491 967 416 990 q 621 899 565 944 q 709 789 676 854 q 741 639 741 724 q 723 535 741 574 q 676 471 705 496 q 612 429 648 446 q 544 392 577 412 q 482 343 510 372 q 439 264 454 314 m 473 85 q 461 30 473 56 q 430 -15 450 4 q 385 -46 411 -35 q 330 -57 359 -57 q 275 -46 300 -57 q 230 -15 249 -35 q 199 30 210 4 q 188 85 188 56 q 199 141 188 115 q 230 187 210 168 q 275 218 249 206 q 330 229 300 229 q 385 218 359 229 q 430 187 411 206 q 461 141 450 168 q 473 85 473 115 z "},"½":{"ha":852,"x_min":26,"x_max":812,"o":"m 300 803 l 281 418 l 126 423 l 134 678 l 79 650 l 26 742 l 140 808 l 300 803 m 618 844 q 457 459 532 654 q 319 64 383 263 l 178 115 q 257 312 218 214 q 339 507 297 410 q 425 699 380 604 q 521 887 470 794 l 618 844 m 812 330 q 802 288 812 308 q 775 251 792 269 q 738 219 759 234 q 694 194 716 205 l 807 194 l 798 81 l 468 90 l 468 189 q 528 207 496 195 q 585 236 559 219 q 629 274 612 252 q 646 321 646 295 q 628 353 646 343 q 585 363 610 363 q 542 357 564 363 q 505 338 520 350 l 475 445 q 504 462 488 455 q 539 473 521 469 q 578 478 558 477 q 616 480 597 480 q 693 469 657 480 q 755 437 729 457 q 797 389 782 416 q 812 330 812 361 z "},"¼":{"ha":838,"x_min":26,"x_max":798,"o":"m 300 803 l 281 418 l 126 423 l 136 678 l 79 650 l 26 742 l 141 808 l 300 803 m 620 844 q 458 459 532 654 q 320 64 384 263 l 179 115 q 258 312 218 214 q 339 507 298 410 q 426 699 381 604 q 522 887 471 794 l 620 844 m 798 225 l 766 224 l 761 107 l 601 96 l 609 222 l 420 218 l 473 456 l 606 456 l 567 290 l 614 292 l 627 498 l 780 498 l 770 296 l 798 297 l 798 225 z "},"¹":{"ha":304,"x_min":-4,"x_max":271,"o":"m 271 803 l 251 418 l 98 423 l 106 680 l 49 650 l -4 742 l 111 808 l 271 803 z "},"¾":{"ha":898,"x_min":31,"x_max":867,"o":"m 690 844 q 528 459 602 654 q 390 64 454 263 l 249 115 q 328 312 288 214 q 409 507 368 410 q 496 699 451 604 q 592 887 541 794 l 690 844 m 867 225 l 836 224 l 831 107 l 671 96 l 679 222 l 490 218 l 543 456 l 676 456 l 637 290 l 684 292 l 696 498 l 850 498 l 840 296 l 867 297 l 867 225 m 393 555 q 378 492 393 519 q 336 448 363 465 q 273 422 310 431 q 191 414 235 414 q 107 425 150 414 q 31 452 65 435 l 44 562 q 74 548 57 554 q 108 537 90 542 q 144 529 126 532 q 180 526 163 526 q 200 527 190 526 q 219 531 211 528 q 233 541 227 534 q 238 556 238 547 q 231 567 238 562 q 214 576 224 572 q 193 581 204 579 q 176 583 182 583 q 164 583 171 583 q 150 582 157 583 q 136 579 143 581 q 125 575 130 578 l 128 654 q 140 652 134 652 q 151 652 145 652 q 179 654 164 652 q 205 661 193 656 q 226 673 218 665 q 234 693 234 681 q 228 707 234 702 q 212 716 221 713 q 192 720 203 719 q 172 722 180 722 q 115 714 143 722 q 66 692 87 706 l 37 791 q 111 821 69 811 q 195 831 152 831 q 268 823 233 831 q 330 798 303 814 q 373 757 357 782 q 389 700 389 732 q 375 664 389 682 q 344 633 362 645 q 368 620 359 628 q 383 601 378 611 q 391 578 389 590 q 393 555 393 566 z "},"³":{"ha":406,"x_min":23,"x_max":387,"o":"m 387 555 q 372 492 387 519 q 330 448 357 465 q 266 422 303 431 q 184 414 229 414 q 101 425 144 414 q 23 452 58 435 l 37 562 q 66 549 50 555 q 101 537 83 543 q 137 529 119 532 q 172 526 155 526 q 193 527 182 526 q 212 531 203 528 q 225 541 220 534 q 231 556 231 547 q 223 567 231 562 q 207 576 216 572 q 186 581 197 579 q 170 583 176 583 q 157 583 164 583 q 143 582 150 583 q 129 580 136 581 q 119 576 123 578 l 121 654 q 133 652 127 652 q 144 652 138 652 q 171 654 157 652 q 198 661 186 656 q 218 673 210 665 q 227 693 227 681 q 220 708 227 702 q 204 716 214 713 q 184 721 195 720 q 164 722 173 722 q 109 714 136 722 q 60 692 81 707 l 30 791 q 103 821 62 811 q 187 831 145 831 q 260 823 225 831 q 322 798 296 814 q 365 758 349 782 q 381 701 381 733 q 368 664 381 683 q 338 633 355 645 q 376 601 366 623 q 387 555 387 578 z "},"²":{"ha":397,"x_min":28,"x_max":373,"o":"m 373 678 q 363 637 373 656 q 336 600 353 617 q 298 568 319 583 q 255 543 277 553 l 366 543 l 358 430 l 28 438 l 28 537 q 88 556 57 544 q 146 584 119 568 q 189 622 172 601 q 206 670 206 644 q 189 703 206 692 q 145 713 171 713 q 102 706 123 713 q 65 686 81 699 l 35 793 q 65 810 48 804 q 100 821 81 817 q 138 827 119 825 q 176 829 158 829 q 254 817 218 829 q 316 785 290 806 q 358 738 342 765 q 373 678 373 710 z "},"‰":{"ha":1468,"x_min":28,"x_max":1440,"o":"m 979 289 q 964 218 979 253 q 920 156 949 183 q 851 111 892 128 q 760 94 811 94 q 670 111 710 94 q 601 156 629 128 q 558 218 573 183 q 543 289 543 253 q 558 359 543 324 q 601 422 573 395 q 670 467 629 450 q 760 484 710 484 q 851 467 811 484 q 920 422 892 450 q 964 359 949 395 q 979 289 979 324 m 825 290 q 822 314 825 301 q 810 337 818 326 q 789 356 802 349 q 759 363 777 363 q 728 356 741 363 q 707 337 715 349 q 695 314 699 326 q 691 290 691 301 q 695 267 691 279 q 707 243 699 254 q 728 224 715 232 q 759 217 741 217 q 789 224 777 217 q 810 243 802 232 q 822 267 818 254 q 825 290 825 279 m 463 625 q 448 554 463 589 q 405 492 433 519 q 336 447 376 465 q 245 430 296 430 q 154 447 195 430 q 86 492 114 465 q 43 554 58 519 q 28 625 28 589 q 43 696 28 661 q 86 759 58 731 q 154 803 114 786 q 245 821 195 821 q 336 803 296 821 q 405 759 376 786 q 448 696 433 731 q 463 625 463 661 m 310 627 q 306 650 310 637 q 294 674 302 663 q 274 692 286 685 q 243 700 261 700 q 213 692 226 700 q 192 674 200 685 q 180 650 184 663 q 176 627 176 637 q 180 603 176 616 q 192 579 184 591 q 213 561 200 568 q 243 553 226 553 q 274 561 261 553 q 294 579 286 568 q 306 603 302 591 q 310 627 310 616 m 734 844 q 573 459 648 654 q 435 64 499 263 l 294 115 q 373 312 334 214 q 455 507 413 410 q 541 699 496 604 q 637 887 586 794 l 734 844 m 1440 289 q 1425 218 1440 253 q 1381 156 1410 183 q 1313 111 1353 128 q 1221 94 1272 94 q 1131 111 1171 94 q 1062 156 1090 128 q 1019 218 1034 183 q 1004 289 1004 253 q 1019 359 1004 324 q 1062 422 1034 395 q 1131 467 1090 450 q 1221 484 1171 484 q 1313 467 1272 484 q 1381 422 1353 450 q 1425 359 1410 395 q 1440 289 1440 324 m 1286 290 q 1283 314 1286 301 q 1271 337 1279 326 q 1250 356 1263 349 q 1220 363 1238 363 q 1190 356 1202 363 q 1168 337 1177 349 q 1156 314 1160 326 q 1152 290 1152 301 q 1156 267 1152 279 q 1168 243 1160 254 q 1190 224 1177 232 q 1220 217 1202 217 q 1250 224 1238 217 q 1271 243 1263 232 q 1283 267 1279 254 q 1286 290 1286 279 z "},"Š":{"ha":737,"x_min":18,"x_max":729,"o":"m 729 361 q 697 198 729 268 q 609 83 665 129 q 478 14 553 37 q 317 -9 403 -9 q 244 -1 283 -9 q 163 21 204 8 q 85 50 123 35 q 18 79 47 65 l 48 358 q 176 306 106 323 q 314 288 246 288 q 345 289 327 288 q 380 295 363 290 q 408 310 397 300 q 420 339 420 320 q 412 361 420 352 q 391 376 404 370 q 361 385 378 382 q 330 389 345 388 q 300 391 314 391 q 279 391 287 391 q 173 411 220 391 q 91 468 125 431 q 37 554 56 504 q 18 662 18 604 q 51 805 18 742 q 137 913 83 869 q 260 981 191 958 q 405 1005 330 1005 q 473 1003 438 1005 q 544 994 509 1000 q 612 979 578 988 q 675 955 645 969 l 649 680 q 552 706 603 695 q 454 716 502 716 q 431 716 445 716 q 402 714 417 715 q 371 709 387 712 q 343 700 355 705 q 323 684 331 694 q 317 662 316 675 q 328 638 317 647 q 355 624 338 629 q 392 616 372 618 q 431 614 412 614 q 468 614 451 614 q 496 613 485 614 q 593 590 550 610 q 667 538 637 570 q 713 460 697 505 q 729 361 729 415 m 614 1274 q 583 1226 601 1253 q 544 1170 564 1199 q 502 1111 524 1141 q 462 1057 481 1082 l 329 1038 l 132 1253 l 276 1344 l 382 1206 l 465 1339 l 614 1274 z "},"š":{"ha":739,"x_min":19,"x_max":730,"o":"m 730 347 q 697 187 730 254 q 609 76 665 119 q 478 11 553 32 q 317 -9 404 -9 q 244 -1 284 -9 q 164 21 205 8 q 86 50 123 35 q 19 79 48 65 l 49 345 q 177 292 106 310 q 315 274 247 274 q 346 275 328 274 q 381 281 364 276 q 409 296 397 286 q 420 326 420 307 q 412 348 420 338 q 391 362 404 357 q 362 371 378 368 q 330 376 346 374 q 301 377 315 377 q 279 377 288 377 q 173 395 221 377 q 91 447 125 414 q 38 529 57 481 q 19 635 19 576 q 51 778 19 715 q 137 886 83 842 q 261 954 191 930 q 406 978 331 978 q 474 976 439 978 q 544 967 509 973 q 612 951 579 961 q 675 928 646 942 l 650 652 q 553 679 604 668 q 454 689 503 689 q 432 689 446 689 q 402 687 418 688 q 372 682 387 685 q 344 672 356 678 q 324 657 332 667 q 317 635 317 648 q 329 612 318 620 q 356 600 339 604 q 392 596 372 596 q 432 597 412 596 q 469 599 452 598 q 496 600 486 600 q 594 576 551 596 q 668 524 637 557 q 714 447 698 492 q 730 347 730 401 m 614 1244 q 583 1196 602 1223 q 545 1140 565 1169 q 503 1081 524 1111 q 463 1027 481 1052 l 330 1008 l 133 1223 l 277 1314 l 382 1176 l 465 1309 l 614 1244 z "},"Ý":{"ha":843,"x_min":8,"x_max":906,"o":"m 906 918 l 533 397 l 515 -27 l 194 -27 l 202 395 l 8 898 l 354 941 l 408 648 l 581 941 l 906 918 m 822 1130 q 665 1041 741 1086 q 511 943 588 996 l 425 1038 q 457 1074 438 1054 q 497 1115 476 1094 q 542 1157 519 1136 q 587 1198 565 1179 q 694 1293 638 1245 l 822 1130 z "},"ý":{"ha":841,"x_min":-27,"x_max":871,"o":"m 871 918 l 552 397 l 562 14 l 213 14 l 221 395 l -27 898 l 319 941 l 427 648 l 545 941 l 871 918 m 792 1114 q 635 1024 711 1069 q 481 926 558 979 l 395 1021 q 427 1058 408 1038 q 468 1099 446 1078 q 512 1141 489 1120 q 557 1182 535 1162 q 665 1276 608 1229 l 792 1114 z "},"Ž":{"ha":676,"x_min":8,"x_max":655,"o":"m 655 745 l 345 326 l 644 326 l 640 38 l 35 14 l 8 279 l 362 741 l 38 716 l 35 989 l 643 989 l 655 745 m 572 1255 q 541 1207 559 1234 q 503 1151 523 1180 q 461 1092 482 1122 q 420 1038 439 1063 l 288 1019 l 91 1234 l 235 1325 l 340 1187 l 423 1320 l 572 1255 z "},"ž":{"ha":688,"x_min":24,"x_max":671,"o":"m 671 718 l 360 326 l 646 326 l 656 38 l 51 14 l 24 279 l 378 713 l 26 689 l 24 962 l 659 962 l 671 718 m 588 1237 q 557 1189 575 1216 q 518 1133 538 1162 q 476 1075 498 1104 q 436 1020 455 1045 l 303 1001 l 106 1217 l 250 1308 l 356 1169 l 439 1302 l 588 1237 z "},"ÿ":{"ha":841,"x_min":-27,"x_max":871,"o":"m 871 918 l 552 397 l 562 14 l 213 14 l 221 395 l -27 898 l 319 941 l 427 648 l 545 941 l 871 918 m 661 1100 q 653 1061 661 1079 q 631 1030 645 1043 q 600 1009 618 1017 q 560 1001 581 1001 q 523 1009 541 1001 q 491 1030 505 1017 q 470 1061 478 1043 q 463 1100 463 1079 q 470 1138 463 1120 q 491 1170 478 1156 q 523 1191 505 1183 q 560 1199 541 1199 q 600 1191 581 1199 q 631 1170 618 1183 q 653 1138 645 1156 q 661 1100 661 1120 m 396 1085 q 388 1043 396 1063 q 365 1008 379 1023 q 330 985 350 994 q 289 977 311 977 q 247 985 267 977 q 213 1008 227 994 q 190 1043 199 1023 q 182 1085 182 1063 q 190 1125 182 1106 q 213 1159 199 1144 q 247 1182 227 1173 q 289 1191 267 1191 q 330 1182 311 1191 q 365 1159 350 1173 q 388 1125 379 1144 q 396 1085 396 1106 z "},"Ÿ":{"ha":843,"x_min":8,"x_max":906,"o":"m 906 918 l 533 397 l 515 -27 l 194 -27 l 202 395 l 8 898 l 354 941 l 408 648 l 581 941 l 906 918 m 696 1103 q 688 1064 696 1082 q 667 1033 680 1046 q 635 1011 653 1019 q 595 1004 616 1004 q 558 1011 576 1004 q 527 1033 540 1019 q 506 1064 513 1046 q 498 1103 498 1082 q 506 1141 498 1123 q 527 1173 513 1159 q 558 1194 540 1186 q 595 1202 576 1202 q 635 1194 616 1202 q 667 1173 653 1186 q 688 1141 680 1159 q 696 1103 696 1123 m 431 1088 q 423 1046 431 1065 q 400 1011 414 1026 q 366 988 385 996 q 324 979 346 979 q 282 988 302 979 q 248 1011 262 996 q 225 1046 234 1026 q 217 1088 217 1065 q 225 1128 217 1109 q 248 1161 234 1147 q 282 1185 262 1176 q 324 1194 302 1194 q 366 1185 346 1194 q 400 1161 385 1176 q 423 1128 414 1147 q 431 1088 431 1109 z "},"À":{"ha":869,"x_min":-22,"x_max":890,"o":"m 890 58 l 553 15 l 513 168 l 358 168 l 324 15 l -22 49 l 248 952 l 625 971 l 890 58 m 488 376 l 437 612 l 387 376 l 488 376 m 392 983 q 243 1088 317 1040 q 90 1183 168 1136 l 224 1341 q 328 1242 278 1291 q 371 1199 349 1221 q 413 1155 393 1177 q 452 1112 434 1133 q 483 1074 470 1091 l 392 983 z "},"Ã":{"ha":869,"x_min":-22,"x_max":890,"o":"m 890 58 l 553 15 l 513 168 l 358 168 l 324 15 l -22 49 l 248 952 l 625 971 l 890 58 m 488 376 l 437 612 l 387 376 l 488 376 m 705 1188 q 691 1115 705 1149 q 652 1056 677 1081 q 594 1017 627 1031 q 522 1002 560 1002 q 471 1013 492 1002 q 436 1040 450 1024 q 411 1076 421 1057 q 391 1111 400 1095 q 373 1138 382 1127 q 353 1149 364 1149 q 340 1144 345 1149 q 331 1134 334 1140 q 327 1120 328 1128 q 326 1107 326 1113 q 331 1067 326 1086 q 343 1029 336 1048 l 178 1016 q 166 1073 170 1044 q 163 1130 163 1102 q 174 1207 163 1171 q 206 1270 184 1243 q 259 1311 227 1296 q 332 1326 290 1326 q 394 1315 370 1326 q 435 1286 418 1303 q 460 1249 451 1270 q 477 1212 469 1229 q 491 1183 484 1195 q 509 1172 498 1172 q 530 1184 522 1172 q 537 1208 537 1196 q 529 1248 537 1229 q 511 1283 521 1267 l 680 1310 q 698 1250 691 1280 q 705 1188 705 1220 z "},"Õ":{"ha":886,"x_min":12,"x_max":873,"o":"m 873 479 q 859 360 873 417 q 818 252 844 302 q 752 160 791 202 q 666 89 714 119 q 562 42 618 59 q 443 26 506 26 q 327 41 382 26 q 223 85 271 57 q 136 153 175 113 q 70 241 97 193 q 27 345 42 290 q 12 461 12 401 q 26 577 12 520 q 67 684 40 633 q 132 776 94 734 q 217 848 170 818 q 319 896 264 879 q 435 913 374 913 q 614 882 533 913 q 752 795 695 852 q 841 658 810 739 q 873 479 873 578 m 572 461 q 563 518 572 490 q 538 567 555 545 q 498 601 522 588 q 443 614 474 614 q 386 603 411 614 q 343 571 361 591 q 315 525 325 551 q 306 468 306 498 q 314 411 306 439 q 338 359 322 382 q 379 322 355 336 q 435 308 403 308 q 492 320 467 308 q 535 354 517 333 q 562 404 553 376 q 572 461 572 431 m 713 1131 q 699 1058 713 1092 q 660 999 684 1024 q 601 960 635 974 q 530 945 568 945 q 479 956 500 945 q 443 983 458 967 q 418 1019 429 1000 q 399 1054 408 1038 q 381 1081 390 1070 q 360 1092 372 1092 q 347 1087 353 1092 q 339 1077 342 1083 q 334 1063 336 1071 q 333 1050 333 1056 q 338 1010 333 1029 q 351 972 343 991 l 185 959 q 174 1016 177 987 q 170 1073 170 1045 q 181 1150 170 1114 q 213 1213 192 1186 q 266 1254 235 1239 q 340 1270 298 1270 q 401 1258 377 1270 q 442 1230 426 1246 q 468 1192 458 1213 q 484 1155 477 1172 q 498 1126 492 1138 q 516 1115 505 1115 q 537 1127 530 1115 q 545 1152 545 1139 q 536 1191 545 1172 q 519 1226 528 1211 l 687 1253 q 706 1193 699 1223 q 713 1131 713 1163 z "},"Â":{"ha":869,"x_min":-22,"x_max":890,"o":"m 890 58 l 553 15 l 513 168 l 358 168 l 324 15 l -22 49 l 248 952 l 625 971 l 890 58 m 488 376 l 437 612 l 387 376 l 488 376 m 530 990 l 425 1128 l 342 997 l 193 1061 q 224 1110 205 1082 q 264 1168 243 1138 q 307 1229 286 1198 q 349 1284 329 1259 l 488 1286 l 674 1078 l 530 990 z "},"Ê":{"ha":665,"x_min":30,"x_max":677,"o":"m 677 978 q 669 852 673 914 q 661 726 666 789 l 373 711 l 366 625 l 568 625 l 553 415 l 350 408 l 343 309 l 511 309 l 631 309 q 622 161 627 235 q 614 14 618 87 l 30 0 l 52 978 l 677 978 m 450 1002 l 345 1141 l 262 1009 l 113 1073 q 144 1122 125 1094 q 184 1180 163 1150 q 227 1241 205 1211 q 269 1297 249 1271 l 408 1298 l 594 1090 l 450 1002 z "},"Á":{"ha":869,"x_min":-22,"x_max":890,"o":"m 890 58 l 553 15 l 513 168 l 358 168 l 324 15 l -22 49 l 248 952 l 625 971 l 890 58 m 488 376 l 437 612 l 387 376 l 488 376 m 799 1183 q 642 1094 718 1139 q 488 996 565 1048 l 401 1090 q 434 1127 415 1107 q 474 1168 453 1147 q 519 1210 496 1189 q 564 1251 542 1232 q 671 1345 615 1298 l 799 1183 z "},"Ë":{"ha":665,"x_min":30,"x_max":677,"o":"m 677 978 q 669 852 673 914 q 661 726 666 789 l 373 711 l 366 625 l 568 625 l 553 415 l 350 408 l 343 309 l 511 309 l 631 309 q 622 161 627 235 q 614 14 618 87 l 30 0 l 52 978 l 677 978 m 593 1130 q 585 1091 593 1109 q 564 1060 577 1073 q 532 1039 550 1046 q 492 1031 513 1031 q 455 1039 473 1031 q 424 1060 437 1046 q 402 1091 410 1073 q 395 1130 395 1109 q 402 1168 395 1150 q 424 1200 410 1186 q 455 1221 437 1213 q 492 1229 473 1229 q 532 1221 513 1229 q 564 1200 550 1213 q 585 1168 577 1186 q 593 1130 593 1150 m 328 1115 q 320 1073 328 1093 q 297 1038 311 1053 q 262 1015 282 1023 q 221 1006 243 1006 q 179 1015 199 1006 q 145 1038 159 1023 q 122 1073 131 1053 q 114 1115 114 1093 q 122 1155 114 1136 q 145 1188 131 1174 q 179 1212 159 1203 q 221 1221 199 1221 q 262 1212 243 1221 q 297 1188 282 1203 q 320 1155 311 1174 q 328 1115 328 1136 z "},"È":{"ha":665,"x_min":30,"x_max":677,"o":"m 677 978 q 669 852 673 914 q 661 726 666 789 l 373 711 l 366 625 l 568 625 l 553 415 l 350 408 l 343 309 l 511 309 l 631 309 q 622 161 627 235 q 614 14 618 87 l 30 0 l 52 978 l 677 978 m 376 1002 q 227 1107 301 1059 q 73 1202 152 1155 l 208 1360 q 311 1261 262 1310 q 354 1218 332 1240 q 397 1174 376 1196 q 436 1131 418 1152 q 467 1093 454 1110 l 376 1002 z "},"Í":{"ha":413,"x_min":40,"x_max":572,"o":"m 401 955 l 326 31 l 40 16 l 40 936 l 401 955 m 572 1177 q 414 1088 491 1133 q 261 990 338 1043 l 174 1085 q 207 1121 188 1101 q 247 1162 226 1141 q 292 1205 269 1183 q 336 1246 315 1226 q 444 1340 388 1293 l 572 1177 z "},"Î":{"ha":413,"x_min":-19,"x_max":463,"o":"m 401 955 l 326 31 l 40 16 l 40 936 l 401 955 m 319 983 l 213 1122 l 130 990 l -19 1054 q 13 1103 -6 1075 q 53 1161 32 1131 q 96 1222 74 1192 q 137 1278 117 1252 l 277 1279 l 463 1072 l 319 983 z "},"Ï":{"ha":413,"x_min":-18,"x_max":461,"o":"m 401 955 l 326 31 l 40 16 l 40 936 l 401 955 m 461 1096 q 453 1057 461 1075 q 432 1026 446 1039 q 400 1005 418 1013 q 361 997 382 997 q 323 1005 341 997 q 292 1026 305 1013 q 271 1057 279 1039 q 263 1096 263 1075 q 271 1134 263 1116 q 292 1166 279 1152 q 323 1187 305 1179 q 361 1195 341 1195 q 400 1187 382 1195 q 432 1166 418 1179 q 453 1134 446 1152 q 461 1096 461 1116 m 197 1081 q 188 1039 197 1059 q 165 1004 180 1019 q 131 981 151 989 q 90 972 111 972 q 47 981 67 972 q 14 1004 28 989 q -9 1039 -1 1019 q -18 1081 -18 1059 q -9 1121 -18 1102 q 14 1155 -1 1140 q 47 1178 28 1169 q 90 1187 67 1187 q 131 1178 111 1187 q 165 1155 151 1169 q 188 1121 180 1140 q 197 1081 197 1102 z "},"Ì":{"ha":413,"x_min":-121,"x_max":401,"o":"m 401 955 l 326 31 l 40 16 l 40 936 l 401 955 m 182 983 q 33 1088 107 1040 q -121 1183 -42 1136 l 14 1341 q 117 1242 68 1291 q 160 1199 138 1221 q 203 1155 182 1177 q 242 1112 224 1133 q 273 1074 260 1091 l 182 983 z "},"Ó":{"ha":886,"x_min":12,"x_max":873,"o":"m 873 479 q 859 360 873 417 q 818 252 844 302 q 752 160 791 202 q 666 89 714 119 q 562 42 618 59 q 443 26 506 26 q 327 41 382 26 q 223 85 271 57 q 136 153 175 113 q 70 241 97 193 q 27 345 42 290 q 12 461 12 401 q 26 577 12 520 q 67 684 40 633 q 132 776 94 734 q 217 848 170 818 q 319 896 264 879 q 435 913 374 913 q 614 882 533 913 q 752 795 695 852 q 841 658 810 739 q 873 479 873 578 m 572 461 q 563 518 572 490 q 538 567 555 545 q 498 601 522 588 q 443 614 474 614 q 386 603 411 614 q 343 571 361 591 q 315 525 325 551 q 306 468 306 498 q 314 411 306 439 q 338 359 322 382 q 379 322 355 336 q 435 308 403 308 q 492 320 467 308 q 535 354 517 333 q 562 404 553 376 q 572 461 572 431 m 795 1126 q 638 1037 715 1082 q 485 939 562 991 l 398 1034 q 431 1070 412 1050 q 471 1111 450 1090 q 515 1153 492 1132 q 560 1194 538 1175 q 668 1289 612 1241 l 795 1126 z "},"Ô":{"ha":886,"x_min":12,"x_max":873,"o":"m 873 479 q 859 360 873 417 q 818 252 844 302 q 752 160 791 202 q 666 89 714 119 q 562 42 618 59 q 443 26 506 26 q 327 41 382 26 q 223 85 271 57 q 136 153 175 113 q 70 241 97 193 q 27 345 42 290 q 12 461 12 401 q 26 577 12 520 q 67 684 40 633 q 132 776 94 734 q 217 848 170 818 q 319 896 264 879 q 435 913 374 913 q 614 882 533 913 q 752 795 695 852 q 841 658 810 739 q 873 479 873 578 m 572 461 q 563 518 572 490 q 538 567 555 545 q 498 601 522 588 q 443 614 474 614 q 386 603 411 614 q 343 571 361 591 q 315 525 325 551 q 306 468 306 498 q 314 411 306 439 q 338 359 322 382 q 379 322 355 336 q 435 308 403 308 q 492 320 467 308 q 535 354 517 333 q 562 404 553 376 q 572 461 572 431 m 539 939 l 433 1077 l 351 945 l 201 1009 q 233 1058 214 1030 q 273 1117 252 1086 q 316 1177 294 1147 q 357 1233 338 1207 l 497 1234 l 683 1027 l 539 939 z "},"Ò":{"ha":886,"x_min":12,"x_max":873,"o":"m 873 479 q 859 360 873 417 q 818 252 844 302 q 752 160 791 202 q 666 89 714 119 q 562 42 618 59 q 443 26 506 26 q 327 41 382 26 q 223 85 271 57 q 136 153 175 113 q 70 241 97 193 q 27 345 42 290 q 12 461 12 401 q 26 577 12 520 q 67 684 40 633 q 132 776 94 734 q 217 848 170 818 q 319 896 264 879 q 435 913 374 913 q 614 882 533 913 q 752 795 695 852 q 841 658 810 739 q 873 479 873 578 m 572 461 q 563 518 572 490 q 538 567 555 545 q 498 601 522 588 q 443 614 474 614 q 386 603 411 614 q 343 571 361 591 q 315 525 325 551 q 306 468 306 498 q 314 411 306 439 q 338 359 322 382 q 379 322 355 336 q 435 308 403 308 q 492 320 467 308 q 535 354 517 333 q 562 404 553 376 q 572 461 572 431 m 374 952 q 224 1057 299 1008 q 71 1152 150 1105 l 205 1310 q 309 1211 260 1259 q 352 1168 330 1190 q 395 1123 374 1145 q 434 1081 416 1101 q 465 1043 452 1060 l 374 952 z "},"Ú":{"ha":865,"x_min":22,"x_max":846,"o":"m 846 754 q 841 644 846 704 q 825 519 836 583 q 797 388 814 454 q 754 261 780 322 q 694 147 728 200 q 615 54 660 94 q 516 -8 571 14 q 394 -31 461 -31 q 257 -6 315 -31 q 158 63 199 20 q 90 163 117 106 q 49 284 64 220 q 28 415 34 349 q 22 544 22 482 q 32 733 22 639 q 59 922 41 828 l 376 910 q 345 696 358 804 q 332 480 332 589 q 333 446 332 469 q 336 395 334 423 q 344 337 339 367 q 358 283 349 308 q 379 243 367 259 q 409 228 392 228 q 444 247 429 228 q 472 296 460 265 q 492 368 484 328 q 507 453 501 409 q 517 541 513 497 q 523 623 521 585 q 526 690 526 661 q 527 734 527 720 q 525 839 527 787 q 520 944 524 892 l 838 944 q 846 754 846 850 m 794 1130 q 637 1041 713 1086 q 484 943 560 996 l 397 1038 q 429 1074 410 1054 q 470 1115 448 1094 q 514 1157 491 1136 q 559 1198 537 1179 q 667 1293 610 1245 l 794 1130 z "},"Û":{"ha":865,"x_min":22,"x_max":846,"o":"m 846 754 q 841 644 846 704 q 825 519 836 583 q 797 388 814 454 q 754 261 780 322 q 694 147 728 200 q 615 54 660 94 q 516 -8 571 14 q 394 -31 461 -31 q 257 -6 315 -31 q 158 63 199 20 q 90 163 117 106 q 49 284 64 220 q 28 415 34 349 q 22 544 22 482 q 32 733 22 639 q 59 922 41 828 l 376 910 q 345 696 358 804 q 332 480 332 589 q 333 446 332 469 q 336 395 334 423 q 344 337 339 367 q 358 283 349 308 q 379 243 367 259 q 409 228 392 228 q 444 247 429 228 q 472 296 460 265 q 492 368 484 328 q 507 453 501 409 q 517 541 513 497 q 523 623 521 585 q 526 690 526 661 q 527 734 527 720 q 525 839 527 787 q 520 944 524 892 l 838 944 q 846 754 846 850 m 531 962 l 425 1100 l 342 968 l 193 1032 q 225 1081 206 1053 q 265 1140 244 1109 q 308 1200 286 1170 q 349 1256 330 1230 l 489 1257 l 675 1050 l 531 962 z "},"Ù":{"ha":865,"x_min":22,"x_max":846,"o":"m 846 754 q 841 644 846 704 q 825 519 836 583 q 797 388 814 454 q 754 261 780 322 q 694 147 728 200 q 615 54 660 94 q 516 -8 571 14 q 394 -31 461 -31 q 257 -6 315 -31 q 158 63 199 20 q 90 163 117 106 q 49 284 64 220 q 28 415 34 349 q 22 544 22 482 q 32 733 22 639 q 59 922 41 828 l 376 910 q 345 696 358 804 q 332 480 332 589 q 333 446 332 469 q 336 395 334 423 q 344 337 339 367 q 358 283 349 308 q 379 243 367 259 q 409 228 392 228 q 444 247 429 228 q 472 296 460 265 q 492 368 484 328 q 507 453 501 409 q 517 541 513 497 q 523 623 521 585 q 526 690 526 661 q 527 734 527 720 q 525 839 527 787 q 520 944 524 892 l 838 944 q 846 754 846 850 m 409 947 q 260 1051 334 1003 q 106 1146 185 1099 l 241 1305 q 345 1206 295 1254 q 388 1162 366 1185 q 430 1118 410 1140 q 469 1075 451 1096 q 500 1038 487 1055 l 409 947 z "},"Ä":{"ha":869,"x_min":-22,"x_max":890,"o":"m 890 58 l 553 15 l 513 168 l 358 168 l 324 15 l -22 49 l 248 952 l 625 971 l 890 58 m 488 376 l 437 612 l 387 376 l 488 376 m 673 1109 q 665 1070 673 1088 q 644 1039 657 1053 q 612 1018 630 1026 q 572 1010 593 1010 q 535 1018 553 1010 q 504 1039 517 1026 q 483 1070 490 1053 q 475 1109 475 1088 q 483 1148 475 1130 q 504 1179 490 1166 q 535 1201 517 1193 q 572 1208 553 1208 q 612 1201 593 1208 q 644 1179 630 1193 q 665 1148 657 1166 q 673 1109 673 1130 m 408 1095 q 400 1053 408 1072 q 377 1018 391 1033 q 342 995 362 1003 q 301 986 323 986 q 259 995 279 986 q 225 1018 239 1003 q 202 1053 211 1033 q 194 1095 194 1072 q 202 1135 194 1116 q 225 1168 211 1154 q 259 1192 239 1183 q 301 1200 279 1200 q 342 1192 323 1200 q 377 1168 362 1183 q 400 1135 391 1154 q 408 1095 408 1116 z "},"Å":{"ha":861,"x_min":-26,"x_max":885,"o":"m 634 1080 q 626 1021 634 1049 q 602 970 617 994 l 621 971 l 885 58 l 549 15 l 508 168 l 353 168 l 319 15 l -26 49 l 243 952 l 268 954 q 235 1011 246 979 q 223 1080 223 1043 q 239 1157 223 1121 q 283 1220 256 1193 q 348 1262 311 1246 q 427 1278 385 1278 q 508 1262 470 1278 q 573 1220 545 1246 q 618 1157 602 1193 q 634 1080 634 1121 m 494 1076 q 490 1104 494 1090 q 478 1129 486 1118 q 460 1145 471 1139 q 437 1152 450 1152 q 414 1145 425 1152 q 395 1129 404 1139 q 382 1104 387 1118 q 378 1076 378 1090 q 382 1045 378 1059 q 395 1021 387 1031 q 414 1004 404 1010 q 437 998 425 998 q 478 1021 462 998 q 494 1076 494 1043 m 484 376 l 432 612 l 382 376 l 484 376 z "},"Ç":{"ha":716,"x_min":9,"x_max":707,"o":"m 563 -159 q 550 -225 563 -198 q 515 -270 538 -252 q 463 -295 493 -287 q 396 -302 432 -302 q 367 -301 383 -302 q 334 -295 351 -299 q 302 -286 317 -292 q 275 -271 286 -280 l 335 -164 q 354 -171 343 -168 q 374 -174 365 -174 q 399 -166 387 -174 q 411 -145 411 -159 q 405 -129 411 -135 q 390 -118 399 -122 q 370 -113 380 -114 q 353 -111 360 -111 q 326 -113 339 -111 q 298 -118 312 -115 l 305 24 q 186 79 240 42 q 92 169 132 117 q 31 286 53 221 q 9 423 9 351 q 43 642 9 539 q 140 822 76 745 q 300 944 205 899 q 519 989 395 989 q 615 981 566 989 q 707 954 665 974 l 669 667 q 629 675 649 673 q 590 677 610 677 q 494 664 540 677 q 414 623 449 650 q 358 555 379 596 q 338 460 338 515 q 349 399 338 425 q 380 356 360 373 q 429 331 401 339 q 490 323 456 323 q 542 328 515 323 q 595 342 569 334 q 647 363 622 351 q 693 387 672 374 l 666 68 q 610 44 640 54 q 548 26 580 33 q 485 14 517 18 q 423 9 452 10 l 423 -24 q 479 -35 453 -26 q 523 -62 505 -45 q 552 -104 542 -79 q 563 -159 563 -128 z "},"É":{"ha":665,"x_min":30,"x_max":688,"o":"m 677 978 q 669 852 673 914 q 661 726 666 789 l 373 711 l 366 625 l 568 625 l 553 415 l 350 408 l 343 309 l 511 309 l 631 309 q 622 161 627 235 q 614 14 618 87 l 30 0 l 52 978 l 677 978 m 688 1184 q 530 1095 607 1140 q 377 997 454 1050 l 290 1092 q 323 1128 304 1108 q 363 1169 342 1148 q 408 1212 385 1190 q 452 1253 431 1233 q 560 1347 504 1299 l 688 1184 z "},"Ñ":{"ha":977,"x_min":28,"x_max":957,"o":"m 957 972 l 908 53 l 553 20 l 363 513 l 333 11 l 28 11 l 52 972 l 391 989 l 626 500 l 637 962 l 957 972 m 763 1188 q 749 1115 763 1149 q 710 1056 734 1081 q 651 1017 685 1031 q 580 1002 618 1002 q 529 1013 550 1002 q 493 1040 508 1024 q 468 1076 479 1057 q 449 1111 458 1095 q 431 1138 440 1127 q 410 1149 422 1149 q 397 1144 403 1149 q 389 1134 392 1140 q 385 1120 386 1128 q 383 1107 383 1113 q 388 1067 383 1086 q 401 1029 393 1048 l 235 1016 q 224 1073 227 1044 q 220 1130 220 1102 q 231 1207 220 1171 q 263 1270 242 1243 q 316 1311 285 1296 q 390 1326 348 1326 q 452 1315 427 1326 q 492 1286 476 1303 q 518 1249 509 1270 q 534 1212 527 1229 q 549 1183 542 1195 q 566 1172 555 1172 q 587 1184 580 1172 q 595 1208 595 1196 q 587 1248 595 1229 q 569 1283 578 1267 l 737 1310 q 756 1250 749 1280 q 763 1188 763 1220 z "},"Ö":{"ha":886,"x_min":12,"x_max":873,"o":"m 873 479 q 859 360 873 417 q 818 252 844 302 q 752 160 791 202 q 666 89 714 119 q 562 42 618 59 q 443 26 506 26 q 327 41 382 26 q 223 85 271 57 q 136 153 175 113 q 70 241 97 193 q 27 345 42 290 q 12 461 12 401 q 26 577 12 520 q 67 684 40 633 q 132 776 94 734 q 217 848 170 818 q 319 896 264 879 q 435 913 374 913 q 614 882 533 913 q 752 795 695 852 q 841 658 810 739 q 873 479 873 578 m 572 461 q 563 518 572 490 q 538 567 555 545 q 498 601 522 588 q 443 614 474 614 q 386 603 411 614 q 343 571 361 591 q 315 525 325 551 q 306 468 306 498 q 314 411 306 439 q 338 359 322 382 q 379 322 355 336 q 435 308 403 308 q 492 320 467 308 q 535 354 517 333 q 562 404 553 376 q 572 461 572 431 m 682 1060 q 674 1021 682 1039 q 652 990 666 1003 q 621 969 639 977 q 581 961 602 961 q 544 969 562 961 q 512 990 526 977 q 491 1021 499 1003 q 484 1060 484 1039 q 491 1098 484 1080 q 512 1130 499 1116 q 544 1151 526 1143 q 581 1159 562 1159 q 621 1151 602 1159 q 652 1130 639 1143 q 674 1098 666 1116 q 682 1060 682 1080 m 417 1045 q 409 1003 417 1023 q 386 968 400 983 q 351 945 371 954 q 310 937 332 937 q 268 945 288 937 q 234 968 248 954 q 211 1003 220 983 q 203 1045 203 1023 q 211 1085 203 1066 q 234 1119 220 1104 q 268 1142 248 1133 q 310 1151 288 1151 q 351 1142 332 1151 q 386 1119 371 1133 q 409 1085 400 1104 q 417 1045 417 1066 z "},"Ü":{"ha":865,"x_min":22,"x_max":846,"o":"m 846 754 q 841 644 846 704 q 825 519 836 583 q 797 388 814 454 q 754 261 780 322 q 694 147 728 200 q 615 54 660 94 q 516 -8 571 14 q 394 -31 461 -31 q 257 -6 315 -31 q 158 63 199 20 q 90 163 117 106 q 49 284 64 220 q 28 415 34 349 q 22 544 22 482 q 32 733 22 639 q 59 922 41 828 l 376 910 q 345 696 358 804 q 332 480 332 589 q 333 446 332 469 q 336 395 334 423 q 344 337 339 367 q 358 283 349 308 q 379 243 367 259 q 409 228 392 228 q 444 247 429 228 q 472 296 460 265 q 492 368 484 328 q 507 453 501 409 q 517 541 513 497 q 523 623 521 585 q 526 690 526 661 q 527 734 527 720 q 525 839 527 787 q 520 944 524 892 l 838 944 q 846 754 846 850 m 673 1084 q 666 1045 673 1063 q 644 1014 658 1027 q 612 992 631 1000 q 573 985 594 985 q 535 992 553 985 q 504 1014 517 1000 q 483 1045 491 1027 q 475 1084 475 1063 q 483 1122 475 1104 q 504 1154 491 1140 q 535 1175 517 1167 q 573 1183 553 1183 q 612 1175 594 1183 q 644 1154 631 1167 q 666 1122 658 1140 q 673 1084 673 1104 m 409 1069 q 400 1027 409 1046 q 377 992 392 1007 q 343 969 363 977 q 302 960 323 960 q 260 969 279 960 q 226 992 240 977 q 203 1027 212 1007 q 195 1069 195 1046 q 203 1109 195 1090 q 226 1142 212 1128 q 260 1166 240 1157 q 302 1175 279 1175 q 343 1166 323 1175 q 377 1142 363 1157 q 400 1109 392 1128 q 409 1069 409 1090 z "},"á":{"ha":869,"x_min":-22,"x_max":890,"o":"m 890 58 l 553 15 l 513 168 l 358 168 l 324 15 l -22 49 l 248 952 l 625 971 l 890 58 m 488 376 l 437 612 l 387 376 l 488 376 m 806 1180 q 648 1091 725 1136 q 495 993 572 1046 l 408 1088 q 441 1124 422 1104 q 481 1165 460 1144 q 526 1207 503 1186 q 570 1249 549 1229 q 678 1343 622 1295 l 806 1180 z "},"à":{"ha":869,"x_min":-22,"x_max":890,"o":"m 890 58 l 553 15 l 513 168 l 358 168 l 324 15 l -22 49 l 248 952 l 625 971 l 890 58 m 488 376 l 437 612 l 387 376 l 488 376 m 378 978 q 229 1082 304 1034 q 76 1177 155 1131 l 210 1336 q 314 1237 264 1285 q 357 1194 335 1216 q 400 1149 379 1171 q 438 1106 420 1127 q 469 1069 456 1086 l 378 978 z "},"â":{"ha":869,"x_min":-22,"x_max":890,"o":"m 890 58 l 553 15 l 513 168 l 358 168 l 324 15 l -22 49 l 248 952 l 625 971 l 890 58 m 488 376 l 437 612 l 387 376 l 488 376 m 530 986 l 425 1124 l 342 993 l 193 1057 q 224 1106 205 1078 q 264 1164 243 1134 q 307 1224 286 1194 q 349 1280 329 1255 l 488 1282 l 674 1074 l 530 986 z "},"ä":{"ha":869,"x_min":-22,"x_max":890,"o":"m 890 58 l 553 15 l 513 168 l 358 168 l 324 15 l -22 49 l 248 952 l 625 971 l 890 58 m 488 376 l 437 612 l 387 376 l 488 376 m 673 1109 q 665 1070 673 1088 q 644 1039 657 1053 q 612 1018 630 1026 q 572 1010 593 1010 q 535 1018 553 1010 q 504 1039 517 1026 q 483 1070 490 1053 q 475 1109 475 1088 q 483 1148 475 1130 q 504 1179 490 1166 q 535 1201 517 1193 q 572 1208 553 1208 q 612 1201 593 1208 q 644 1179 630 1193 q 665 1148 657 1166 q 673 1109 673 1130 m 408 1095 q 400 1053 408 1072 q 377 1018 391 1033 q 342 995 362 1003 q 301 986 323 986 q 259 995 279 986 q 225 1018 239 1003 q 202 1053 211 1033 q 194 1095 194 1072 q 202 1135 194 1116 q 225 1168 211 1154 q 259 1192 239 1183 q 301 1200 279 1200 q 342 1192 323 1200 q 377 1168 362 1183 q 400 1135 391 1154 q 408 1095 408 1116 z "},"ã":{"ha":869,"x_min":-22,"x_max":890,"o":"m 890 58 l 553 15 l 513 168 l 358 168 l 324 15 l -22 49 l 248 952 l 625 971 l 890 58 m 488 376 l 437 612 l 387 376 l 488 376 m 705 1175 q 691 1101 705 1135 q 652 1042 677 1067 q 594 1003 627 1017 q 522 989 560 989 q 471 1000 492 989 q 436 1027 450 1010 q 411 1062 421 1043 q 391 1097 400 1081 q 373 1124 382 1114 q 353 1135 364 1135 q 340 1131 345 1135 q 331 1120 334 1126 q 327 1107 328 1114 q 326 1093 326 1099 q 331 1054 326 1073 q 343 1016 336 1034 l 178 1002 q 166 1060 170 1031 q 163 1116 163 1088 q 174 1194 163 1158 q 206 1256 184 1230 q 259 1298 227 1282 q 332 1313 290 1313 q 394 1301 370 1313 q 435 1273 418 1290 q 460 1236 451 1256 q 477 1198 469 1215 q 491 1170 484 1181 q 509 1158 498 1158 q 530 1171 522 1158 q 537 1195 537 1183 q 529 1235 537 1215 q 511 1270 521 1254 l 680 1297 q 698 1237 691 1267 q 705 1175 705 1206 z "},"å":{"ha":861,"x_min":-26,"x_max":885,"o":"m 634 1063 q 611 970 634 1014 l 621 971 l 885 58 l 549 15 l 508 168 l 353 168 l 319 15 l -26 49 l 243 952 l 257 952 q 232 1004 241 976 q 223 1063 223 1031 q 239 1141 223 1105 q 283 1203 256 1177 q 348 1246 311 1230 q 427 1261 385 1261 q 508 1246 470 1261 q 573 1203 545 1230 q 618 1141 602 1177 q 634 1063 634 1105 m 494 1059 q 490 1088 494 1074 q 478 1113 486 1102 q 460 1129 471 1123 q 437 1135 450 1135 q 414 1129 425 1135 q 395 1113 404 1123 q 382 1088 387 1102 q 378 1059 378 1074 q 382 1029 378 1043 q 395 1004 387 1015 q 414 988 404 994 q 437 982 425 982 q 478 1004 462 982 q 494 1059 494 1027 m 484 376 l 432 612 l 382 376 l 484 376 z "},"ç":{"ha":713,"x_min":11,"x_max":697,"o":"m 574 -198 q 561 -264 574 -237 q 526 -309 549 -292 q 473 -334 504 -326 q 407 -342 443 -342 q 378 -340 394 -342 q 345 -335 361 -338 q 313 -325 328 -331 q 286 -311 297 -319 l 346 -203 q 365 -210 354 -208 q 385 -213 376 -213 q 410 -206 397 -213 q 422 -184 422 -199 q 416 -168 422 -174 q 400 -157 410 -161 q 381 -152 391 -153 q 363 -151 371 -151 q 336 -152 350 -151 q 309 -157 323 -154 l 316 0 q 190 62 246 20 q 94 161 134 104 q 33 289 54 218 q 11 435 11 359 q 42 643 11 547 q 135 810 74 739 q 287 921 197 881 q 495 962 378 962 q 590 954 542 962 q 682 926 638 947 l 658 640 q 619 648 638 646 q 581 650 600 650 q 489 637 532 650 q 411 600 445 625 q 358 537 378 575 q 338 446 338 498 q 349 380 338 408 q 381 333 360 352 q 431 305 401 315 q 496 296 460 296 q 548 301 522 296 q 601 315 574 306 q 652 335 627 323 q 697 359 676 347 l 686 41 q 629 17 660 27 q 567 -2 599 6 q 502 -14 534 -9 q 441 -18 470 -18 l 434 -18 l 434 -64 q 490 -75 464 -65 q 534 -101 515 -84 q 563 -143 553 -119 q 574 -198 574 -168 z "},"é":{"ha":801,"x_min":12,"x_max":791,"o":"m 791 548 q 783 430 791 489 q 553 406 667 422 q 323 373 438 389 q 379 295 341 324 q 469 266 416 266 q 528 276 496 266 q 592 301 560 286 q 653 334 624 317 q 703 366 682 352 l 671 58 q 613 24 644 38 q 549 1 583 9 q 482 -12 516 -8 q 416 -16 448 -16 q 293 2 349 -16 q 192 53 237 20 q 113 131 147 86 q 57 229 79 176 q 23 340 35 281 q 12 460 12 399 q 23 586 12 523 q 58 707 35 649 q 117 815 81 766 q 200 903 153 865 q 308 961 248 940 q 440 982 368 982 q 550 965 500 982 q 639 919 600 949 q 707 849 678 890 q 754 760 736 808 q 782 657 773 711 q 791 548 791 604 m 520 583 q 516 622 520 602 q 503 659 512 642 q 479 685 494 675 q 441 696 464 696 q 394 681 414 696 q 358 645 373 667 q 334 597 343 623 q 319 549 324 571 l 520 568 l 520 583 m 764 1195 q 607 1106 684 1151 q 454 1008 530 1061 l 367 1103 q 399 1139 380 1119 q 440 1180 418 1159 q 484 1222 461 1201 q 529 1263 507 1244 q 637 1358 581 1310 l 764 1195 z "},"è":{"ha":801,"x_min":12,"x_max":791,"o":"m 791 548 q 783 430 791 489 q 553 406 667 422 q 323 373 438 389 q 379 295 341 324 q 469 266 416 266 q 528 276 496 266 q 592 301 560 286 q 653 334 624 317 q 703 366 682 352 l 671 58 q 613 24 644 38 q 549 1 583 9 q 482 -12 516 -8 q 416 -16 448 -16 q 293 2 349 -16 q 192 53 237 20 q 113 131 147 86 q 57 229 79 176 q 23 340 35 281 q 12 460 12 399 q 23 586 12 523 q 58 707 35 649 q 117 815 81 766 q 200 903 153 865 q 308 961 248 940 q 440 982 368 982 q 550 965 500 982 q 639 919 600 949 q 707 849 678 890 q 754 760 736 808 q 782 657 773 711 q 791 548 791 604 m 520 583 q 516 622 520 602 q 503 659 512 642 q 479 685 494 675 q 441 696 464 696 q 394 681 414 696 q 358 645 373 667 q 334 597 343 623 q 319 549 324 571 l 520 568 l 520 583 m 321 990 q 172 1095 246 1046 q 18 1190 97 1143 l 153 1348 q 256 1249 207 1297 q 299 1206 277 1228 q 342 1161 321 1183 q 381 1119 363 1139 q 412 1081 399 1098 l 321 990 z "},"ê":{"ha":801,"x_min":12,"x_max":791,"o":"m 791 548 q 783 430 791 489 q 553 406 667 422 q 323 373 438 389 q 379 295 341 324 q 469 266 416 266 q 528 276 496 266 q 592 301 560 286 q 653 334 624 317 q 703 366 682 352 l 671 58 q 613 24 644 38 q 549 1 583 9 q 482 -12 516 -8 q 416 -16 448 -16 q 293 2 349 -16 q 192 53 237 20 q 113 131 147 86 q 57 229 79 176 q 23 340 35 281 q 12 460 12 399 q 23 586 12 523 q 58 707 35 649 q 117 815 81 766 q 200 903 153 865 q 308 961 248 940 q 440 982 368 982 q 550 965 500 982 q 639 919 600 949 q 707 849 678 890 q 754 760 736 808 q 782 657 773 711 q 791 548 791 604 m 520 583 q 516 622 520 602 q 503 659 512 642 q 479 685 494 675 q 441 696 464 696 q 394 681 414 696 q 358 645 373 667 q 334 597 343 623 q 319 549 324 571 l 520 568 l 520 583 m 498 998 l 393 1137 l 310 1005 l 161 1069 q 193 1118 174 1090 q 233 1176 212 1146 q 275 1237 254 1206 q 317 1293 297 1267 l 456 1294 l 642 1086 l 498 998 z "},"ë":{"ha":801,"x_min":12,"x_max":791,"o":"m 791 548 q 783 430 791 489 q 553 406 667 422 q 323 373 438 389 q 379 295 341 324 q 469 266 416 266 q 528 276 496 266 q 592 301 560 286 q 653 334 624 317 q 703 366 682 352 l 671 58 q 613 24 644 38 q 549 1 583 9 q 482 -12 516 -8 q 416 -16 448 -16 q 293 2 349 -16 q 192 53 237 20 q 113 131 147 86 q 57 229 79 176 q 23 340 35 281 q 12 460 12 399 q 23 586 12 523 q 58 707 35 649 q 117 815 81 766 q 200 903 153 865 q 308 961 248 940 q 440 982 368 982 q 550 965 500 982 q 639 919 600 949 q 707 849 678 890 q 754 760 736 808 q 782 657 773 711 q 791 548 791 604 m 520 583 q 516 622 520 602 q 503 659 512 642 q 479 685 494 675 q 441 696 464 696 q 394 681 414 696 q 358 645 373 667 q 334 597 343 623 q 319 549 324 571 l 520 568 l 520 583 m 641 1112 q 633 1073 641 1091 q 612 1042 625 1055 q 580 1021 598 1029 q 541 1013 562 1013 q 503 1021 521 1013 q 472 1042 485 1029 q 451 1073 458 1055 q 443 1112 443 1091 q 451 1151 443 1133 q 472 1182 458 1168 q 503 1203 485 1196 q 541 1211 521 1211 q 580 1203 562 1211 q 612 1182 598 1196 q 633 1151 625 1168 q 641 1112 641 1133 m 376 1097 q 368 1055 376 1075 q 345 1021 359 1036 q 311 997 330 1006 q 269 989 291 989 q 227 997 247 989 q 193 1021 208 1006 q 171 1055 179 1036 q 162 1097 162 1075 q 171 1137 162 1118 q 193 1171 179 1156 q 227 1194 208 1185 q 269 1203 247 1203 q 311 1194 291 1203 q 345 1171 330 1185 q 368 1137 359 1156 q 376 1097 376 1118 z "},"í":{"ha":408,"x_min":28,"x_max":546,"o":"m 389 955 l 341 31 l 55 16 l 28 936 l 389 955 m 546 1161 q 389 1072 465 1117 q 235 974 312 1027 l 149 1069 q 181 1105 162 1085 q 221 1146 200 1125 q 266 1188 243 1167 q 311 1230 289 1210 q 418 1324 362 1276 l 546 1161 z "},"ì":{"ha":408,"x_min":-155,"x_max":389,"o":"m 389 955 l 341 31 l 55 16 l 28 936 l 389 955 m 147 967 q -2 1072 73 1023 q -155 1166 -77 1120 l -21 1325 q 83 1226 33 1274 q 126 1183 104 1205 q 169 1138 148 1160 q 207 1096 189 1116 q 238 1058 225 1075 l 147 967 z "},"î":{"ha":408,"x_min":-32,"x_max":450,"o":"m 389 955 l 341 31 l 55 16 l 28 936 l 389 955 m 306 978 l 200 1116 l 117 985 l -32 1048 q 0 1098 -19 1069 q 40 1156 19 1126 q 83 1216 61 1186 q 124 1272 104 1246 l 264 1274 l 450 1066 l 306 978 z "},"ï":{"ha":408,"x_min":-31,"x_max":448,"o":"m 389 955 l 341 31 l 55 16 l 28 936 l 389 955 m 448 1105 q 440 1066 448 1084 q 419 1035 433 1048 q 387 1014 406 1022 q 348 1006 369 1006 q 310 1014 328 1006 q 279 1035 292 1022 q 258 1066 266 1048 q 250 1105 250 1084 q 258 1144 250 1126 q 279 1175 266 1162 q 310 1197 292 1189 q 348 1204 328 1204 q 387 1197 369 1204 q 419 1175 406 1189 q 440 1144 433 1162 q 448 1105 448 1126 m 184 1090 q 175 1048 184 1068 q 152 1014 167 1029 q 118 990 138 999 q 77 982 98 982 q 35 990 54 982 q 1 1014 15 999 q -22 1048 -14 1029 q -31 1090 -31 1068 q -22 1131 -31 1112 q 1 1164 -14 1149 q 35 1187 15 1179 q 77 1196 54 1196 q 118 1187 98 1196 q 152 1164 138 1179 q 175 1131 167 1149 q 184 1090 184 1112 z "},"ñ":{"ha":905,"x_min":19,"x_max":876,"o":"m 876 343 q 874 192 876 267 q 869 41 873 117 l 479 47 q 514 287 499 168 q 529 529 529 407 q 528 557 529 538 q 526 602 528 577 q 520 653 524 627 q 510 701 516 679 q 494 736 503 722 q 472 750 485 750 q 433 736 449 750 q 407 702 417 723 q 390 654 396 680 q 381 601 384 627 q 377 551 378 574 q 376 513 376 528 q 370 274 372 393 q 365 35 368 156 l 19 20 q 45 496 33 260 q 65 972 58 733 l 385 989 l 382 880 q 424 924 401 903 q 471 959 446 944 q 524 982 496 973 q 583 990 552 990 q 684 971 641 990 q 759 920 728 952 q 811 843 790 887 q 845 748 832 798 q 865 643 858 698 q 874 536 871 589 q 876 433 876 483 q 876 343 876 384 m 719 1198 q 705 1124 719 1158 q 666 1065 690 1090 q 607 1026 641 1040 q 536 1012 574 1012 q 485 1023 506 1012 q 449 1050 464 1034 q 424 1085 435 1066 q 405 1120 414 1104 q 387 1147 396 1137 q 366 1158 378 1158 q 353 1154 359 1158 q 345 1143 348 1149 q 340 1130 342 1137 q 339 1116 339 1122 q 344 1077 339 1096 q 357 1039 349 1057 l 191 1025 q 180 1083 183 1054 q 176 1139 176 1112 q 187 1217 176 1181 q 219 1279 198 1253 q 272 1321 241 1305 q 346 1336 304 1336 q 408 1324 383 1336 q 448 1296 432 1313 q 474 1259 465 1279 q 490 1221 483 1238 q 505 1193 498 1204 q 522 1181 511 1181 q 543 1194 536 1181 q 551 1218 551 1206 q 543 1258 551 1238 q 525 1293 534 1277 l 693 1320 q 712 1260 705 1290 q 719 1198 719 1230 z "},"ó":{"ha":886,"x_min":12,"x_max":873,"o":"m 873 519 q 859 400 873 458 q 818 293 844 343 q 752 201 791 243 q 666 130 714 159 q 562 83 618 100 q 443 66 506 66 q 327 82 382 66 q 223 126 271 98 q 136 194 175 154 q 70 282 97 233 q 27 386 42 330 q 12 502 12 441 q 26 617 12 561 q 67 724 40 674 q 132 817 94 774 q 217 889 170 859 q 319 937 264 920 q 435 954 374 954 q 614 923 533 954 q 752 836 695 892 q 841 699 810 779 q 873 519 873 618 m 572 502 q 563 558 572 531 q 538 607 555 586 q 498 642 522 629 q 443 655 474 655 q 386 644 411 655 q 343 612 361 632 q 315 565 325 592 q 306 509 306 538 q 314 452 306 480 q 338 400 322 423 q 379 363 355 377 q 435 349 403 349 q 492 361 467 349 q 535 395 517 374 q 562 444 553 416 q 572 502 572 472 m 817 1171 q 660 1081 736 1126 q 507 983 583 1036 l 420 1078 q 452 1115 433 1095 q 493 1156 471 1135 q 537 1198 514 1177 q 582 1239 560 1219 q 690 1333 633 1286 l 817 1171 z "},"ò":{"ha":886,"x_min":12,"x_max":873,"o":"m 873 519 q 859 400 873 458 q 818 293 844 343 q 752 201 791 243 q 666 130 714 159 q 562 83 618 100 q 443 66 506 66 q 327 82 382 66 q 223 126 271 98 q 136 194 175 154 q 70 282 97 233 q 27 386 42 330 q 12 502 12 441 q 26 617 12 561 q 67 724 40 674 q 132 817 94 774 q 217 889 170 859 q 319 937 264 920 q 435 954 374 954 q 614 923 533 954 q 752 836 695 892 q 841 699 810 779 q 873 519 873 618 m 572 502 q 563 558 572 531 q 538 607 555 586 q 498 642 522 629 q 443 655 474 655 q 386 644 411 655 q 343 612 361 632 q 315 565 325 592 q 306 509 306 538 q 314 452 306 480 q 338 400 322 423 q 379 363 355 377 q 435 349 403 349 q 492 361 467 349 q 535 395 517 374 q 562 444 553 416 q 572 502 572 472 m 342 970 q 193 1074 268 1026 q 40 1169 119 1122 l 174 1328 q 278 1229 229 1277 q 321 1185 299 1208 q 364 1141 343 1163 q 402 1098 385 1119 q 433 1061 420 1078 l 342 970 z "},"ô":{"ha":886,"x_min":12,"x_max":873,"o":"m 873 519 q 859 400 873 458 q 818 293 844 343 q 752 201 791 243 q 666 130 714 159 q 562 83 618 100 q 443 66 506 66 q 327 82 382 66 q 223 126 271 98 q 136 194 175 154 q 70 282 97 233 q 27 386 42 330 q 12 502 12 441 q 26 617 12 561 q 67 724 40 674 q 132 817 94 774 q 217 889 170 859 q 319 937 264 920 q 435 954 374 954 q 614 923 533 954 q 752 836 695 892 q 841 699 810 779 q 873 519 873 618 m 572 502 q 563 558 572 531 q 538 607 555 586 q 498 642 522 629 q 443 655 474 655 q 386 644 411 655 q 343 612 361 632 q 315 565 325 592 q 306 509 306 538 q 314 452 306 480 q 338 400 322 423 q 379 363 355 377 q 435 349 403 349 q 492 361 467 349 q 535 395 517 374 q 562 444 553 416 q 572 502 572 472 m 539 974 l 433 1112 l 351 981 l 201 1044 q 233 1094 214 1065 q 273 1152 252 1122 q 316 1212 294 1182 q 357 1268 338 1242 l 497 1270 l 683 1062 l 539 974 z "},"ö":{"ha":886,"x_min":12,"x_max":873,"o":"m 873 519 q 859 400 873 458 q 818 293 844 343 q 752 201 791 243 q 666 130 714 159 q 562 83 618 100 q 443 66 506 66 q 327 82 382 66 q 223 126 271 98 q 136 194 175 154 q 70 282 97 233 q 27 386 42 330 q 12 502 12 441 q 26 617 12 561 q 67 724 40 674 q 132 817 94 774 q 217 889 170 859 q 319 937 264 920 q 435 954 374 954 q 614 923 533 954 q 752 836 695 892 q 841 699 810 779 q 873 519 873 618 m 572 502 q 563 558 572 531 q 538 607 555 586 q 498 642 522 629 q 443 655 474 655 q 386 644 411 655 q 343 612 361 632 q 315 565 325 592 q 306 509 306 538 q 314 452 306 480 q 338 400 322 423 q 379 363 355 377 q 435 349 403 349 q 492 361 467 349 q 535 395 517 374 q 562 444 553 416 q 572 502 572 472 m 660 1096 q 652 1057 660 1075 q 631 1026 644 1039 q 599 1005 617 1013 q 559 997 581 997 q 522 1005 540 997 q 491 1026 504 1013 q 470 1057 477 1039 q 462 1096 462 1075 q 470 1134 462 1116 q 491 1166 477 1152 q 522 1187 504 1179 q 559 1195 540 1195 q 599 1187 581 1195 q 631 1166 617 1179 q 652 1134 644 1152 q 660 1096 660 1116 m 395 1081 q 387 1039 395 1059 q 364 1004 378 1019 q 330 981 349 989 q 288 972 310 972 q 246 981 266 972 q 212 1004 227 989 q 190 1039 198 1019 q 181 1081 181 1059 q 190 1121 181 1102 q 212 1155 198 1140 q 246 1178 227 1169 q 288 1187 266 1187 q 330 1178 310 1187 q 364 1155 349 1169 q 387 1121 378 1140 q 395 1081 395 1102 z "},"õ":{"ha":886,"x_min":12,"x_max":873,"o":"m 873 519 q 859 400 873 458 q 818 293 844 343 q 752 201 791 243 q 666 130 714 159 q 562 83 618 100 q 443 66 506 66 q 327 82 382 66 q 223 126 271 98 q 136 194 175 154 q 70 282 97 233 q 27 386 42 330 q 12 502 12 441 q 26 617 12 561 q 67 724 40 674 q 132 817 94 774 q 217 889 170 859 q 319 937 264 920 q 435 954 374 954 q 614 923 533 954 q 752 836 695 892 q 841 699 810 779 q 873 519 873 618 m 572 502 q 563 558 572 531 q 538 607 555 586 q 498 642 522 629 q 443 655 474 655 q 386 644 411 655 q 343 612 361 632 q 315 565 325 592 q 306 509 306 538 q 314 452 306 480 q 338 400 322 423 q 379 363 355 377 q 435 349 403 349 q 492 361 467 349 q 535 395 517 374 q 562 444 553 416 q 572 502 572 472 m 713 1162 q 699 1089 713 1123 q 660 1030 684 1055 q 601 991 635 1005 q 530 977 568 977 q 479 987 500 977 q 443 1015 458 998 q 418 1050 429 1031 q 399 1085 408 1069 q 381 1112 390 1101 q 360 1123 372 1123 q 347 1119 353 1123 q 339 1108 342 1114 q 334 1095 336 1102 q 333 1081 333 1087 q 338 1041 333 1061 q 351 1004 343 1022 l 185 990 q 174 1047 177 1019 q 170 1104 170 1076 q 181 1181 170 1145 q 213 1244 192 1217 q 266 1285 235 1270 q 340 1301 298 1301 q 401 1289 377 1301 q 442 1261 426 1278 q 468 1223 458 1244 q 484 1186 477 1203 q 498 1158 492 1169 q 516 1146 505 1146 q 537 1158 530 1146 q 545 1183 545 1171 q 536 1222 545 1203 q 519 1257 528 1242 l 687 1284 q 706 1224 699 1255 q 713 1162 713 1194 z "},"ú":{"ha":849,"x_min":24,"x_max":843,"o":"m 843 955 q 791 480 812 716 q 749 4 769 243 l 471 -16 l 484 88 q 452 61 470 73 q 414 42 434 50 q 372 32 393 35 q 330 30 350 29 q 243 48 284 31 q 169 94 203 65 q 108 161 135 123 q 62 242 81 199 q 34 328 43 284 q 24 414 24 372 q 26 540 24 475 q 35 671 28 606 q 51 802 41 737 q 75 925 60 866 q 241 918 158 921 q 408 916 325 914 q 377 797 392 857 q 349 678 361 738 q 330 557 337 618 q 322 435 322 497 q 323 395 322 421 q 331 342 325 368 q 348 297 336 317 q 382 278 360 278 q 428 300 408 278 q 464 359 448 322 q 491 446 479 397 q 510 548 502 494 q 522 655 517 601 q 529 757 527 709 q 533 843 532 805 q 534 902 534 881 q 533 928 534 916 q 531 955 532 941 q 618 953 575 954 q 706 952 662 952 q 774 952 740 952 q 843 955 808 953 m 790 1142 q 633 1053 709 1098 q 479 955 556 1008 l 393 1050 q 425 1086 406 1066 q 466 1127 444 1106 q 510 1170 487 1148 q 555 1211 533 1191 q 663 1305 606 1257 l 790 1142 z "},"ù":{"ha":849,"x_min":24,"x_max":843,"o":"m 843 955 q 791 480 812 716 q 749 4 769 243 l 471 -16 l 484 88 q 452 61 470 73 q 414 42 434 50 q 372 32 393 35 q 330 30 350 29 q 243 48 284 31 q 169 94 203 65 q 108 161 135 123 q 62 242 81 199 q 34 328 43 284 q 24 414 24 372 q 26 540 24 475 q 35 671 28 606 q 51 802 41 737 q 75 925 60 866 q 241 918 158 921 q 408 916 325 914 q 377 797 392 857 q 349 678 361 738 q 330 557 337 618 q 322 435 322 497 q 323 395 322 421 q 331 342 325 368 q 348 297 336 317 q 382 278 360 278 q 428 300 408 278 q 464 359 448 322 q 491 446 479 397 q 510 548 502 494 q 522 655 517 601 q 529 757 527 709 q 533 843 532 805 q 534 902 534 881 q 533 928 534 916 q 531 955 532 941 q 618 953 575 954 q 706 952 662 952 q 774 952 740 952 q 843 955 808 953 m 444 929 q 295 1034 370 985 q 142 1128 220 1082 l 276 1287 q 380 1188 330 1236 q 423 1145 401 1167 q 466 1100 445 1122 q 504 1058 486 1078 q 535 1020 522 1037 l 444 929 z "},"û":{"ha":849,"x_min":24,"x_max":843,"o":"m 843 955 q 791 480 812 716 q 749 4 769 243 l 471 -16 l 484 88 q 452 61 470 73 q 414 42 434 50 q 372 32 393 35 q 330 30 350 29 q 243 48 284 31 q 169 94 203 65 q 108 161 135 123 q 62 242 81 199 q 34 328 43 284 q 24 414 24 372 q 26 540 24 475 q 35 671 28 606 q 51 802 41 737 q 75 925 60 866 q 241 918 158 921 q 408 916 325 914 q 377 797 392 857 q 349 678 361 738 q 330 557 337 618 q 322 435 322 497 q 323 395 322 421 q 331 342 325 368 q 348 297 336 317 q 382 278 360 278 q 428 300 408 278 q 464 359 448 322 q 491 446 479 397 q 510 548 502 494 q 522 655 517 601 q 529 757 527 709 q 533 843 532 805 q 534 902 534 881 q 533 928 534 916 q 531 955 532 941 q 618 953 575 954 q 706 952 662 952 q 774 952 740 952 q 843 955 808 953 m 530 977 l 424 1115 l 341 983 l 192 1047 q 224 1096 205 1068 q 264 1155 243 1124 q 307 1215 285 1185 q 348 1271 328 1245 l 488 1272 l 673 1065 l 530 977 z "},"ü":{"ha":849,"x_min":24,"x_max":843,"o":"m 843 955 q 791 480 812 716 q 749 4 769 243 l 471 -16 l 484 88 q 452 61 470 73 q 414 42 434 50 q 372 32 393 35 q 330 30 350 29 q 243 48 284 31 q 169 94 203 65 q 108 161 135 123 q 62 242 81 199 q 34 328 43 284 q 24 414 24 372 q 26 540 24 475 q 35 671 28 606 q 51 802 41 737 q 75 925 60 866 q 241 918 158 921 q 408 916 325 914 q 377 797 392 857 q 349 678 361 738 q 330 557 337 618 q 322 435 322 497 q 323 395 322 421 q 331 342 325 368 q 348 297 336 317 q 382 278 360 278 q 428 300 408 278 q 464 359 448 322 q 491 446 479 397 q 510 548 502 494 q 522 655 517 601 q 529 757 527 709 q 533 843 532 805 q 534 902 534 881 q 533 928 534 916 q 531 955 532 941 q 618 953 575 954 q 706 952 662 952 q 774 952 740 952 q 843 955 808 953 m 672 1092 q 664 1053 672 1071 q 643 1022 656 1035 q 611 1001 629 1008 q 572 993 593 993 q 534 1001 552 993 q 503 1022 516 1008 q 482 1053 490 1035 q 474 1092 474 1071 q 482 1130 474 1112 q 503 1162 490 1148 q 534 1183 516 1175 q 572 1191 552 1191 q 611 1183 593 1191 q 643 1162 629 1175 q 664 1130 656 1148 q 672 1092 672 1112 m 408 1077 q 399 1035 408 1055 q 376 1000 391 1015 q 342 977 361 985 q 300 968 322 968 q 258 977 278 968 q 224 1000 239 985 q 202 1035 210 1015 q 193 1077 193 1055 q 202 1117 193 1098 q 224 1151 210 1136 q 258 1174 239 1165 q 300 1183 278 1183 q 342 1174 322 1183 q 376 1151 361 1165 q 399 1117 391 1136 q 408 1077 408 1098 z "},"ȷ":{"ha":708,"x_min":-9,"x_max":682,"o":"m 682 559 q 682 479 682 519 q 678 400 682 440 q 642 240 671 315 q 563 107 612 164 q 441 17 513 50 q 278 -16 370 -16 q 203 -10 242 -16 q 126 8 164 -4 q 53 38 87 20 q -9 80 18 56 l 33 361 q 121 298 73 322 q 228 274 170 274 q 291 285 265 274 q 334 315 317 296 q 360 359 351 334 q 375 413 370 385 q 380 473 379 442 q 381 533 381 503 q 370 748 381 641 q 351 962 359 854 l 662 982 q 682 559 682 770 z "},"¤":{"ha":594,"x_min":17,"x_max":577,"o":"m 349 481 q 345 510 349 496 q 333 534 340 524 q 315 551 326 545 q 292 557 304 557 q 269 551 280 557 q 250 534 258 545 q 237 510 242 524 q 233 481 233 496 q 237 450 233 465 q 250 426 242 436 q 269 410 258 416 q 292 404 280 404 q 333 426 317 404 q 349 481 349 448 m 17 361 l 85 430 q 78 485 78 458 q 80 515 78 500 q 87 543 83 530 l 24 609 l 166 755 l 246 680 q 263 682 255 681 q 281 683 272 683 q 306 682 294 683 q 329 677 317 680 l 404 751 l 568 618 l 483 532 q 489 485 489 509 q 487 457 489 471 l 577 373 l 414 208 l 334 290 q 286 284 309 284 q 265 285 275 284 q 245 288 255 286 l 168 208 l 17 361 z "},"­":{"ha":531,"x_min":44,"x_max":485,"o":"m 47 374 l 44 578 l 482 598 l 485 366 l 47 374 z "},"̒":{"ha":211,"x_min":6,"x_max":206,"o":"m 7 777 q 16 826 7 799 q 43 879 26 852 q 84 929 60 905 q 138 968 108 952 q 139 931 138 949 q 140 898 140 916 q 142 867 141 880 q 189 830 172 856 q 206 773 206 804 q 198 735 206 753 q 177 703 191 717 q 145 682 163 690 q 106 673 127 673 q 68 682 86 673 q 36 703 50 690 q 14 735 22 717 q 7 773 6 753 l 7 777 z "},"̕":{"ha":209,"x_min":5,"x_max":204,"o":"m 204 870 q 195 821 204 848 q 168 768 185 794 q 127 718 151 741 q 73 679 103 694 q 73 690 73 679 q 72 716 73 701 q 70 749 71 731 q 68 780 69 766 q 22 817 39 791 q 5 873 5 842 q 13 912 5 894 q 34 943 20 930 q 66 965 47 957 q 104 973 84 973 q 143 965 125 973 q 175 943 161 957 q 196 912 189 930 q 204 873 204 894 l 204 870 z "},"̦":{"ha":219,"x_min":9,"x_max":209,"o":"m 209 -163 q 199 -213 209 -186 q 173 -266 190 -239 q 132 -316 156 -292 q 78 -355 108 -339 q 78 -344 78 -355 q 77 -318 77 -333 q 75 -285 76 -302 q 73 -254 74 -267 q 26 -217 43 -243 q 9 -160 9 -191 q 17 -122 9 -140 q 39 -90 25 -104 q 71 -68 52 -77 q 109 -60 89 -60 q 148 -68 130 -60 q 180 -90 166 -77 q 201 -122 193 -104 q 209 -160 209 -140 l 209 -163 z "},"Ǽ":{"ha":1166,"x_min":-34,"x_max":1177,"o":"m 556 376 l 563 612 l 454 376 l 556 376 m 1177 978 q 1170 852 1173 914 q 1161 726 1166 789 l 873 711 l 867 625 l 1069 625 l 1054 415 l 850 408 l 844 309 l 1131 309 q 1123 161 1127 235 q 1115 14 1118 87 l 530 0 l 536 168 l 370 168 l 302 15 l -34 49 l 460 952 l 1177 978 m 1034 1177 q 876 1088 953 1133 q 723 990 800 1043 l 636 1085 q 669 1121 650 1101 q 709 1162 688 1141 q 753 1205 730 1183 q 798 1246 777 1226 q 906 1340 850 1293 l 1034 1177 z "},"ǽ":{"ha":1275,"x_min":-22,"x_max":1265,"o":"m 1265 548 q 1257 430 1265 489 q 1027 406 1141 422 q 799 373 913 389 l 803 358 q 858 291 821 315 q 943 266 895 266 q 1002 276 970 266 q 1066 301 1034 286 q 1127 334 1098 317 q 1177 366 1156 352 l 1145 58 q 1087 24 1118 38 q 1023 1 1057 9 q 956 -12 990 -8 q 890 -16 922 -16 q 757 0 819 -16 q 646 42 694 16 q 564 101 597 68 q 522 168 532 134 l 361 168 l 324 15 l -22 49 l 248 952 l 625 971 l 651 883 q 766 956 701 929 q 914 982 831 982 q 1024 965 975 982 q 1113 919 1074 949 q 1181 849 1152 890 q 1229 760 1210 808 q 1256 657 1247 711 q 1265 548 1265 604 m 994 583 q 990 622 994 602 q 977 659 986 642 q 953 685 968 675 q 916 696 938 696 q 868 681 888 696 q 832 645 847 667 q 808 597 817 623 q 793 549 798 571 l 994 568 l 994 583 m 488 376 l 437 612 l 387 376 l 488 376 m 997 1164 q 840 1075 916 1120 q 686 977 763 1029 l 600 1072 q 632 1108 613 1088 q 672 1149 651 1128 q 717 1191 694 1170 q 762 1232 740 1213 q 869 1326 813 1279 l 997 1164 z "},"Ā":{"ha":869,"x_min":-22,"x_max":890,"o":"m 890 58 l 553 15 l 513 168 l 358 168 l 324 15 l -22 49 l 248 952 l 625 971 l 890 58 m 488 376 l 437 612 l 387 376 l 488 376 m 654 1015 l 225 1020 l 213 1181 l 656 1190 l 654 1015 z "},"ā":{"ha":869,"x_min":-22,"x_max":890,"o":"m 890 58 l 553 15 l 513 168 l 358 168 l 324 15 l -22 49 l 248 952 l 625 971 l 890 58 m 488 376 l 437 612 l 387 376 l 488 376 m 654 1012 l 225 1017 l 213 1179 l 656 1187 l 654 1012 z "},"Ă":{"ha":869,"x_min":-22,"x_max":890,"o":"m 890 58 l 553 15 l 513 168 l 358 168 l 324 15 l -22 49 l 248 952 l 625 971 l 890 58 m 488 376 l 437 612 l 387 376 l 488 376 m 636 1198 q 620 1117 636 1154 q 577 1053 604 1080 q 512 1011 549 1026 q 433 996 475 996 q 347 1010 384 996 q 284 1053 309 1025 q 246 1120 259 1080 q 233 1208 233 1159 q 233 1224 233 1216 q 235 1240 233 1232 l 392 1219 q 393 1195 391 1208 q 399 1168 394 1181 q 413 1147 404 1156 q 438 1138 422 1138 q 454 1143 448 1138 q 465 1156 460 1148 q 470 1174 469 1164 q 472 1191 472 1183 q 468 1228 472 1211 q 457 1264 463 1246 l 621 1294 q 632 1247 627 1272 q 636 1198 636 1222 z "},"ă":{"ha":869,"x_min":-22,"x_max":890,"o":"m 890 58 l 553 15 l 513 168 l 358 168 l 324 15 l -22 49 l 248 952 l 625 971 l 890 58 m 488 376 l 437 612 l 387 376 l 488 376 m 636 1195 q 620 1115 636 1152 q 577 1050 604 1078 q 512 1008 549 1023 q 433 993 475 993 q 347 1008 384 993 q 284 1050 309 1023 q 246 1117 259 1078 q 233 1206 233 1156 q 233 1221 233 1213 q 235 1237 233 1230 l 392 1217 q 393 1192 391 1206 q 399 1165 394 1178 q 413 1144 404 1153 q 438 1135 422 1135 q 454 1140 448 1135 q 465 1154 460 1145 q 470 1171 469 1162 q 472 1188 472 1180 q 468 1225 472 1208 q 457 1261 463 1243 l 621 1291 q 632 1244 627 1269 q 636 1195 636 1219 z "},"Ą":{"ha":869,"x_min":-22,"x_max":890,"o":"m 874 -159 q 807 -209 844 -188 q 728 -230 770 -230 q 669 -219 696 -230 q 621 -190 642 -209 q 588 -145 600 -172 q 576 -87 576 -119 q 587 -29 576 -56 q 617 23 599 -1 l 553 15 l 513 168 l 358 168 l 324 15 l -22 49 l 248 952 l 625 971 l 890 58 l 787 45 q 765 16 777 31 q 744 -15 753 0 q 729 -43 735 -30 q 724 -67 724 -57 q 732 -87 724 -79 q 753 -96 741 -96 q 783 -85 767 -96 q 808 -63 800 -75 l 874 -159 m 488 376 l 437 612 l 387 376 l 488 376 z "},"ą":{"ha":869,"x_min":-22,"x_max":890,"o":"m 871 -163 q 804 -213 841 -192 q 724 -234 766 -234 q 666 -223 693 -234 q 617 -194 638 -213 q 585 -150 597 -176 q 572 -92 572 -123 q 585 -31 572 -59 q 616 23 597 -2 l 553 15 l 513 168 l 358 168 l 324 15 l -22 49 l 248 952 l 625 971 l 890 58 l 787 45 q 765 15 777 31 q 743 -17 753 -1 q 727 -47 733 -33 q 720 -71 720 -61 q 729 -92 720 -83 q 750 -100 738 -100 q 780 -89 764 -100 q 804 -67 796 -79 l 871 -163 m 488 376 l 437 612 l 387 376 l 488 376 z "},"Ć":{"ha":715,"x_min":9,"x_max":707,"o":"m 707 954 l 669 667 q 629 675 649 673 q 590 677 610 677 q 494 664 540 677 q 414 623 449 650 q 358 555 379 596 q 338 460 338 515 q 349 399 338 425 q 380 356 360 373 q 429 331 401 339 q 490 323 456 323 q 542 328 515 323 q 595 342 569 334 q 647 363 622 351 q 693 387 672 374 l 666 68 q 609 44 640 54 q 545 25 578 33 q 480 14 513 18 q 418 9 448 9 q 257 41 332 9 q 127 129 182 73 q 41 260 73 184 q 9 423 9 336 q 43 642 9 539 q 140 822 76 745 q 300 944 205 899 q 519 989 395 989 q 615 981 566 989 q 707 954 665 974 m 670 1190 q 513 1100 589 1145 q 359 1002 436 1055 l 273 1097 q 305 1134 286 1114 q 346 1175 324 1154 q 390 1217 367 1196 q 435 1258 413 1238 q 543 1352 486 1305 l 670 1190 z "},"ć":{"ha":712,"x_min":10,"x_max":696,"o":"m 682 926 l 657 640 q 618 648 637 646 q 580 650 600 650 q 488 637 532 650 q 411 600 444 625 q 357 537 377 575 q 337 446 337 498 q 348 380 337 408 q 380 333 359 352 q 430 305 401 315 q 496 296 460 296 q 547 301 521 296 q 600 315 574 306 q 651 335 627 323 q 696 359 675 347 l 686 41 q 629 17 659 27 q 566 -2 598 6 q 502 -14 534 -9 q 440 -18 469 -18 q 265 18 344 -18 q 129 116 186 54 q 41 260 73 178 q 10 435 10 342 q 42 643 10 547 q 135 810 73 739 q 287 921 196 881 q 494 962 377 962 q 589 954 541 962 q 682 926 637 947 m 670 1169 q 513 1080 589 1125 q 359 982 436 1035 l 273 1077 q 305 1113 286 1093 q 346 1154 324 1133 q 390 1197 367 1175 q 435 1238 413 1218 q 543 1332 486 1284 l 670 1169 z "},"Ĉ":{"ha":715,"x_min":9,"x_max":707,"o":"m 707 954 l 669 667 q 629 675 649 673 q 590 677 610 677 q 494 664 540 677 q 414 623 449 650 q 358 555 379 596 q 338 460 338 515 q 349 399 338 425 q 380 356 360 373 q 429 331 401 339 q 490 323 456 323 q 542 328 515 323 q 595 342 569 334 q 647 363 622 351 q 693 387 672 374 l 666 68 q 609 44 640 54 q 545 25 578 33 q 480 14 513 18 q 418 9 448 9 q 257 41 332 9 q 127 129 182 73 q 41 260 73 184 q 9 423 9 336 q 43 642 9 539 q 140 822 76 745 q 300 944 205 899 q 519 989 395 989 q 615 981 566 989 q 707 954 665 974 m 457 1006 l 351 1144 l 269 1013 l 119 1076 q 151 1125 132 1097 q 191 1184 170 1154 q 234 1244 212 1214 q 275 1300 256 1274 l 415 1301 l 601 1094 l 457 1006 z "},"ĉ":{"ha":712,"x_min":10,"x_max":696,"o":"m 682 926 l 657 640 q 618 648 637 646 q 580 650 600 650 q 488 637 532 650 q 411 600 444 625 q 357 537 377 575 q 337 446 337 498 q 348 380 337 408 q 380 333 359 352 q 430 305 401 315 q 496 296 460 296 q 547 301 521 296 q 600 315 574 306 q 651 335 627 323 q 696 359 675 347 l 686 41 q 629 17 659 27 q 566 -2 598 6 q 502 -14 534 -9 q 440 -18 469 -18 q 265 18 344 -18 q 129 116 186 54 q 41 260 73 178 q 10 435 10 342 q 42 643 10 547 q 135 810 73 739 q 287 921 196 881 q 494 962 377 962 q 589 954 541 962 q 682 926 637 947 m 457 985 l 351 1124 l 269 992 l 119 1056 q 151 1105 132 1077 q 191 1163 170 1133 q 234 1224 212 1194 q 275 1280 256 1254 l 415 1281 l 601 1074 l 457 985 z "},"Ċ":{"ha":715,"x_min":9,"x_max":707,"o":"m 707 954 l 669 667 q 629 675 649 673 q 590 677 610 677 q 494 664 540 677 q 414 623 449 650 q 358 555 379 596 q 338 460 338 515 q 349 399 338 425 q 380 356 360 373 q 429 331 401 339 q 490 323 456 323 q 542 328 515 323 q 595 342 569 334 q 647 363 622 351 q 693 387 672 374 l 666 68 q 609 44 640 54 q 545 25 578 33 q 480 14 513 18 q 418 9 448 9 q 257 41 332 9 q 127 129 182 73 q 41 260 73 184 q 9 423 9 336 q 43 642 9 539 q 140 822 76 745 q 300 944 205 899 q 519 989 395 989 q 615 981 566 989 q 707 954 665 974 m 493 1137 q 483 1086 493 1109 q 454 1044 472 1062 q 411 1016 435 1026 q 359 1006 387 1006 q 304 1016 329 1006 q 260 1044 279 1026 q 232 1086 242 1062 q 222 1137 222 1109 q 232 1189 222 1164 q 260 1231 242 1213 q 302 1260 278 1249 q 355 1270 327 1270 q 409 1260 384 1270 q 453 1231 435 1249 q 483 1189 472 1213 q 493 1137 493 1164 z "},"ċ":{"ha":712,"x_min":10,"x_max":696,"o":"m 682 926 l 657 640 q 618 648 637 646 q 580 650 600 650 q 488 637 532 650 q 411 600 444 625 q 357 537 377 575 q 337 446 337 498 q 348 380 337 408 q 380 333 359 352 q 430 305 401 315 q 496 296 460 296 q 547 301 521 296 q 600 315 574 306 q 651 335 627 323 q 696 359 675 347 l 686 41 q 629 17 659 27 q 566 -2 598 6 q 502 -14 534 -9 q 440 -18 469 -18 q 265 18 344 -18 q 129 116 186 54 q 41 260 73 178 q 10 435 10 342 q 42 643 10 547 q 135 810 73 739 q 287 921 196 881 q 494 962 377 962 q 589 954 541 962 q 682 926 637 947 m 493 1110 q 483 1059 493 1082 q 454 1017 472 1035 q 411 989 435 999 q 359 979 387 979 q 304 989 329 979 q 260 1017 279 999 q 232 1059 242 1035 q 222 1110 222 1082 q 232 1162 222 1137 q 260 1204 242 1186 q 302 1233 278 1222 q 355 1243 327 1243 q 409 1233 384 1243 q 453 1204 435 1222 q 483 1162 472 1186 q 493 1110 493 1137 z "},"Č":{"ha":715,"x_min":9,"x_max":707,"o":"m 707 954 l 669 667 q 629 675 649 673 q 590 677 610 677 q 494 664 540 677 q 414 623 449 650 q 358 555 379 596 q 338 460 338 515 q 349 399 338 425 q 380 356 360 373 q 429 331 401 339 q 490 323 456 323 q 542 328 515 323 q 595 342 569 334 q 647 363 622 351 q 693 387 672 374 l 666 68 q 609 44 640 54 q 545 25 578 33 q 480 14 513 18 q 418 9 448 9 q 257 41 332 9 q 127 129 182 73 q 41 260 73 184 q 9 423 9 336 q 43 642 9 539 q 140 822 76 745 q 300 944 205 899 q 519 989 395 989 q 615 981 566 989 q 707 954 665 974 m 598 1238 q 567 1191 585 1217 q 528 1135 549 1164 q 487 1076 508 1105 q 446 1021 465 1046 l 313 1002 l 117 1218 l 260 1309 l 366 1171 l 449 1303 l 598 1238 z "},"č":{"ha":712,"x_min":10,"x_max":696,"o":"m 682 926 l 657 640 q 618 648 637 646 q 580 650 600 650 q 488 637 532 650 q 411 600 444 625 q 357 537 377 575 q 337 446 337 498 q 348 380 337 408 q 380 333 359 352 q 430 305 401 315 q 496 296 460 296 q 547 301 521 296 q 600 315 574 306 q 651 335 627 323 q 696 359 675 347 l 686 41 q 629 17 659 27 q 566 -2 598 6 q 502 -14 534 -9 q 440 -18 469 -18 q 265 18 344 -18 q 129 116 186 54 q 41 260 73 178 q 10 435 10 342 q 42 643 10 547 q 135 810 73 739 q 287 921 196 881 q 494 962 377 962 q 589 954 541 962 q 682 926 637 947 m 597 1216 q 566 1168 584 1195 q 527 1112 547 1141 q 485 1054 507 1083 q 445 999 464 1024 l 312 980 l 115 1196 l 259 1286 l 365 1148 l 448 1281 l 597 1216 z "},"Ď":{"ha":809,"x_min":30,"x_max":803,"o":"m 803 538 q 779 367 803 444 q 710 232 754 291 q 606 130 667 172 q 474 59 546 87 q 321 19 402 32 q 155 5 240 5 q 92 7 123 5 q 30 12 62 9 l 49 922 q 202 956 123 946 q 359 966 281 966 q 538 937 456 966 q 678 852 619 907 q 770 718 737 798 q 803 538 803 639 m 525 495 q 517 566 526 532 q 489 626 509 600 q 440 668 470 652 q 369 685 410 684 l 342 264 q 416 291 382 271 q 473 342 449 312 q 510 409 497 372 q 525 486 524 446 l 525 495 m 629 1238 q 598 1191 616 1217 q 559 1135 580 1164 q 518 1076 539 1105 q 477 1021 496 1046 l 345 1002 l 148 1218 l 292 1309 l 397 1171 l 480 1303 l 629 1238 z "},"ď":{"ha":809,"x_min":30,"x_max":803,"o":"m 803 538 q 779 368 803 444 q 710 235 754 293 q 606 136 667 177 q 474 70 546 96 q 321 31 402 43 q 155 19 240 19 q 92 21 123 19 q 30 26 62 22 l 49 909 q 202 942 123 932 q 359 952 281 952 q 538 925 456 952 q 678 845 619 898 q 770 716 737 793 q 803 538 803 639 m 342 278 q 416 303 382 284 q 474 349 450 321 q 512 411 498 376 q 525 486 525 446 q 517 558 525 524 q 490 616 509 591 q 442 655 472 641 q 369 671 412 670 l 342 278 m 629 1218 q 598 1170 616 1197 q 559 1114 580 1143 q 518 1056 539 1085 q 477 1001 496 1026 l 345 982 l 148 1198 l 292 1289 l 397 1150 l 480 1283 l 629 1218 z "},"Đ":{"ha":856,"x_min":-20,"x_max":850,"o":"m 86 526 l 96 922 q 249 956 170 946 q 406 966 328 966 q 585 937 503 966 q 725 852 666 907 q 817 718 784 798 q 850 538 850 639 q 825 367 850 444 q 757 232 801 291 q 653 130 713 172 q 521 59 593 87 q 368 19 449 32 q 201 5 286 5 q 139 7 170 5 q 77 12 109 9 l 85 410 l -17 406 l -20 529 l 86 526 m 572 495 q 564 566 572 532 q 536 626 555 600 q 487 668 517 652 q 416 685 457 684 l 405 522 l 473 521 l 475 426 l 401 422 l 389 264 q 463 291 429 271 q 520 342 496 312 q 557 409 544 372 q 572 486 570 446 l 572 495 z "},"đ":{"ha":856,"x_min":-20,"x_max":850,"o":"m 86 526 l 96 922 q 249 956 170 946 q 406 966 328 966 q 585 937 503 966 q 725 852 666 907 q 817 718 784 798 q 850 538 850 639 q 825 367 850 444 q 757 232 801 291 q 653 130 713 172 q 521 59 593 87 q 368 19 449 32 q 201 5 286 5 q 139 7 170 5 q 77 12 109 9 l 85 410 l -17 406 l -20 529 l 86 526 m 572 495 q 564 566 572 532 q 536 626 555 600 q 487 668 517 652 q 416 685 457 684 l 405 522 l 473 521 l 475 426 l 401 422 l 389 264 q 463 291 429 271 q 520 342 496 312 q 557 409 544 372 q 572 486 570 446 l 572 495 z "},"Ē":{"ha":665,"x_min":30,"x_max":677,"o":"m 677 978 q 669 852 673 914 q 661 726 666 789 l 373 711 l 366 625 l 568 625 l 553 415 l 350 408 l 343 309 l 511 309 l 631 309 q 622 161 627 235 q 614 14 618 87 l 30 0 l 52 978 l 677 978 m 551 1028 l 123 1034 l 111 1195 l 554 1203 l 551 1028 z "},"ē":{"ha":801,"x_min":12,"x_max":791,"o":"m 791 548 q 783 430 791 489 q 553 406 667 422 q 323 373 438 389 q 379 295 341 324 q 469 266 416 266 q 528 276 496 266 q 592 301 560 286 q 653 334 624 317 q 703 366 682 352 l 671 58 q 613 24 644 38 q 549 1 583 9 q 482 -12 516 -8 q 416 -16 448 -16 q 293 2 349 -16 q 192 53 237 20 q 113 131 147 86 q 57 229 79 176 q 23 340 35 281 q 12 460 12 399 q 23 586 12 523 q 58 707 35 649 q 117 815 81 766 q 200 903 153 865 q 308 961 248 940 q 440 982 368 982 q 550 965 500 982 q 639 919 600 949 q 707 849 678 890 q 754 760 736 808 q 782 657 773 711 q 791 548 791 604 m 520 583 q 516 622 520 602 q 503 659 512 642 q 479 685 494 675 q 441 696 464 696 q 394 681 414 696 q 358 645 373 667 q 334 597 343 623 q 319 549 324 571 l 520 568 l 520 583 m 650 1015 l 222 1020 l 210 1181 l 653 1190 l 650 1015 z "},"Ĕ":{"ha":665,"x_min":30,"x_max":677,"o":"m 677 978 q 669 852 673 914 q 661 726 666 789 l 373 711 l 366 625 l 568 625 l 553 415 l 350 408 l 343 309 l 511 309 l 631 309 q 622 161 627 235 q 614 14 618 87 l 30 0 l 52 978 l 677 978 m 534 1204 q 518 1124 534 1161 q 474 1060 502 1087 q 410 1018 447 1033 q 330 1002 372 1002 q 244 1017 281 1002 q 182 1060 207 1032 q 144 1126 157 1087 q 131 1215 131 1166 q 131 1231 131 1223 q 132 1246 131 1239 l 290 1226 q 290 1201 289 1215 q 297 1175 292 1187 q 311 1154 302 1162 q 336 1145 320 1145 q 352 1150 345 1145 q 362 1163 358 1155 q 368 1180 366 1171 q 370 1198 370 1190 q 365 1235 370 1217 q 355 1271 361 1253 l 519 1301 q 529 1254 525 1278 q 534 1204 534 1229 z "},"ĕ":{"ha":801,"x_min":12,"x_max":791,"o":"m 791 548 q 783 430 791 489 q 553 406 667 422 q 323 373 438 389 q 379 295 341 324 q 469 266 416 266 q 528 276 496 266 q 592 301 560 286 q 653 334 624 317 q 703 366 682 352 l 671 58 q 613 24 644 38 q 549 1 583 9 q 482 -12 516 -8 q 416 -16 448 -16 q 293 2 349 -16 q 192 53 237 20 q 113 131 147 86 q 57 229 79 176 q 23 340 35 281 q 12 460 12 399 q 23 586 12 523 q 58 707 35 649 q 117 815 81 766 q 200 903 153 865 q 308 961 248 940 q 440 982 368 982 q 550 965 500 982 q 639 919 600 949 q 707 849 678 890 q 754 760 736 808 q 782 657 773 711 q 791 548 791 604 m 520 583 q 516 622 520 602 q 503 659 512 642 q 479 685 494 675 q 441 696 464 696 q 394 681 414 696 q 358 645 373 667 q 334 597 343 623 q 319 549 324 571 l 520 568 l 520 583 m 604 1217 q 588 1136 604 1173 q 545 1072 572 1099 q 480 1030 517 1045 q 401 1015 443 1015 q 315 1029 352 1015 q 252 1072 277 1044 q 214 1139 227 1099 q 201 1227 201 1178 q 201 1243 201 1235 q 203 1259 201 1251 l 360 1238 q 361 1214 359 1227 q 367 1187 362 1200 q 381 1166 372 1175 q 406 1157 391 1157 q 422 1162 416 1157 q 433 1175 429 1167 q 438 1193 437 1183 q 440 1210 440 1202 q 436 1247 440 1230 q 425 1283 431 1265 l 589 1313 q 600 1266 595 1291 q 604 1217 604 1241 z "},"Ė":{"ha":665,"x_min":30,"x_max":677,"o":"m 677 978 q 669 852 673 914 q 661 726 666 789 l 373 711 l 366 625 l 568 625 l 553 415 l 350 408 l 343 309 l 511 309 l 631 309 q 622 161 627 235 q 614 14 618 87 l 30 0 l 52 978 l 677 978 m 481 1139 q 470 1088 481 1112 q 441 1046 460 1064 q 399 1018 423 1028 q 347 1008 374 1008 q 292 1018 317 1008 q 248 1046 267 1028 q 220 1088 230 1064 q 210 1139 210 1112 q 220 1191 210 1166 q 248 1233 230 1215 q 290 1262 266 1251 q 342 1272 315 1272 q 397 1262 372 1272 q 441 1233 422 1251 q 470 1191 460 1215 q 481 1139 481 1166 z "},"ė":{"ha":801,"x_min":12,"x_max":791,"o":"m 791 548 q 783 430 791 489 q 553 406 667 422 q 323 373 438 389 q 379 295 341 324 q 469 266 416 266 q 528 276 496 266 q 592 301 560 286 q 653 334 624 317 q 703 366 682 352 l 671 58 q 613 24 644 38 q 549 1 583 9 q 482 -12 516 -8 q 416 -16 448 -16 q 293 2 349 -16 q 192 53 237 20 q 113 131 147 86 q 57 229 79 176 q 23 340 35 281 q 12 460 12 399 q 23 586 12 523 q 58 707 35 649 q 117 815 81 766 q 200 903 153 865 q 308 961 248 940 q 440 982 368 982 q 550 965 500 982 q 639 919 600 949 q 707 849 678 890 q 754 760 736 808 q 782 657 773 711 q 791 548 791 604 m 520 583 q 516 622 520 602 q 503 659 512 642 q 479 685 494 675 q 441 696 464 696 q 394 681 414 696 q 358 645 373 667 q 334 597 343 623 q 319 549 324 571 l 520 568 l 520 583 m 555 1152 q 544 1100 555 1124 q 515 1058 534 1076 q 473 1030 497 1040 q 420 1020 448 1020 q 366 1030 391 1020 q 322 1058 340 1040 q 294 1100 304 1076 q 283 1152 283 1124 q 294 1203 283 1179 q 322 1245 304 1227 q 364 1274 340 1263 q 416 1284 389 1284 q 471 1274 446 1284 q 515 1245 496 1263 q 544 1203 534 1227 q 555 1152 555 1179 z "},"Ę":{"ha":665,"x_min":30,"x_max":677,"o":"m 608 -192 q 541 -241 578 -220 q 461 -262 503 -262 q 402 -252 430 -262 q 354 -223 375 -241 q 321 -178 334 -204 q 309 -120 309 -152 q 325 -52 309 -83 q 364 7 340 -20 l 30 0 l 52 978 l 677 978 q 669 852 673 914 q 661 726 666 789 l 373 711 l 366 625 l 568 625 l 553 415 l 350 408 l 343 309 l 631 309 q 622 161 627 235 q 614 14 618 87 l 520 12 q 498 -18 509 -2 q 478 -48 487 -33 q 463 -77 469 -63 q 457 -100 457 -90 q 466 -120 457 -112 q 487 -128 475 -128 q 517 -118 500 -128 q 541 -96 533 -107 l 608 -192 z "},"ę":{"ha":801,"x_min":12,"x_max":791,"o":"m 656 -194 q 589 -243 627 -222 q 510 -264 552 -264 q 451 -254 479 -264 q 403 -225 424 -243 q 370 -180 382 -206 q 358 -122 358 -154 q 369 -66 358 -92 q 396 -16 379 -39 q 229 30 300 -12 q 109 137 157 71 q 36 287 60 203 q 12 460 12 371 q 23 586 12 523 q 58 707 35 649 q 117 815 81 766 q 200 903 153 865 q 308 961 248 940 q 440 982 368 982 q 550 965 500 982 q 639 919 600 949 q 707 849 678 890 q 754 760 736 808 q 782 657 773 711 q 791 548 791 604 q 783 430 791 489 q 553 406 667 422 q 323 373 438 389 q 379 295 341 324 q 469 266 416 266 q 528 276 496 266 q 592 301 560 286 q 653 334 624 317 q 703 366 682 352 l 671 58 q 566 5 625 23 q 545 -23 555 -8 q 525 -52 534 -38 q 511 -79 517 -66 q 506 -102 506 -92 q 515 -122 506 -114 q 536 -130 524 -130 q 566 -120 549 -130 q 590 -98 582 -109 l 656 -194 m 520 583 q 516 622 520 602 q 503 659 512 642 q 479 685 494 675 q 441 696 464 696 q 394 681 414 696 q 358 645 373 667 q 334 597 343 623 q 319 549 324 571 l 520 568 l 520 583 z "},"Ě":{"ha":665,"x_min":30,"x_max":677,"o":"m 677 978 q 669 852 673 914 q 661 726 666 789 l 373 711 l 366 625 l 568 625 l 553 415 l 350 408 l 343 309 l 511 309 l 631 309 q 622 161 627 235 q 614 14 618 87 l 30 0 l 52 978 l 677 978 m 564 1238 q 532 1191 551 1217 q 494 1135 514 1164 q 452 1076 473 1105 q 412 1021 431 1046 l 279 1002 l 82 1218 l 226 1309 l 332 1171 l 414 1303 l 564 1238 z "},"ě":{"ha":801,"x_min":12,"x_max":791,"o":"m 791 548 q 783 430 791 489 q 553 406 667 422 q 323 373 438 389 q 379 295 341 324 q 469 266 416 266 q 528 276 496 266 q 592 301 560 286 q 653 334 624 317 q 703 366 682 352 l 671 58 q 613 24 644 38 q 549 1 583 9 q 482 -12 516 -8 q 416 -16 448 -16 q 293 2 349 -16 q 192 53 237 20 q 113 131 147 86 q 57 229 79 176 q 23 340 35 281 q 12 460 12 399 q 23 586 12 523 q 58 707 35 649 q 117 815 81 766 q 200 903 153 865 q 308 961 248 940 q 440 982 368 982 q 550 965 500 982 q 639 919 600 949 q 707 849 678 890 q 754 760 736 808 q 782 657 773 711 q 791 548 791 604 m 520 583 q 516 622 520 602 q 503 659 512 642 q 479 685 494 675 q 441 696 464 696 q 394 681 414 696 q 358 645 373 667 q 334 597 343 623 q 319 549 324 571 l 520 568 l 520 583 m 637 1238 q 606 1190 625 1217 q 568 1134 588 1163 q 526 1075 547 1105 q 486 1021 505 1046 l 353 1002 l 156 1217 l 300 1308 l 406 1170 l 488 1303 l 637 1238 z "},"Ĝ":{"ha":870,"x_min":5,"x_max":853,"o":"m 853 138 q 774 68 821 98 q 674 19 728 39 q 564 -11 621 -1 q 457 -20 508 -20 q 276 15 359 -20 q 133 112 193 50 q 39 258 73 174 q 5 439 5 342 q 22 584 5 513 q 71 718 39 655 q 148 833 102 781 q 251 924 193 886 q 377 983 309 962 q 524 1004 446 1004 q 586 1001 553 1004 q 652 993 619 999 q 716 977 685 987 q 773 952 747 967 l 754 693 q 676 712 716 707 q 597 718 635 718 q 495 701 543 718 q 413 653 448 684 q 358 577 378 622 q 338 476 338 532 q 347 408 338 441 q 376 350 357 375 q 424 309 395 324 q 491 293 453 293 q 544 300 517 293 q 591 323 572 307 l 594 376 l 431 378 l 439 582 q 642 588 541 585 q 845 594 743 590 l 853 138 m 528 1024 l 422 1162 l 340 1031 l 191 1095 q 222 1144 203 1116 q 262 1202 241 1172 q 305 1262 283 1232 q 347 1318 327 1293 l 486 1320 l 672 1112 l 528 1024 z "},"ĝ":{"ha":871,"x_min":7,"x_max":854,"o":"m 854 152 q 776 82 823 112 q 675 33 729 52 q 566 3 622 13 q 458 -7 509 -7 q 277 26 360 -7 q 135 119 195 60 q 41 260 75 178 q 7 439 7 342 q 24 583 7 513 q 72 714 41 653 q 149 826 104 775 q 252 913 195 877 q 379 970 310 950 q 525 990 448 990 q 587 988 554 990 q 653 980 621 985 q 718 964 686 974 q 774 939 749 954 l 755 680 q 677 699 718 694 q 598 704 637 704 q 497 689 544 704 q 415 646 450 675 q 359 575 380 618 q 339 476 339 532 q 349 408 339 441 q 377 350 358 375 q 426 309 397 324 q 492 293 454 293 q 546 300 518 293 q 593 323 573 307 l 595 376 l 433 378 l 441 582 q 643 588 542 585 q 846 594 744 590 l 854 152 m 551 1011 l 446 1149 l 363 1018 l 214 1082 q 245 1131 227 1103 q 286 1189 264 1159 q 328 1250 307 1219 q 370 1305 350 1280 l 509 1307 l 695 1099 l 551 1011 z "},"Ğ":{"ha":870,"x_min":5,"x_max":853,"o":"m 853 138 q 774 68 821 98 q 674 19 728 39 q 564 -11 621 -1 q 457 -20 508 -20 q 276 15 359 -20 q 133 112 193 50 q 39 258 73 174 q 5 439 5 342 q 22 584 5 513 q 71 718 39 655 q 148 833 102 781 q 251 924 193 886 q 377 983 309 962 q 524 1004 446 1004 q 586 1001 553 1004 q 652 993 619 999 q 716 977 685 987 q 773 952 747 967 l 754 693 q 676 712 716 707 q 597 718 635 718 q 495 701 543 718 q 413 653 448 684 q 358 577 378 622 q 338 476 338 532 q 347 408 338 441 q 376 350 357 375 q 424 309 395 324 q 491 293 453 293 q 544 300 517 293 q 591 323 572 307 l 594 376 l 431 378 l 439 582 q 642 588 541 585 q 845 594 743 590 l 853 138 m 633 1230 q 617 1150 633 1187 q 573 1086 601 1113 q 509 1043 546 1059 q 429 1028 471 1028 q 343 1043 380 1028 q 281 1085 306 1058 q 243 1152 256 1113 q 230 1241 230 1192 q 230 1257 230 1249 q 231 1272 230 1265 l 389 1252 q 389 1227 388 1241 q 396 1201 391 1213 q 410 1179 401 1188 q 435 1171 419 1171 q 451 1176 444 1171 q 461 1189 457 1181 q 467 1206 465 1197 q 469 1223 469 1215 q 464 1261 469 1243 q 454 1297 460 1278 l 618 1326 q 628 1279 624 1304 q 633 1230 633 1255 z "},"ğ":{"ha":871,"x_min":7,"x_max":854,"o":"m 854 152 q 776 82 823 112 q 675 33 729 52 q 566 3 622 13 q 458 -7 509 -7 q 277 26 360 -7 q 135 119 195 60 q 41 260 75 178 q 7 439 7 342 q 24 583 7 513 q 72 714 41 653 q 149 826 104 775 q 252 913 195 877 q 379 970 310 950 q 525 990 448 990 q 587 988 554 990 q 653 980 621 985 q 718 964 686 974 q 774 939 749 954 l 755 680 q 677 699 718 694 q 598 704 637 704 q 497 689 544 704 q 415 646 450 675 q 359 575 380 618 q 339 476 339 532 q 349 408 339 441 q 377 350 358 375 q 426 309 397 324 q 492 293 454 293 q 546 300 518 293 q 593 323 573 307 l 595 376 l 433 378 l 441 582 q 643 588 542 585 q 846 594 744 590 l 854 152 m 627 1217 q 611 1136 627 1173 q 568 1072 595 1099 q 503 1030 541 1045 q 424 1015 466 1015 q 338 1029 375 1015 q 275 1072 300 1044 q 237 1139 250 1099 q 224 1227 224 1178 q 224 1243 224 1235 q 226 1259 224 1251 l 383 1238 q 384 1214 382 1227 q 390 1187 385 1200 q 405 1166 395 1175 q 429 1157 414 1157 q 445 1162 439 1157 q 456 1175 452 1167 q 461 1193 460 1183 q 463 1210 463 1202 q 459 1247 463 1230 q 448 1283 454 1265 l 612 1313 q 623 1266 618 1291 q 627 1217 627 1241 z "},"Ġ":{"ha":870,"x_min":5,"x_max":853,"o":"m 853 138 q 774 68 821 98 q 674 19 728 39 q 564 -11 621 -1 q 457 -20 508 -20 q 276 15 359 -20 q 133 112 193 50 q 39 258 73 174 q 5 439 5 342 q 22 584 5 513 q 71 718 39 655 q 148 833 102 781 q 251 924 193 886 q 377 983 309 962 q 524 1004 446 1004 q 586 1001 553 1004 q 652 993 619 999 q 716 977 685 987 q 773 952 747 967 l 754 693 q 676 712 716 707 q 597 718 635 718 q 495 701 543 718 q 413 653 448 684 q 358 577 378 622 q 338 476 338 532 q 347 408 338 441 q 376 350 357 375 q 424 309 395 324 q 491 293 453 293 q 544 300 517 293 q 591 323 572 307 l 594 376 l 431 378 l 439 582 q 642 588 541 585 q 845 594 743 590 l 853 138 m 555 1162 q 544 1110 555 1134 q 515 1068 534 1086 q 473 1040 497 1050 q 420 1030 448 1030 q 366 1040 391 1030 q 322 1068 340 1050 q 294 1110 304 1086 q 283 1162 283 1134 q 294 1213 283 1189 q 322 1256 304 1238 q 364 1284 340 1274 q 416 1295 389 1295 q 471 1284 446 1295 q 515 1256 496 1274 q 544 1213 534 1238 q 555 1162 555 1189 z "},"ġ":{"ha":871,"x_min":7,"x_max":854,"o":"m 854 152 q 776 82 823 112 q 675 33 729 52 q 566 3 622 13 q 458 -7 509 -7 q 277 26 360 -7 q 135 119 195 60 q 41 260 75 178 q 7 439 7 342 q 24 583 7 513 q 72 714 41 653 q 149 826 104 775 q 252 913 195 877 q 379 970 310 950 q 525 990 448 990 q 587 988 554 990 q 653 980 621 985 q 718 964 686 974 q 774 939 749 954 l 755 680 q 677 699 718 694 q 598 704 637 704 q 497 689 544 704 q 415 646 450 675 q 359 575 380 618 q 339 476 339 532 q 349 408 339 441 q 377 350 358 375 q 426 309 397 324 q 492 293 454 293 q 546 300 518 293 q 593 323 573 307 l 595 376 l 433 378 l 441 582 q 643 588 542 585 q 846 594 744 590 l 854 152 m 558 1145 q 548 1094 558 1118 q 519 1052 537 1070 q 476 1024 500 1034 q 424 1014 452 1014 q 369 1024 394 1014 q 326 1052 344 1034 q 297 1094 307 1070 q 287 1145 287 1118 q 297 1197 287 1173 q 325 1239 307 1221 q 368 1268 343 1257 q 420 1278 392 1278 q 474 1268 449 1278 q 518 1239 500 1257 q 548 1197 537 1221 q 558 1145 558 1173 z "},"Ģ":{"ha":870,"x_min":5,"x_max":853,"o":"m 853 138 q 774 68 821 98 q 674 19 728 39 q 564 -11 621 -1 q 457 -20 508 -20 q 276 15 359 -20 q 133 112 193 50 q 39 258 73 174 q 5 439 5 342 q 22 584 5 513 q 71 718 39 655 q 148 833 102 781 q 251 924 193 886 q 377 983 309 962 q 524 1004 446 1004 q 586 1001 553 1004 q 652 993 619 999 q 716 977 685 987 q 773 952 747 967 l 754 693 q 676 712 716 707 q 597 718 635 718 q 495 701 543 718 q 413 653 448 684 q 358 577 378 622 q 338 476 338 532 q 347 408 338 441 q 376 350 357 375 q 424 309 395 324 q 491 293 453 293 q 544 300 517 293 q 591 323 572 307 l 594 376 l 431 378 l 439 582 q 642 588 541 585 q 845 594 743 590 l 853 138 m 565 -163 q 555 -213 565 -186 q 529 -266 546 -239 q 488 -316 512 -292 q 434 -355 464 -339 q 434 -344 434 -355 q 433 -318 433 -333 q 431 -285 432 -302 q 429 -254 430 -267 q 382 -217 399 -243 q 366 -160 366 -191 q 373 -122 366 -140 q 395 -90 381 -104 q 427 -68 408 -77 q 465 -60 445 -60 q 504 -68 486 -60 q 536 -90 522 -77 q 557 -122 549 -104 q 565 -160 565 -140 l 565 -163 z "},"ģ":{"ha":871,"x_min":7,"x_max":854,"o":"m 854 152 q 776 82 823 112 q 675 33 729 52 q 566 3 622 13 q 458 -7 509 -7 q 277 26 360 -7 q 135 119 195 60 q 41 260 75 178 q 7 439 7 342 q 24 583 7 513 q 72 714 41 653 q 149 826 104 775 q 252 913 195 877 q 379 970 310 950 q 525 990 448 990 q 587 988 554 990 q 653 980 621 985 q 718 964 686 974 q 774 939 749 954 l 755 680 q 677 699 718 694 q 598 704 637 704 q 497 689 544 704 q 415 646 450 675 q 359 575 380 618 q 339 476 339 532 q 349 408 339 441 q 377 350 358 375 q 426 309 397 324 q 492 293 454 293 q 546 300 518 293 q 593 323 573 307 l 595 376 l 433 378 l 441 582 q 643 588 542 585 q 846 594 744 590 l 854 152 m 558 -163 q 549 -213 558 -186 q 522 -266 539 -239 q 481 -316 505 -292 q 427 -355 457 -339 q 427 -344 427 -355 q 426 -318 427 -333 q 424 -285 425 -302 q 422 -254 423 -267 q 376 -217 393 -243 q 359 -160 359 -191 q 367 -122 359 -140 q 388 -90 374 -104 q 420 -68 401 -77 q 458 -60 438 -60 q 497 -68 479 -60 q 529 -90 515 -77 q 550 -122 543 -104 q 558 -160 558 -140 l 558 -163 z "},"Ĥ":{"ha":869,"x_min":28,"x_max":840,"o":"m 840 0 l 500 -16 l 498 297 l 342 297 l 332 0 l 28 0 l 54 954 l 377 939 l 357 452 l 507 452 l 509 975 l 818 967 l 840 0 m 532 989 l 426 1128 l 343 996 l 194 1060 q 226 1109 207 1081 q 266 1167 245 1137 q 309 1228 287 1198 q 350 1284 330 1258 l 490 1285 l 675 1078 l 532 989 z "},"ĥ":{"ha":869,"x_min":28,"x_max":840,"o":"m 840 27 l 500 11 l 498 297 l 342 297 l 332 0 l 28 0 l 54 954 l 377 939 l 357 452 l 507 452 l 509 962 l 818 954 l 840 27 m 532 977 l 426 1115 l 343 983 l 194 1047 q 226 1096 207 1068 q 266 1155 245 1124 q 309 1215 287 1185 q 350 1271 330 1245 l 490 1272 l 675 1065 l 532 977 z "},"Ħ":{"ha":869,"x_min":28,"x_max":840,"o":"m 840 0 l 500 -16 l 498 297 l 342 297 l 332 0 l 28 0 l 54 954 l 377 939 l 367 696 l 508 699 l 509 975 l 818 967 l 840 0 m 507 452 l 507 528 l 360 530 l 357 452 l 507 452 z "},"ħ":{"ha":869,"x_min":28,"x_max":840,"o":"m 840 27 l 500 11 l 498 297 l 342 297 l 332 0 l 28 0 l 54 954 l 377 939 l 368 712 l 508 715 l 509 962 l 818 954 l 840 27 m 507 452 l 507 544 l 361 546 l 357 452 l 507 452 z "},"ķ":{"ha":837,"x_min":30,"x_max":868,"o":"m 868 876 l 568 519 l 844 53 l 529 -3 l 323 277 l 312 11 l 30 0 l 52 971 l 368 954 l 343 674 l 540 958 l 868 876 m 517 -163 q 508 -213 517 -186 q 481 -266 498 -239 q 440 -316 465 -292 q 387 -355 416 -339 q 386 -344 387 -355 q 385 -318 386 -333 q 384 -285 385 -302 q 382 -254 382 -267 q 335 -217 352 -243 q 318 -160 318 -191 q 326 -122 318 -140 q 347 -90 334 -104 q 379 -68 361 -77 q 418 -60 397 -60 q 456 -68 438 -60 q 488 -90 475 -77 q 510 -122 502 -104 q 517 -160 517 -140 l 517 -163 z "},"Ĩ":{"ha":413,"x_min":-64,"x_max":479,"o":"m 401 955 l 326 31 l 40 16 l 40 936 l 401 955 m 479 1162 q 465 1089 479 1123 q 426 1030 450 1055 q 367 991 401 1005 q 296 977 334 977 q 245 987 266 977 q 209 1015 224 998 q 184 1050 195 1031 q 165 1085 174 1069 q 147 1112 156 1101 q 126 1123 138 1123 q 113 1119 119 1123 q 105 1108 108 1114 q 100 1095 102 1102 q 99 1081 99 1087 q 104 1041 99 1061 q 117 1004 109 1022 l -49 990 q -60 1047 -57 1019 q -64 1104 -64 1076 q -53 1181 -64 1145 q -21 1244 -42 1217 q 32 1285 1 1270 q 106 1301 64 1301 q 168 1289 143 1301 q 208 1261 192 1278 q 234 1223 224 1244 q 250 1186 243 1203 q 264 1158 258 1169 q 282 1146 271 1146 q 303 1158 296 1146 q 311 1183 311 1171 q 302 1222 311 1203 q 285 1257 294 1242 l 453 1284 q 472 1224 465 1255 q 479 1162 479 1194 z "},"ĩ":{"ha":409,"x_min":-72,"x_max":471,"o":"m 389 955 l 341 31 l 55 16 l 28 936 l 389 955 m 471 1162 q 456 1089 471 1123 q 417 1030 442 1055 q 359 991 393 1005 q 288 977 326 977 q 237 987 258 977 q 201 1015 216 998 q 176 1050 186 1031 q 157 1085 165 1069 q 139 1112 148 1101 q 118 1123 130 1123 q 105 1119 111 1123 q 97 1108 100 1114 q 92 1095 94 1102 q 91 1081 91 1087 q 96 1041 91 1061 q 109 1004 101 1022 l -57 990 q -68 1047 -65 1019 q -72 1104 -72 1076 q -61 1181 -72 1145 q -29 1244 -50 1217 q 24 1285 -7 1270 q 98 1301 56 1301 q 159 1289 135 1301 q 200 1261 184 1278 q 225 1223 216 1244 q 242 1186 235 1203 q 256 1158 250 1169 q 274 1146 263 1146 q 295 1158 288 1146 q 302 1183 302 1171 q 294 1222 302 1203 q 277 1257 286 1242 l 445 1284 q 464 1224 456 1255 q 471 1162 471 1194 z "},"Ī":{"ha":413,"x_min":-8,"x_max":435,"o":"m 401 955 l 326 31 l 40 16 l 40 936 l 401 955 m 433 994 l 4 1000 l -8 1161 l 435 1169 l 433 994 z "},"ī":{"ha":409,"x_min":-16,"x_max":427,"o":"m 389 955 l 341 31 l 55 16 l 28 936 l 389 955 m 425 987 l -4 993 l -16 1154 l 427 1162 l 425 987 z "},"Ĭ":{"ha":413,"x_min":5,"x_max":408,"o":"m 401 955 l 326 31 l 40 16 l 40 936 l 401 955 m 408 1189 q 392 1108 408 1145 q 348 1044 376 1072 q 283 1002 321 1017 q 204 987 246 987 q 118 1002 155 987 q 56 1044 81 1017 q 18 1111 31 1072 q 5 1200 5 1150 q 5 1215 5 1207 q 6 1231 5 1223 l 163 1211 q 164 1186 163 1200 q 171 1159 165 1172 q 185 1138 176 1147 q 210 1129 194 1129 q 225 1134 219 1129 q 236 1147 232 1139 q 242 1165 240 1156 q 243 1182 243 1174 q 239 1219 243 1202 q 229 1255 235 1237 l 393 1285 q 403 1238 399 1263 q 408 1189 408 1213 z "},"ĭ":{"ha":409,"x_min":6,"x_max":409,"o":"m 389 955 l 341 31 l 55 16 l 28 936 l 389 955 m 409 1179 q 393 1098 409 1135 q 350 1034 377 1061 q 285 992 322 1007 q 205 977 248 977 q 119 991 157 977 q 57 1034 82 1006 q 19 1101 32 1061 q 6 1190 6 1140 q 6 1205 6 1197 q 7 1221 6 1213 l 165 1200 q 165 1176 164 1190 q 172 1149 167 1162 q 186 1128 177 1137 q 211 1119 195 1119 q 227 1124 220 1119 q 237 1137 233 1129 q 243 1155 241 1145 q 245 1172 245 1164 q 240 1209 245 1192 q 230 1245 236 1227 l 394 1275 q 405 1228 400 1253 q 409 1179 409 1203 z "},"Į":{"ha":413,"x_min":33,"x_max":401,"o":"m 332 -185 q 264 -235 302 -214 q 185 -256 227 -256 q 126 -245 154 -256 q 78 -216 99 -235 q 45 -171 58 -197 q 33 -113 33 -145 q 50 -42 33 -75 q 92 19 67 -9 l 40 16 l 40 936 l 401 955 l 326 31 l 252 27 q 228 -3 240 13 q 205 -36 215 -20 q 188 -67 195 -52 q 181 -93 181 -82 q 190 -113 181 -105 q 211 -121 199 -121 q 241 -111 224 -121 q 265 -89 257 -100 l 332 -185 z "},"į":{"ha":409,"x_min":28,"x_max":389,"o":"m 340 -189 q 273 -238 311 -217 q 194 -259 236 -259 q 135 -249 163 -259 q 87 -219 108 -238 q 54 -175 66 -201 q 42 -117 42 -149 q 60 -43 42 -77 q 104 19 78 -9 l 55 16 l 28 936 l 389 955 l 341 31 l 263 27 q 239 -4 252 13 q 215 -38 226 -21 q 197 -70 204 -54 q 190 -96 190 -85 q 199 -117 190 -109 q 220 -125 208 -125 q 250 -114 233 -125 q 274 -92 266 -104 l 340 -189 z "},"İ":{"ha":413,"x_min":40,"x_max":401,"o":"m 401 955 l 326 31 l 40 16 l 40 936 l 401 955 m 357 1117 q 347 1065 357 1089 q 318 1024 336 1042 q 275 996 300 1006 q 223 985 251 985 q 168 996 193 985 q 125 1024 143 1006 q 96 1065 106 1042 q 86 1117 86 1089 q 96 1168 86 1144 q 124 1211 106 1193 q 167 1239 142 1229 q 219 1250 191 1250 q 274 1239 248 1250 q 318 1211 299 1229 q 347 1168 336 1193 q 357 1117 357 1144 z "},"Ĳ":{"ha":1106,"x_min":40,"x_max":1080,"o":"m 401 955 l 326 31 l 40 16 l 40 936 l 401 955 m 1080 559 q 1080 479 1080 519 q 1076 400 1080 440 q 1040 240 1069 315 q 961 107 1010 164 q 840 17 911 50 q 676 -16 768 -16 q 601 -10 640 -16 q 524 8 562 -4 q 451 38 486 20 q 389 80 416 56 l 431 361 q 519 298 471 322 q 626 274 568 274 q 689 285 663 274 q 732 315 715 296 q 759 359 749 334 q 773 413 768 385 q 778 473 777 442 q 779 533 779 503 q 768 748 779 641 q 749 962 758 854 l 1060 982 q 1080 559 1080 770 z "},"ĳ":{"ha":1109,"x_min":28,"x_max":1084,"o":"m 389 955 l 341 31 l 55 16 l 28 936 l 389 955 m 1084 559 q 1084 479 1084 519 q 1080 400 1084 440 q 1043 240 1072 315 q 964 107 1014 164 q 843 17 914 50 q 680 -16 772 -16 q 605 -10 644 -16 q 527 8 566 -4 q 454 38 489 20 q 392 80 419 56 l 434 361 q 523 298 474 322 q 629 274 572 274 q 692 285 667 274 q 735 315 718 296 q 762 359 752 334 q 776 413 772 385 q 782 473 781 442 q 783 533 783 503 q 772 748 783 641 q 753 962 761 854 l 1063 982 q 1084 559 1084 770 z "},"Ĵ":{"ha":708,"x_min":-9,"x_max":724,"o":"m 682 559 q 682 479 682 519 q 678 400 682 440 q 642 240 671 315 q 563 107 612 164 q 441 17 513 50 q 278 -16 370 -16 q 203 -10 242 -16 q 126 8 164 -4 q 53 38 87 20 q -9 80 18 56 l 33 361 q 121 298 73 322 q 228 274 170 274 q 291 285 265 274 q 334 315 317 296 q 360 359 351 334 q 375 413 370 385 q 380 473 379 442 q 381 533 381 503 q 370 748 381 641 q 351 962 359 854 l 662 982 q 682 559 682 770 m 580 999 l 474 1137 l 391 1006 l 242 1069 q 274 1119 255 1090 q 314 1177 293 1147 q 357 1237 335 1207 q 398 1293 378 1267 l 538 1295 l 724 1087 l 580 999 z "},"ĵ":{"ha":708,"x_min":-9,"x_max":734,"o":"m 682 559 q 682 479 682 519 q 678 400 682 440 q 642 240 671 315 q 563 107 612 164 q 441 17 513 50 q 278 -16 370 -16 q 203 -10 242 -16 q 126 8 164 -4 q 53 38 87 20 q -9 80 18 56 l 33 361 q 121 298 73 322 q 228 274 170 274 q 291 285 265 274 q 334 315 317 296 q 360 359 351 334 q 375 413 370 385 q 380 473 379 442 q 381 533 381 503 q 370 748 381 641 q 351 962 359 854 l 662 982 q 682 559 682 770 m 590 1002 l 484 1141 l 401 1009 l 252 1073 q 284 1122 265 1094 q 324 1180 303 1150 q 367 1241 345 1211 q 408 1297 389 1271 l 548 1298 l 734 1090 l 590 1002 z "},"Ķ":{"ha":853,"x_min":29,"x_max":895,"o":"m 895 971 l 568 519 l 843 39 l 528 -16 l 322 277 l 311 -30 l 29 -41 l 51 998 l 367 981 l 342 674 l 553 998 l 895 971 m 517 -163 q 508 -213 517 -186 q 481 -266 498 -239 q 440 -316 465 -292 q 387 -355 416 -339 q 386 -344 387 -355 q 385 -318 386 -333 q 384 -285 385 -302 q 382 -254 382 -267 q 335 -217 352 -243 q 318 -160 318 -191 q 326 -122 318 -140 q 347 -90 334 -104 q 379 -68 361 -77 q 418 -60 397 -60 q 456 -68 438 -60 q 488 -90 475 -77 q 510 -122 502 -104 q 517 -160 517 -140 l 517 -163 z "},"ĸ":{"ha":837,"x_min":30,"x_max":868,"o":"m 868 876 l 568 519 l 844 53 l 529 -3 l 323 277 l 312 11 l 30 0 l 52 971 l 368 954 l 343 674 l 540 958 l 868 876 z "},"Ĺ":{"ha":628,"x_min":31,"x_max":631,"o":"m 631 387 l 602 85 l 31 41 q 40 511 35 277 q 53 982 45 745 l 406 982 q 376 685 390 833 q 355 387 361 537 q 418 385 387 385 q 481 385 450 385 q 556 386 519 385 q 631 387 593 387 m 623 1205 q 466 1116 543 1161 q 313 1018 389 1071 l 226 1113 q 258 1149 239 1129 q 299 1190 277 1169 q 343 1233 320 1211 q 388 1274 366 1254 q 496 1368 439 1320 l 623 1205 z "},"ĺ":{"ha":627,"x_min":30,"x_max":629,"o":"m 629 359 l 601 58 l 30 14 l 52 982 l 404 982 l 354 359 l 629 359 m 623 1205 q 466 1116 543 1161 q 313 1018 389 1071 l 226 1113 q 258 1149 239 1129 q 299 1190 277 1169 q 343 1233 320 1211 q 388 1274 366 1254 q 496 1368 439 1320 l 623 1205 z "},"Ļ":{"ha":628,"x_min":31,"x_max":631,"o":"m 631 387 l 602 85 l 31 41 q 40 511 35 277 q 53 982 45 745 l 406 982 q 376 685 390 833 q 355 387 361 537 q 418 385 387 385 q 481 385 450 385 q 556 386 519 385 q 631 387 593 387 m 422 -89 q 413 -138 422 -111 q 387 -191 404 -165 q 346 -241 370 -218 q 292 -280 321 -264 q 291 -269 292 -280 q 290 -243 291 -258 q 289 -210 290 -228 q 287 -179 288 -193 q 240 -142 257 -168 q 223 -85 223 -117 q 231 -47 223 -65 q 252 -16 239 -29 q 284 6 266 -2 q 323 14 302 14 q 361 6 343 14 q 393 -16 380 -2 q 415 -47 407 -29 q 422 -85 422 -65 l 422 -89 z "},"ļ":{"ha":627,"x_min":30,"x_max":629,"o":"m 629 359 l 601 58 l 30 14 l 52 982 l 404 982 l 354 359 l 629 359 m 422 -123 q 413 -172 422 -145 q 387 -225 404 -199 q 346 -275 370 -252 q 292 -314 321 -298 q 291 -303 292 -314 q 290 -277 291 -292 q 289 -244 290 -262 q 287 -213 288 -227 q 240 -176 257 -202 q 223 -119 223 -151 q 231 -81 223 -99 q 252 -50 239 -63 q 284 -28 266 -36 q 323 -20 302 -20 q 361 -28 343 -20 q 393 -50 380 -36 q 415 -81 407 -63 q 422 -119 422 -99 l 422 -123 z "},"Ľ":{"ha":687,"x_min":31,"x_max":686,"o":"m 631 387 l 602 85 l 31 41 q 40 511 35 277 q 53 982 45 745 l 406 982 q 376 685 390 833 q 355 387 361 537 q 418 385 387 385 q 481 385 450 385 q 556 386 519 385 q 631 387 593 387 m 686 925 q 675 868 685 899 q 645 807 664 837 q 598 750 625 777 q 536 705 570 723 q 535 718 536 706 q 534 748 535 730 q 532 786 533 766 q 531 822 531 806 q 477 863 497 834 q 458 928 458 893 q 467 972 458 951 q 491 1008 476 993 q 527 1033 507 1024 q 572 1042 548 1042 q 616 1033 595 1042 q 653 1008 637 1024 q 677 972 668 993 q 686 928 686 951 l 686 925 z "},"ľ":{"ha":687,"x_min":30,"x_max":686,"o":"m 629 359 l 601 58 l 30 14 l 52 982 l 404 982 l 354 359 l 629 359 m 686 925 q 675 868 685 899 q 645 807 664 837 q 598 750 625 777 q 536 705 570 723 q 535 718 536 706 q 534 748 535 730 q 532 786 533 766 q 531 822 531 806 q 477 863 497 834 q 458 928 458 893 q 467 972 458 951 q 491 1008 476 993 q 527 1033 507 1024 q 572 1042 548 1042 q 616 1033 595 1042 q 653 1008 637 1024 q 677 972 668 993 q 686 928 686 951 l 686 925 z "},"Ŀ":{"ha":722,"x_min":31,"x_max":722,"o":"m 631 387 l 602 85 l 31 41 q 40 511 35 277 q 53 982 45 745 l 406 982 q 376 685 390 833 q 355 387 361 537 q 418 385 387 385 q 481 385 450 385 q 556 386 519 385 q 631 387 593 387 m 722 605 q 710 549 722 575 q 679 504 699 524 q 634 474 660 485 q 579 463 608 463 q 524 474 549 463 q 478 504 498 485 q 448 549 459 524 q 437 605 437 575 q 448 661 437 634 q 478 706 459 687 q 524 737 498 726 q 579 749 549 749 q 634 737 608 749 q 679 706 660 726 q 710 661 699 687 q 722 605 722 634 z "},"ŀ":{"ha":722,"x_min":30,"x_max":722,"o":"m 629 359 l 601 58 l 30 14 l 52 982 l 404 982 l 354 359 l 629 359 m 722 605 q 710 549 722 575 q 679 504 699 524 q 634 474 660 485 q 579 463 608 463 q 524 474 549 463 q 478 504 498 485 q 448 549 459 524 q 437 605 437 575 q 448 661 437 634 q 478 706 459 687 q 524 737 498 726 q 579 749 549 749 q 634 737 608 749 q 679 706 660 726 q 710 661 699 687 q 722 605 722 634 z "},"Ń":{"ha":977,"x_min":28,"x_max":957,"o":"m 957 972 l 908 53 l 553 20 l 363 513 l 333 11 l 28 11 l 52 972 l 391 989 l 626 500 l 637 962 l 957 972 m 839 1143 q 682 1054 758 1099 q 528 956 605 1008 l 441 1050 q 474 1087 455 1067 q 514 1128 493 1107 q 559 1170 536 1149 q 604 1211 582 1192 q 711 1305 655 1258 l 839 1143 z "},"ń":{"ha":905,"x_min":19,"x_max":876,"o":"m 876 343 q 874 192 876 267 q 869 41 873 117 l 479 47 q 514 287 499 168 q 529 529 529 407 q 528 557 529 538 q 526 602 528 577 q 520 653 524 627 q 510 701 516 679 q 494 736 503 722 q 472 750 485 750 q 433 736 449 750 q 407 702 417 723 q 390 654 396 680 q 381 601 384 627 q 377 551 378 574 q 376 513 376 528 q 370 274 372 393 q 365 35 368 156 l 19 20 q 45 496 33 260 q 65 972 58 733 l 385 989 l 382 880 q 424 924 401 903 q 471 959 446 944 q 524 982 496 973 q 583 990 552 990 q 684 971 641 990 q 759 920 728 952 q 811 843 790 887 q 845 748 832 798 q 865 643 858 698 q 874 536 871 589 q 876 433 876 483 q 876 343 876 384 m 764 1190 q 607 1100 684 1145 q 454 1002 530 1055 l 367 1097 q 399 1134 380 1114 q 440 1175 418 1154 q 484 1217 461 1196 q 529 1258 507 1238 q 637 1352 581 1305 l 764 1190 z "},"Ņ":{"ha":977,"x_min":28,"x_max":957,"o":"m 957 972 l 908 53 l 553 20 l 363 513 l 333 11 l 28 11 l 52 972 l 391 989 l 626 500 l 637 962 l 957 972 m 578 -130 q 569 -179 578 -152 q 543 -232 559 -205 q 502 -282 526 -258 q 448 -321 477 -305 q 447 -310 448 -321 q 446 -284 447 -299 q 445 -251 446 -269 q 443 -220 444 -233 q 396 -183 413 -209 q 379 -126 379 -157 q 387 -88 379 -106 q 408 -56 395 -70 q 440 -35 422 -43 q 479 -26 458 -26 q 517 -35 499 -26 q 549 -56 536 -43 q 571 -88 563 -70 q 578 -126 578 -106 l 578 -130 z "},"ņ":{"ha":905,"x_min":19,"x_max":876,"o":"m 876 343 q 874 192 876 267 q 869 41 873 117 l 479 47 q 514 287 499 168 q 529 529 529 407 q 528 557 529 538 q 526 602 528 577 q 520 653 524 627 q 510 701 516 679 q 494 736 503 722 q 472 750 485 750 q 433 736 449 750 q 407 702 417 723 q 390 654 396 680 q 381 601 384 627 q 377 551 378 574 q 376 513 376 528 q 370 274 372 393 q 365 35 368 156 l 19 20 q 45 496 33 260 q 65 972 58 733 l 385 989 l 382 880 q 424 924 401 903 q 471 959 446 944 q 524 982 496 973 q 583 990 552 990 q 684 971 641 990 q 759 920 728 952 q 811 843 790 887 q 845 748 832 798 q 865 643 858 698 q 874 536 871 589 q 876 433 876 483 q 876 343 876 384 m 517 -109 q 508 -158 517 -132 q 481 -212 498 -185 q 440 -261 465 -238 q 387 -300 416 -285 q 386 -290 387 -300 q 385 -263 386 -279 q 384 -231 385 -248 q 382 -199 382 -213 q 335 -163 352 -189 q 318 -106 318 -137 q 326 -67 318 -85 q 347 -36 334 -50 q 379 -14 361 -22 q 418 -6 397 -6 q 456 -14 438 -6 q 488 -36 475 -22 q 510 -67 502 -50 q 517 -106 517 -85 l 517 -109 z "},"Ň":{"ha":977,"x_min":28,"x_max":957,"o":"m 957 972 l 908 53 l 553 20 l 363 513 l 333 11 l 28 11 l 52 972 l 391 989 l 626 500 l 637 962 l 957 972 m 758 1229 q 726 1181 745 1208 q 688 1125 708 1154 q 646 1066 667 1096 q 606 1012 625 1037 l 473 993 l 276 1208 l 420 1299 l 526 1161 l 608 1294 l 758 1229 z "},"ň":{"ha":905,"x_min":19,"x_max":876,"o":"m 876 343 q 874 192 876 267 q 869 41 873 117 l 479 47 q 514 287 499 168 q 529 529 529 407 q 528 557 529 538 q 526 602 528 577 q 520 653 524 627 q 510 701 516 679 q 494 736 503 722 q 472 750 485 750 q 433 736 449 750 q 407 702 417 723 q 390 654 396 680 q 381 601 384 627 q 377 551 378 574 q 376 513 376 528 q 370 274 372 393 q 365 35 368 156 l 19 20 q 45 496 33 260 q 65 972 58 733 l 385 989 l 382 880 q 424 924 401 903 q 471 959 446 944 q 524 982 496 973 q 583 990 552 990 q 684 971 641 990 q 759 920 728 952 q 811 843 790 887 q 845 748 832 798 q 865 643 858 698 q 874 536 871 589 q 876 433 876 483 q 876 343 876 384 m 709 1240 q 678 1193 696 1219 q 640 1137 660 1166 q 598 1078 619 1107 q 557 1023 576 1048 l 425 1004 l 228 1220 l 372 1311 l 477 1173 l 560 1305 l 709 1240 z "},"ŉ":{"ha":1123,"x_min":1,"x_max":1094,"o":"m 1094 343 q 1092 192 1094 267 q 1087 41 1090 117 l 696 47 q 732 287 717 168 q 747 529 747 407 q 746 557 747 538 q 743 602 745 577 q 738 653 741 627 q 727 701 734 679 q 712 736 721 722 q 690 750 703 750 q 651 736 667 750 q 624 702 635 723 q 608 654 614 680 q 598 601 602 627 q 594 551 595 574 q 593 513 593 528 q 588 274 590 393 q 583 35 586 156 l 237 20 q 263 496 250 260 q 283 972 275 733 l 603 989 l 600 880 q 641 924 619 903 q 688 959 663 944 q 742 982 713 973 q 801 990 770 990 q 902 971 859 990 q 977 920 945 952 q 1029 843 1008 887 q 1063 748 1050 798 q 1082 643 1076 698 q 1092 536 1089 589 q 1094 433 1094 483 q 1094 343 1094 384 m 230 925 q 218 868 229 899 q 188 807 208 837 q 141 750 169 777 q 80 705 114 723 q 79 718 80 706 q 78 748 78 730 q 76 786 77 766 q 74 822 75 806 q 21 863 40 834 q 1 928 1 893 q 10 972 1 951 q 35 1008 19 993 q 71 1033 50 1024 q 115 1042 92 1042 q 160 1033 139 1042 q 196 1008 181 1024 q 221 972 212 993 q 230 928 230 951 l 230 925 z "},"Ŋ":{"ha":977,"x_min":28,"x_max":957,"o":"m 957 972 q 940 653 947 792 q 927 410 932 515 q 918 231 922 305 q 911 106 914 157 q 907 25 909 56 q 904 -24 905 -6 q 903 -52 903 -43 q 901 -69 902 -62 q 865 -230 894 -154 q 786 -362 836 -305 q 665 -452 736 -419 q 501 -486 593 -486 q 426 -479 465 -486 q 349 -461 387 -473 q 276 -431 311 -449 q 214 -389 241 -413 l 256 -109 q 345 -171 296 -147 q 451 -195 393 -195 q 530 -176 500 -195 q 576 -125 560 -157 q 597 -55 592 -94 q 604 25 603 -16 l 363 513 l 333 11 l 28 11 l 52 972 l 391 989 l 626 500 l 637 962 l 957 972 z "},"ŋ":{"ha":905,"x_min":19,"x_max":876,"o":"m 876 343 q 871 203 873 261 q 867 104 869 144 q 865 40 866 64 q 863 1 864 16 q 862 -22 863 -14 q 861 -36 861 -30 q 824 -196 853 -121 q 745 -329 795 -272 q 624 -419 695 -386 q 460 -452 553 -452 q 386 -446 425 -452 q 308 -428 347 -440 q 235 -398 270 -416 q 173 -356 200 -380 l 215 -75 q 304 -138 255 -114 q 410 -162 353 -162 q 483 -144 458 -162 q 516 -97 507 -126 q 527 -30 526 -68 q 529 46 528 7 l 529 529 q 528 557 529 538 q 526 602 528 577 q 520 653 524 627 q 510 701 516 679 q 494 736 503 722 q 472 750 485 750 q 433 736 449 750 q 407 702 417 723 q 390 654 396 680 q 381 601 384 627 q 377 551 378 574 q 376 513 376 528 q 370 274 372 393 q 365 35 368 156 l 19 20 q 45 496 33 260 q 65 972 58 733 l 385 989 l 382 880 q 424 924 401 903 q 471 959 446 944 q 524 982 496 973 q 583 990 552 990 q 684 971 641 990 q 759 920 728 952 q 811 843 790 887 q 845 748 832 798 q 865 643 858 698 q 874 536 871 589 q 876 433 876 483 q 876 343 876 384 z "},"Ō":{"ha":886,"x_min":12,"x_max":873,"o":"m 873 479 q 859 360 873 417 q 818 252 844 302 q 752 160 791 202 q 666 89 714 119 q 562 42 618 59 q 443 26 506 26 q 327 41 382 26 q 223 85 271 57 q 136 153 175 113 q 70 241 97 193 q 27 345 42 290 q 12 461 12 401 q 26 577 12 520 q 67 684 40 633 q 132 776 94 734 q 217 848 170 818 q 319 896 264 879 q 435 913 374 913 q 614 882 533 913 q 752 795 695 852 q 841 658 810 739 q 873 479 873 578 m 572 461 q 563 518 572 490 q 538 567 555 545 q 498 601 522 588 q 443 614 474 614 q 386 603 411 614 q 343 571 361 591 q 315 525 325 551 q 306 468 306 498 q 314 411 306 439 q 338 359 322 382 q 379 322 355 336 q 435 308 403 308 q 492 320 467 308 q 535 354 517 333 q 562 404 553 376 q 572 461 572 431 m 656 947 l 227 952 l 215 1114 l 659 1122 l 656 947 z "},"ō":{"ha":886,"x_min":12,"x_max":873,"o":"m 873 519 q 859 400 873 458 q 818 293 844 343 q 752 201 791 243 q 666 130 714 159 q 562 83 618 100 q 443 66 506 66 q 327 82 382 66 q 223 126 271 98 q 136 194 175 154 q 70 282 97 233 q 27 386 42 330 q 12 502 12 441 q 26 617 12 561 q 67 724 40 674 q 132 817 94 774 q 217 889 170 859 q 319 937 264 920 q 435 954 374 954 q 614 923 533 954 q 752 836 695 892 q 841 699 810 779 q 873 519 873 618 m 572 502 q 563 558 572 531 q 538 607 555 586 q 498 642 522 629 q 443 655 474 655 q 386 644 411 655 q 343 612 361 632 q 315 565 325 592 q 306 509 306 538 q 314 452 306 480 q 338 400 322 423 q 379 363 355 377 q 435 349 403 349 q 492 361 467 349 q 535 395 517 374 q 562 444 553 416 q 572 502 572 472 m 662 984 l 233 989 l 221 1151 l 665 1159 l 662 984 z "},"Ŏ":{"ha":886,"x_min":12,"x_max":873,"o":"m 873 479 q 859 360 873 417 q 818 252 844 302 q 752 160 791 202 q 666 89 714 119 q 562 42 618 59 q 443 26 506 26 q 327 41 382 26 q 223 85 271 57 q 136 153 175 113 q 70 241 97 193 q 27 345 42 290 q 12 461 12 401 q 26 577 12 520 q 67 684 40 633 q 132 776 94 734 q 217 848 170 818 q 319 896 264 879 q 435 913 374 913 q 614 882 533 913 q 752 795 695 852 q 841 658 810 739 q 873 479 873 578 m 572 461 q 563 518 572 490 q 538 567 555 545 q 498 601 522 588 q 443 614 474 614 q 386 603 411 614 q 343 571 361 591 q 315 525 325 551 q 306 468 306 498 q 314 411 306 439 q 338 359 322 382 q 379 322 355 336 q 435 308 403 308 q 492 320 467 308 q 535 354 517 333 q 562 404 553 376 q 572 461 572 431 m 631 1148 q 615 1068 631 1105 q 572 1004 600 1031 q 507 961 545 977 q 428 946 470 946 q 342 961 379 946 q 279 1003 304 976 q 241 1070 254 1031 q 229 1159 229 1109 q 229 1175 229 1166 q 230 1190 229 1183 l 387 1170 q 388 1145 387 1159 q 394 1119 389 1131 q 409 1097 399 1106 q 433 1088 418 1088 q 449 1094 443 1088 q 460 1107 456 1099 q 466 1124 464 1115 q 467 1141 467 1133 q 463 1179 467 1161 q 452 1215 458 1196 l 616 1244 q 627 1197 623 1222 q 631 1148 631 1173 z "},"ŏ":{"ha":886,"x_min":12,"x_max":873,"o":"m 873 519 q 859 400 873 458 q 818 293 844 343 q 752 201 791 243 q 666 130 714 159 q 562 83 618 100 q 443 66 506 66 q 327 82 382 66 q 223 126 271 98 q 136 194 175 154 q 70 282 97 233 q 27 386 42 330 q 12 502 12 441 q 26 617 12 561 q 67 724 40 674 q 132 817 94 774 q 217 889 170 859 q 319 937 264 920 q 435 954 374 954 q 614 923 533 954 q 752 836 695 892 q 841 699 810 779 q 873 519 873 618 m 572 502 q 563 558 572 531 q 538 607 555 586 q 498 642 522 629 q 443 655 474 655 q 386 644 411 655 q 343 612 361 632 q 315 565 325 592 q 306 509 306 538 q 314 452 306 480 q 338 400 322 423 q 379 363 355 377 q 435 349 403 349 q 492 361 467 349 q 535 395 517 374 q 562 444 553 416 q 572 502 572 472 m 635 1192 q 619 1111 635 1148 q 575 1047 603 1074 q 511 1005 548 1020 q 431 989 473 989 q 345 1004 382 989 q 283 1047 308 1019 q 245 1114 258 1074 q 232 1202 232 1153 q 232 1218 232 1210 q 233 1234 232 1226 l 391 1213 q 391 1188 390 1202 q 398 1162 393 1175 q 412 1141 403 1149 q 437 1132 421 1132 q 453 1137 446 1132 q 463 1150 459 1142 q 469 1167 467 1158 q 471 1185 471 1177 q 466 1222 471 1204 q 456 1258 462 1240 l 620 1288 q 630 1241 626 1265 q 635 1192 635 1216 z "},"Ő":{"ha":886,"x_min":12,"x_max":889,"o":"m 873 479 q 859 360 873 417 q 818 252 844 302 q 752 160 791 202 q 666 89 714 119 q 562 42 618 59 q 443 26 506 26 q 327 41 382 26 q 223 85 271 57 q 136 153 175 113 q 70 241 97 193 q 27 345 42 290 q 12 461 12 401 q 26 577 12 520 q 67 684 40 633 q 132 776 94 734 q 217 848 170 818 q 319 896 264 879 q 435 913 374 913 q 614 882 533 913 q 752 795 695 852 q 841 658 810 739 q 873 479 873 578 m 572 461 q 563 518 572 490 q 538 567 555 545 q 498 601 522 588 q 443 614 474 614 q 386 603 411 614 q 343 571 361 591 q 315 525 325 551 q 306 468 306 498 q 314 411 306 439 q 338 359 322 382 q 379 322 355 336 q 435 308 403 308 q 492 320 467 308 q 535 354 517 333 q 562 404 553 376 q 572 461 572 431 m 889 1123 q 744 1016 815 1070 q 603 902 673 962 l 508 985 q 536 1025 519 1003 q 571 1070 552 1046 q 610 1118 590 1094 q 650 1164 630 1142 q 745 1272 695 1217 l 889 1123 m 631 1169 q 486 1062 557 1116 q 347 947 415 1007 l 249 1031 q 277 1071 260 1049 q 312 1117 294 1093 q 351 1165 331 1141 q 391 1211 372 1189 q 488 1318 437 1263 l 631 1169 z "},"ő":{"ha":886,"x_min":12,"x_max":895,"o":"m 873 519 q 859 400 873 458 q 818 293 844 343 q 752 201 791 243 q 666 130 714 159 q 562 83 618 100 q 443 66 506 66 q 327 82 382 66 q 223 126 271 98 q 136 194 175 154 q 70 282 97 233 q 27 386 42 330 q 12 502 12 441 q 26 617 12 561 q 67 724 40 674 q 132 817 94 774 q 217 889 170 859 q 319 937 264 920 q 435 954 374 954 q 614 923 533 954 q 752 836 695 892 q 841 699 810 779 q 873 519 873 618 m 572 502 q 563 558 572 531 q 538 607 555 586 q 498 642 522 629 q 443 655 474 655 q 386 644 411 655 q 343 612 361 632 q 315 565 325 592 q 306 509 306 538 q 314 452 306 480 q 338 400 322 423 q 379 363 355 377 q 435 349 403 349 q 492 361 467 349 q 535 395 517 374 q 562 444 553 416 q 572 502 572 472 m 895 1160 q 750 1053 821 1107 q 609 939 680 999 l 514 1022 q 542 1062 526 1040 q 577 1107 558 1084 q 616 1155 596 1131 q 656 1202 636 1179 q 751 1310 701 1254 l 895 1160 m 637 1206 q 492 1099 564 1154 q 353 984 421 1044 l 255 1068 q 283 1108 267 1086 q 318 1154 300 1131 q 357 1202 337 1178 q 397 1249 378 1226 q 494 1356 443 1301 l 637 1206 z "},"Ǿ":{"ha":886,"x_min":11,"x_max":872,"o":"m 779 895 l 738 807 q 837 667 802 749 q 872 479 872 584 q 858 360 872 417 q 817 252 844 302 q 752 160 790 202 q 666 89 713 119 q 562 42 618 59 q 442 26 505 26 l 404 -80 l 133 26 l 171 121 q 104 188 134 150 q 54 269 75 225 q 22 360 33 312 q 11 461 11 409 q 25 577 11 520 q 66 684 39 633 q 131 776 93 734 q 216 848 169 818 q 318 896 263 879 q 434 913 373 913 q 478 911 456 913 q 519 906 499 909 l 562 990 l 779 895 m 305 468 q 309 425 305 446 q 323 384 313 404 l 423 613 q 374 597 395 610 q 337 565 352 584 q 313 520 321 545 q 305 468 305 495 m 571 461 q 568 494 571 477 q 559 526 565 511 l 460 311 q 506 330 486 315 q 541 364 527 344 q 563 409 555 385 q 571 461 571 434 m 764 1130 q 607 1041 684 1086 q 454 943 530 996 l 367 1038 q 399 1074 380 1054 q 440 1115 418 1094 q 484 1157 461 1136 q 529 1198 507 1179 q 637 1293 581 1245 l 764 1130 z "},"ǿ":{"ha":886,"x_min":11,"x_max":872,"o":"m 772 933 q 753 892 762 913 q 734 850 743 872 q 836 709 800 793 q 872 519 872 626 q 858 400 872 458 q 817 293 844 343 q 752 201 790 243 q 666 130 713 159 q 562 83 618 100 q 442 66 505 66 l 437 66 l 397 -42 l 126 64 l 165 164 q 101 231 130 194 q 53 312 73 269 q 22 402 33 355 q 11 502 11 450 q 25 617 11 561 q 66 724 39 674 q 131 817 93 774 q 216 889 169 859 q 318 937 263 920 q 434 954 373 954 q 474 952 454 954 q 514 948 494 950 l 555 1028 l 772 933 m 571 502 q 556 574 571 540 l 454 350 q 503 368 481 354 q 540 402 525 382 q 563 449 555 423 q 571 502 571 474 m 305 509 q 309 469 305 489 q 320 431 313 450 l 416 652 q 370 635 391 648 q 335 603 349 623 q 313 560 321 584 q 305 509 305 536 m 783 1177 q 626 1087 703 1133 q 473 989 549 1042 l 386 1084 q 418 1121 399 1101 q 459 1162 437 1141 q 503 1204 480 1183 q 548 1245 526 1225 q 656 1339 600 1292 l 783 1177 z "},"Ŕ":{"ha":842,"x_min":29,"x_max":829,"o":"m 829 654 q 820 558 829 601 q 791 479 811 515 q 741 412 772 443 q 665 354 709 382 l 827 66 l 522 7 l 417 296 l 333 293 l 321 11 l 29 11 q 36 319 33 165 q 43 627 39 472 q 45 781 44 705 q 51 936 47 858 q 144 965 98 954 q 237 983 191 977 q 331 992 283 989 q 429 994 379 994 q 579 973 507 994 q 707 909 651 951 q 796 802 762 866 q 829 654 829 739 m 526 632 q 518 684 526 661 q 495 725 510 708 q 457 752 479 743 q 404 762 434 762 q 377 761 390 762 q 352 755 364 759 l 341 503 l 357 503 q 417 511 387 503 q 471 534 447 518 q 510 574 495 549 q 526 632 526 598 m 780 1196 q 623 1107 699 1152 q 469 1009 546 1062 l 382 1104 q 415 1140 396 1120 q 455 1181 434 1160 q 500 1224 477 1202 q 545 1265 523 1245 q 652 1359 596 1312 l 780 1196 z "},"ŕ":{"ha":842,"x_min":29,"x_max":837,"o":"m 829 654 q 820 558 829 601 q 791 479 811 515 q 741 412 772 443 q 665 354 709 382 l 827 66 l 522 7 l 417 296 l 333 293 l 321 11 l 29 11 q 36 319 33 165 q 43 627 39 472 q 45 781 44 705 q 51 936 47 858 q 144 965 98 954 q 237 983 191 977 q 331 992 283 989 q 429 994 379 994 q 579 973 507 994 q 707 909 651 951 q 796 802 762 866 q 829 654 829 739 m 526 632 q 518 684 526 661 q 495 725 510 708 q 457 752 479 743 q 404 762 434 762 q 377 761 390 762 q 352 755 364 759 l 341 503 l 357 503 q 417 511 387 503 q 471 534 447 518 q 510 574 495 549 q 526 632 526 598 m 837 1190 q 680 1100 756 1145 q 526 1002 603 1055 l 439 1097 q 472 1134 453 1114 q 512 1175 491 1154 q 557 1217 534 1196 q 602 1258 580 1238 q 709 1352 653 1305 l 837 1190 z "},"Ŗ":{"ha":842,"x_min":29,"x_max":829,"o":"m 829 654 q 820 558 829 601 q 791 479 811 515 q 741 412 772 443 q 665 354 709 382 l 827 66 l 522 7 l 417 296 l 333 293 l 321 11 l 29 11 q 36 319 33 165 q 43 627 39 472 q 45 781 44 705 q 51 936 47 858 q 144 965 98 954 q 237 983 191 977 q 331 992 283 989 q 429 994 379 994 q 579 973 507 994 q 707 909 651 951 q 796 802 762 866 q 829 654 829 739 m 526 632 q 518 684 526 661 q 495 725 510 708 q 457 752 479 743 q 404 762 434 762 q 377 761 390 762 q 352 755 364 759 l 341 503 l 357 503 q 417 511 387 503 q 471 534 447 518 q 510 574 495 549 q 526 632 526 598 m 517 -143 q 508 -192 517 -165 q 481 -245 498 -219 q 440 -295 465 -272 q 387 -334 416 -319 q 386 -323 387 -334 q 385 -297 386 -313 q 384 -264 385 -282 q 382 -233 382 -247 q 335 -197 352 -222 q 318 -140 318 -171 q 326 -101 318 -119 q 347 -70 334 -83 q 379 -48 361 -56 q 418 -40 397 -40 q 456 -48 438 -40 q 488 -70 475 -56 q 510 -101 502 -83 q 517 -140 517 -119 l 517 -143 z "},"ŗ":{"ha":842,"x_min":29,"x_max":829,"o":"m 829 654 q 820 558 829 601 q 791 479 811 515 q 741 412 772 443 q 665 354 709 382 l 827 66 l 522 7 l 417 296 l 333 293 l 321 11 l 29 11 q 36 319 33 165 q 43 627 39 472 q 45 781 44 705 q 51 936 47 858 q 144 965 98 954 q 237 983 191 977 q 331 992 283 989 q 429 994 379 994 q 579 973 507 994 q 707 909 651 951 q 796 802 762 866 q 829 654 829 739 m 526 632 q 518 684 526 661 q 495 725 510 708 q 457 752 479 743 q 404 762 434 762 q 377 761 390 762 q 352 755 364 759 l 341 503 l 357 503 q 417 511 387 503 q 471 534 447 518 q 510 574 495 549 q 526 632 526 598 m 517 -143 q 508 -192 517 -165 q 481 -245 498 -219 q 440 -295 465 -272 q 387 -334 416 -319 q 386 -323 387 -334 q 385 -297 386 -313 q 384 -264 385 -282 q 382 -233 382 -247 q 335 -197 352 -222 q 318 -140 318 -171 q 326 -101 318 -119 q 347 -70 334 -83 q 379 -48 361 -56 q 418 -40 397 -40 q 456 -48 438 -40 q 488 -70 475 -56 q 510 -101 502 -83 q 517 -140 517 -119 l 517 -143 z "},"Ř":{"ha":842,"x_min":29,"x_max":829,"o":"m 829 654 q 820 558 829 601 q 791 479 811 515 q 741 412 772 443 q 665 354 709 382 l 827 66 l 522 7 l 417 296 l 333 293 l 321 11 l 29 11 q 36 319 33 165 q 43 627 39 472 q 45 781 44 705 q 51 936 47 858 q 144 965 98 954 q 237 983 191 977 q 331 992 283 989 q 429 994 379 994 q 579 973 507 994 q 707 909 651 951 q 796 802 762 866 q 829 654 829 739 m 526 632 q 518 684 526 661 q 495 725 510 708 q 457 752 479 743 q 404 762 434 762 q 377 761 390 762 q 352 755 364 759 l 341 503 l 357 503 q 417 511 387 503 q 471 534 447 518 q 510 574 495 549 q 526 632 526 598 m 661 1255 q 630 1207 648 1234 q 591 1151 612 1180 q 550 1092 571 1122 q 509 1038 528 1063 l 376 1019 l 180 1234 l 323 1325 l 429 1187 l 512 1320 l 661 1255 z "},"ř":{"ha":842,"x_min":29,"x_max":829,"o":"m 829 654 q 820 558 829 601 q 791 479 811 515 q 741 412 772 443 q 665 354 709 382 l 827 66 l 522 7 l 417 296 l 333 293 l 321 11 l 29 11 q 36 319 33 165 q 43 627 39 472 q 45 781 44 705 q 51 936 47 858 q 144 965 98 954 q 237 983 191 977 q 331 992 283 989 q 429 994 379 994 q 579 973 507 994 q 707 909 651 951 q 796 802 762 866 q 829 654 829 739 m 526 632 q 518 684 526 661 q 495 725 510 708 q 457 752 479 743 q 404 762 434 762 q 377 761 390 762 q 352 755 364 759 l 341 503 l 357 503 q 417 511 387 503 q 471 534 447 518 q 510 574 495 549 q 526 632 526 598 m 661 1253 q 630 1205 648 1232 q 591 1149 612 1179 q 550 1091 571 1120 q 509 1036 528 1061 l 376 1017 l 180 1233 l 323 1324 l 429 1185 l 512 1318 l 661 1253 z "},"Ś":{"ha":737,"x_min":18,"x_max":729,"o":"m 729 361 q 697 198 729 268 q 609 83 665 129 q 478 14 553 37 q 317 -9 403 -9 q 244 -1 283 -9 q 163 21 204 8 q 85 50 123 35 q 18 79 47 65 l 48 358 q 176 306 106 323 q 314 288 246 288 q 345 289 327 288 q 380 295 363 290 q 408 310 397 300 q 420 339 420 320 q 412 361 420 352 q 391 376 404 370 q 361 385 378 382 q 330 389 345 388 q 300 391 314 391 q 279 391 287 391 q 173 411 220 391 q 91 468 125 431 q 37 554 56 504 q 18 662 18 604 q 51 805 18 742 q 137 913 83 869 q 260 981 191 958 q 405 1005 330 1005 q 473 1003 438 1005 q 544 994 509 1000 q 612 979 578 988 q 675 955 645 969 l 649 680 q 552 706 603 695 q 454 716 502 716 q 431 716 445 716 q 402 714 417 715 q 371 709 387 712 q 343 700 355 705 q 323 684 331 694 q 317 662 316 675 q 328 638 317 647 q 355 624 338 629 q 392 616 372 618 q 431 614 412 614 q 468 614 451 614 q 496 613 485 614 q 593 590 550 610 q 667 538 637 570 q 713 460 697 505 q 729 361 729 415 m 646 1215 q 488 1125 565 1171 q 335 1027 412 1080 l 248 1122 q 281 1159 262 1139 q 321 1200 300 1179 q 366 1242 342 1221 q 410 1283 389 1263 q 518 1377 462 1330 l 646 1215 z "},"ś":{"ha":739,"x_min":19,"x_max":730,"o":"m 730 347 q 697 187 730 254 q 609 76 665 119 q 478 11 553 32 q 317 -9 404 -9 q 244 -1 284 -9 q 164 21 205 8 q 86 50 123 35 q 19 79 48 65 l 49 345 q 177 292 106 310 q 315 274 247 274 q 346 275 328 274 q 381 281 364 276 q 409 296 397 286 q 420 326 420 307 q 412 348 420 338 q 391 362 404 357 q 362 371 378 368 q 330 376 346 374 q 301 377 315 377 q 279 377 288 377 q 173 395 221 377 q 91 447 125 414 q 38 529 57 481 q 19 635 19 576 q 51 778 19 715 q 137 886 83 842 q 261 954 191 930 q 406 978 331 978 q 474 976 439 978 q 544 967 509 973 q 612 951 579 961 q 675 928 646 942 l 650 652 q 553 679 604 668 q 454 689 503 689 q 432 689 446 689 q 402 687 418 688 q 372 682 387 685 q 344 672 356 678 q 324 657 332 667 q 317 635 317 648 q 329 612 318 620 q 356 600 339 604 q 392 596 372 596 q 432 597 412 596 q 469 599 452 598 q 496 600 486 600 q 594 576 551 596 q 668 524 637 557 q 714 447 698 492 q 730 347 730 401 m 618 1186 q 460 1097 537 1142 q 307 999 384 1052 l 220 1094 q 253 1130 234 1110 q 293 1171 272 1150 q 338 1214 315 1192 q 382 1255 361 1235 q 490 1349 434 1301 l 618 1186 z "},"Ŝ":{"ha":737,"x_min":18,"x_max":729,"o":"m 729 361 q 697 198 729 268 q 609 83 665 129 q 478 14 553 37 q 317 -9 403 -9 q 244 -1 283 -9 q 163 21 204 8 q 85 50 123 35 q 18 79 47 65 l 48 358 q 176 306 106 323 q 314 288 246 288 q 345 289 327 288 q 380 295 363 290 q 408 310 397 300 q 420 339 420 320 q 412 361 420 352 q 391 376 404 370 q 361 385 378 382 q 330 389 345 388 q 300 391 314 391 q 279 391 287 391 q 173 411 220 391 q 91 468 125 431 q 37 554 56 504 q 18 662 18 604 q 51 805 18 742 q 137 913 83 869 q 260 981 191 958 q 405 1005 330 1005 q 473 1003 438 1005 q 544 994 509 1000 q 612 979 578 988 q 675 955 645 969 l 649 680 q 552 706 603 695 q 454 716 502 716 q 431 716 445 716 q 402 714 417 715 q 371 709 387 712 q 343 700 355 705 q 323 684 331 694 q 317 662 316 675 q 328 638 317 647 q 355 624 338 629 q 392 616 372 618 q 431 614 412 614 q 468 614 451 614 q 496 613 485 614 q 593 590 550 610 q 667 538 637 570 q 713 460 697 505 q 729 361 729 415 m 472 1019 l 366 1157 l 283 1025 l 134 1089 q 166 1138 147 1110 q 206 1197 185 1166 q 249 1257 227 1227 q 290 1313 271 1287 l 430 1314 l 616 1107 l 472 1019 z "},"ŝ":{"ha":739,"x_min":19,"x_max":730,"o":"m 730 347 q 697 187 730 254 q 609 76 665 119 q 478 11 553 32 q 317 -9 404 -9 q 244 -1 284 -9 q 164 21 205 8 q 86 50 123 35 q 19 79 48 65 l 49 345 q 177 292 106 310 q 315 274 247 274 q 346 275 328 274 q 381 281 364 276 q 409 296 397 286 q 420 326 420 307 q 412 348 420 338 q 391 362 404 357 q 362 371 378 368 q 330 376 346 374 q 301 377 315 377 q 279 377 288 377 q 173 395 221 377 q 91 447 125 414 q 38 529 57 481 q 19 635 19 576 q 51 778 19 715 q 137 886 83 842 q 261 954 191 930 q 406 978 331 978 q 474 976 439 978 q 544 967 509 973 q 612 951 579 961 q 675 928 646 942 l 650 652 q 553 679 604 668 q 454 689 503 689 q 432 689 446 689 q 402 687 418 688 q 372 682 387 685 q 344 672 356 678 q 324 657 332 667 q 317 635 317 648 q 329 612 318 620 q 356 600 339 604 q 392 596 372 596 q 432 597 412 596 q 469 599 452 598 q 496 600 486 600 q 594 576 551 596 q 668 524 637 557 q 714 447 698 492 q 730 347 730 401 m 466 999 l 360 1137 l 277 1006 l 128 1069 q 160 1119 141 1090 q 200 1177 179 1147 q 243 1237 221 1207 q 284 1293 264 1267 l 424 1295 l 610 1087 l 466 999 z "},"Ş":{"ha":737,"x_min":18,"x_max":729,"o":"m 524 -166 q 512 -233 524 -205 q 477 -277 499 -260 q 424 -302 454 -294 q 357 -310 393 -310 q 328 -308 345 -310 q 295 -303 312 -307 q 263 -293 279 -299 q 237 -279 248 -288 l 296 -172 q 315 -178 304 -176 q 336 -181 326 -181 q 360 -174 348 -181 q 372 -153 372 -167 q 366 -136 372 -142 q 351 -125 360 -130 q 332 -120 342 -121 q 314 -119 321 -119 q 287 -120 300 -119 q 260 -125 273 -122 l 265 -5 q 200 10 234 0 q 134 31 167 20 q 72 55 102 43 q 18 79 42 68 l 48 358 q 176 306 106 323 q 314 288 246 288 q 345 289 327 288 q 380 295 363 290 q 408 310 397 300 q 420 339 420 320 q 412 361 420 352 q 391 376 404 370 q 361 385 378 382 q 330 389 345 388 q 300 391 314 391 q 279 391 287 391 q 173 411 220 391 q 91 468 125 431 q 37 554 56 504 q 18 662 18 604 q 51 805 18 742 q 137 913 83 869 q 260 981 191 958 q 405 1005 330 1005 q 473 1003 438 1005 q 544 994 509 1000 q 612 979 578 988 q 675 955 645 969 l 649 680 q 552 706 603 695 q 454 716 502 716 q 431 716 445 716 q 402 714 417 715 q 371 709 387 712 q 343 700 355 705 q 323 684 331 694 q 317 662 316 675 q 328 638 317 647 q 355 624 338 629 q 392 616 372 618 q 431 614 412 614 q 468 614 451 614 q 496 613 485 614 q 593 590 550 610 q 667 538 637 570 q 713 460 697 505 q 729 361 729 415 q 703 213 729 277 q 631 102 677 148 q 522 30 585 56 q 385 -5 458 3 l 385 -32 q 440 -43 414 -33 q 485 -70 466 -52 q 514 -111 503 -87 q 524 -166 524 -136 z "},"ş":{"ha":739,"x_min":19,"x_max":730,"o":"m 513 -170 q 500 -236 513 -209 q 465 -280 488 -263 q 412 -306 443 -298 q 346 -313 382 -313 q 317 -312 333 -313 q 284 -306 300 -310 q 252 -297 267 -302 q 225 -282 236 -291 l 285 -175 q 304 -182 293 -179 q 324 -184 315 -184 q 349 -177 336 -184 q 361 -156 361 -170 q 355 -139 361 -146 q 339 -129 349 -133 q 320 -123 330 -125 q 302 -122 310 -122 q 275 -124 289 -122 q 248 -129 262 -125 l 254 -3 q 192 12 224 3 q 129 33 160 22 q 70 56 98 44 q 19 79 41 68 l 49 345 q 177 292 106 310 q 315 274 247 274 q 346 275 328 274 q 381 281 364 276 q 409 296 397 286 q 420 326 420 307 q 412 348 420 338 q 391 362 404 357 q 362 371 378 368 q 330 376 346 374 q 301 377 315 377 q 279 377 288 377 q 173 395 221 377 q 91 447 125 414 q 38 529 57 481 q 19 635 19 576 q 51 778 19 715 q 137 886 83 842 q 261 954 191 930 q 406 978 331 978 q 474 976 439 978 q 544 967 509 973 q 612 951 579 961 q 675 928 646 942 l 650 652 q 553 679 604 668 q 454 689 503 689 q 432 689 446 689 q 402 687 418 688 q 372 682 387 685 q 344 672 356 678 q 324 657 332 667 q 317 635 317 648 q 329 612 318 620 q 356 600 339 604 q 392 596 372 596 q 432 597 412 596 q 469 599 452 598 q 496 600 486 600 q 594 576 551 596 q 668 524 637 557 q 714 447 698 492 q 730 347 730 401 q 703 198 730 262 q 628 91 675 134 q 514 23 580 47 q 373 -7 449 -1 l 373 -35 q 429 -46 403 -37 q 473 -73 454 -56 q 502 -115 492 -90 q 513 -170 513 -139 z "},"Ỳ":{"ha":843,"x_min":8,"x_max":906,"o":"m 906 918 l 533 397 l 515 -27 l 194 -27 l 202 395 l 8 898 l 354 941 l 408 648 l 581 941 l 906 918 m 414 936 q 264 1040 339 992 q 111 1135 190 1088 l 245 1294 q 349 1195 300 1243 q 392 1152 370 1174 q 435 1107 414 1129 q 474 1064 456 1085 q 505 1027 492 1044 l 414 936 z "},"ỳ":{"ha":841,"x_min":-27,"x_max":871,"o":"m 871 918 l 552 397 l 562 14 l 213 14 l 221 395 l -27 898 l 319 941 l 427 648 l 545 941 l 871 918 m 391 929 q 241 1034 316 985 q 88 1128 167 1082 l 222 1287 q 326 1188 277 1236 q 369 1145 347 1167 q 412 1100 391 1122 q 451 1058 433 1078 q 481 1020 469 1037 l 391 929 z "},"Ź":{"ha":676,"x_min":8,"x_max":669,"o":"m 655 745 l 345 326 l 644 326 l 640 38 l 35 14 l 8 279 l 362 741 l 38 716 l 35 989 l 643 989 l 655 745 m 669 1205 q 511 1116 588 1161 q 358 1018 435 1071 l 271 1113 q 304 1149 285 1129 q 344 1190 323 1169 q 389 1233 366 1211 q 433 1274 412 1254 q 541 1368 485 1320 l 669 1205 z "},"ź":{"ha":688,"x_min":24,"x_max":671,"o":"m 671 718 l 360 326 l 646 326 l 656 38 l 51 14 l 24 279 l 378 713 l 26 689 l 24 962 l 659 962 l 671 718 m 665 1173 q 508 1084 585 1129 q 355 986 431 1039 l 268 1081 q 300 1117 281 1097 q 341 1158 319 1137 q 385 1201 362 1179 q 430 1242 408 1222 q 538 1336 481 1289 l 665 1173 z "},"Ż":{"ha":676,"x_min":8,"x_max":655,"o":"m 655 745 l 345 326 l 644 326 l 640 38 l 35 14 l 8 279 l 362 741 l 38 716 l 35 989 l 643 989 l 655 745 m 483 1149 q 472 1097 483 1121 q 444 1056 462 1074 q 401 1027 425 1038 q 349 1017 376 1017 q 294 1027 319 1017 q 250 1056 269 1038 q 222 1097 232 1074 q 212 1149 212 1121 q 222 1200 212 1176 q 250 1243 232 1225 q 292 1271 268 1261 q 345 1282 317 1282 q 399 1271 374 1282 q 443 1243 425 1261 q 472 1200 462 1225 q 483 1149 483 1176 z "},"ż":{"ha":688,"x_min":24,"x_max":671,"o":"m 671 718 l 360 326 l 646 326 l 656 38 l 51 14 l 24 279 l 378 713 l 26 689 l 24 962 l 659 962 l 671 718 m 470 1126 q 459 1075 470 1099 q 431 1033 449 1051 q 388 1005 412 1015 q 336 995 363 995 q 281 1005 306 995 q 237 1033 256 1015 q 209 1075 219 1051 q 199 1126 199 1099 q 209 1178 199 1154 q 237 1220 219 1202 q 279 1249 255 1238 q 332 1259 304 1259 q 386 1249 361 1259 q 430 1220 412 1238 q 459 1178 449 1202 q 470 1126 470 1154 z "},"Ŷ":{"ha":843,"x_min":8,"x_max":906,"o":"m 906 918 l 533 397 l 515 -27 l 194 -27 l 202 395 l 8 898 l 354 941 l 408 648 l 581 941 l 906 918 m 547 962 l 441 1100 l 358 968 l 209 1032 q 241 1081 222 1053 q 281 1140 260 1109 q 323 1200 302 1170 q 365 1256 345 1230 l 505 1257 l 690 1050 l 547 962 z "},"ŷ":{"ha":841,"x_min":-27,"x_max":871,"o":"m 871 918 l 552 397 l 562 14 l 213 14 l 221 395 l -27 898 l 319 941 l 427 648 l 545 941 l 871 918 m 517 951 l 412 1090 l 329 958 l 180 1022 q 212 1071 193 1043 q 252 1129 231 1099 q 294 1190 273 1160 q 336 1246 316 1220 l 475 1247 l 661 1040 l 517 951 z "},"Ţ":{"ha":754,"x_min":4,"x_max":751,"o":"m 751 970 l 745 682 l 543 674 l 491 31 l 205 16 l 206 659 l 4 648 l 12 968 l 751 970 m 443 -143 q 433 -192 443 -165 q 407 -245 424 -219 q 366 -295 390 -272 q 312 -334 342 -319 q 312 -323 312 -334 q 311 -297 311 -313 q 309 -264 310 -282 q 307 -233 308 -247 q 260 -197 277 -222 q 243 -140 243 -171 q 251 -101 243 -119 q 273 -70 259 -83 q 304 -48 286 -56 q 343 -40 323 -40 q 382 -48 363 -40 q 414 -70 400 -56 q 435 -101 427 -83 q 443 -140 443 -119 l 443 -143 z "}}}
